<svg id="Layer_1" xmlns="http://www.w3.org/2000/svg" viewBox="0 0 136.9 136.9"><style>.st0{fill:#4abc96}.st1{fill:#5e5f5e}.st2{fill:#d32027}.st3{fill:#c82127}.st4{fill:#a81e22}.st5{fill:#fff}.st6{fill:#f9f298}.st7{opacity:.8;fill:#b1d4d7;enable-background:new}.st8{fill:#d3e0e1}.st9{fill:#8d191c}.st10{fill:#f1e7a4}.st11{fill:#a69c60}.st12{fill:#faf3d1}</style><circle class="st0" cx="68.5" cy="68.5" r="63.3"/><path class="st1" d="M34.7 89.8c0 3.8-3.1 6.9-6.9 6.9-3.8 0-6.9-3.1-6.9-6.9V74.6c0-3.8 3.1-6.9 6.9-6.9 3.8 0 6.9 3.1 6.9 6.9v15.2zM117.1 89.8c0 3.8-3.1 6.9-6.9 6.9-3.8 0-6.9-3.1-6.9-6.9V74.6c0-3.8 3.1-6.9 6.9-6.9 3.8 0 6.9 3.1 6.9 6.9v15.2z"/><path class="st2" d="M108 52.4c-4.3-11.6-9.1-26.9-16.7-26.9 0 0-13.6-1.1-21.7-1.1-7.7 0-21.7 1.1-21.7 1.1-8.2 0-12.7 15.4-16.9 27-6.3 2.7-12.2 10.4-10.8 16.4s8 24.5 17.8 24.5h63.1c9.8 0 17.5-20 17.8-24.5s-4.5-13.8-10.9-16.5z"/><path class="st3" d="M51.6 29.8s11.6-1 17.9-1c6.7 0 17.9 1 17.9 1 6.4 0 13.5 13.7 17.5 24 1.9 4.9-3.2 24.3-10.8 24.3H45c-7.7 0-12.8-19.4-11-24.3 3.8-10.3 10.8-24 17.6-24z"/><path class="st4" d="M45 78c-7.7 0-12.8-19.4-11-24.3 0 0 1.9 9.2 4.2 14.1C41.4 74.1 45 78 45 78zM94.1 78c7.7 0 12.8-19.4 11-24.3 0 0-1.9 9.2-4.2 14.1-3.2 6.3-6.8 10.2-6.8 10.2z"/><path class="st3" d="M36.9 74.8c0 2.8-5.8 3.2-8.5 3.2-2.8 0-5-2.2-5-5s2.2-5 5-5c2.7-.1 8.5 4 8.5 6.8z"/><path class="st5" d="M35.6 74.4c0 2.2-4.7 2.6-6.9 2.6s-4.1-1.8-4.1-4.1 1.8-4.1 4.1-4.1 6.9 3.4 6.9 5.6z"/><path class="st4" d="M95.4 85.8c0 2.8-2.2 5-5 5H48.7c-2.8 0-5-2.2-5-5s2.2-5 5-5h41.7c2.8 0 5 2.2 5 5z"/><path class="st3" d="M102.4 74.8c0 2.8 5.8 3.2 8.5 3.2 2.8 0 5-2.2 5-5s-2.2-5-5-5c-2.7-.1-8.5 4-8.5 6.8z"/><path class="st5" d="M103.4 74.5c0 2.4 4.9 2.7 7.3 2.7 2.4 0 4.3-1.9 4.3-4.3s-1.9-4.3-4.3-4.3c-2.3.1-7.3 3.6-7.3 5.9z"/><circle class="st6" cx="29.6" cy="73.1" r="3.5"/><circle class="st6" cx="109.8" cy="73.1" r="3.5"/><path class="st7" d="M49.1 29.2s13.2-.9 20.5-.9c7.7 0 20.5.9 20.5.9 7.3 0 9.3 11.1 13.1 20.6 1.8 4.5-68.9 4.5-67.2 0 3.5-9.5 5.4-20.6 13.1-20.6z"/><path class="st8" d="M49.1 29.2s13.2-.9 20.5-.9c3.1 0 7.1.1 10.7.3L61.5 53c-14.2-.3-26.3-1.4-25.6-3.3 3.6-9.4 5.5-20.5 13.2-20.5z"/><g><path class="st9" d="M86.9 84.1h-35c-.4 0-.7-.3-.7-.7 0-.4.3-.7.7-.7h35c.4 0 .7.3.7.7-.1.4-.4.7-.7.7zM86.9 86.4h-35c-.4 0-.7-.3-.7-.7 0-.4.3-.7.7-.7h35c.4 0 .7.3.7.7-.1.4-.4.7-.7.7zM86.9 88.8h-35c-.4 0-.7-.3-.7-.7 0-.4.3-.7.7-.7h35c.4 0 .7.3.7.7-.1.4-.4.7-.7.7z"/></g><g><path class="st10" d="M76.4 71.6c-2.8.5-4.9 2.8-4.9 2.8-.8.4-1.7.3-2-.3-.3-.6 0-1.5.8-1.9 2.6-1.5 6.1-.6 6.1-.6z"/><path class="st10" d="M75.3 73c-2.3.2-4.2 1.8-4.2 1.8-.7.3-1.4.1-1.6-.4-.2-.5.1-1.2.8-1.5 2.2-1 5 .1 5 .1z"/><path class="st10" d="M73.9 74c-1.7-.1-3.3 1-3.3 1-.5.2-1-.1-1.2-.5-.1-.4.2-.9.7-1 1.8-.6 3.8.5 3.8.5zM62.3 71.6c2.8.5 4.9 2.8 4.9 2.8.8.4 1.7.3 2-.3.3-.6 0-1.5-.8-1.9-2.6-1.5-6.1-.6-6.1-.6z"/><path class="st10" d="M63.4 73c2.3.2 4.2 1.8 4.2 1.8.7.3 1.4.1 1.6-.4.2-.5-.1-1.2-.8-1.5-2.2-1-5 .1-5 .1z"/><path class="st10" d="M64.8 74c1.7-.1 3.3 1 3.3 1 .5.2 1-.1 1.2-.5.1-.4-.2-.9-.7-1-1.8-.6-3.8.5-3.8.5z"/><circle class="st11" cx="69.2" cy="73.6" r="2.1"/><circle class="st12" cx="69.2" cy="73.6" r="1"/></g></svg>