<svg id="Layer_1" xmlns="http://www.w3.org/2000/svg" viewBox="0 0 100 100"><style>.st0{fill:#3db39e}.st1{fill:#e4e7e7}.st2{fill:#349886}.st3{fill:#e77944}.st4{fill:#cdcfcf}.st5{fill:#eff1f1}.st6{fill:#c5673a}.st7{fill:#cccdcd}</style><path class="st0" d="M50 0c27.6 0 50 22.4 50 50s-22.4 50-50 50S0 77.6 0 50 22.4 0 50 0z"/><path class="st1" d="M23.4 32.3l17.9 8.9 7.1-3.6-17.9-8.9-7.1 3.6zm37.5-.9L43 22.5l-7.1 3.6L53.8 35l7.1-3.6zM28.7 47.5l7.1-3.6L18 35l-7.1 3.6 17.8 8.9zm19.7-27.7l17.9 8.9 7.1-3.6-17.9-8.9-7.1 3.6zm7 79.9c3.5-.4 6.8-1.1 10-2.1L2.7 66.2c1.1 3.3 2.6 6.4 4.3 9.3l48.4 24.2zM3.7 60l7.1-3.6L0 51c.1 2.6.3 5.1.7 7.5l3 1.5zm12.5-6.2l7.1-3.6-17.8-8.9-5.1 2.6c-.1.6-.1 1.3-.2 1.9 0-.1 16 8 16 8z"/><path class="st2" d="M60.4 71.9c6-3.4 13.5-1.6 14.4 0 .9 1.6-1.2 8.8-7.2 12.2-6 3.4-13.5 1.6-14.4 0-.8-1.3 1.2-8.8 7.2-12.2z"/><path class="st3" d="M85.7 46.7c4.8-4.8 8.2-10.4 10.4-16-5-12.1-14.8-21.8-26.9-26.9C63.5 6.1 57.8 9.5 53 14.3c-15.7 15.6-15.6 41-12.1 44.5C45.2 63 70 62.4 85.7 46.7zm0 0c4.8-4.8 8.2-10.4 10.4-16-5-12.1-14.8-21.8-26.9-26.9C63.5 6.1 57.8 9.5 53 14.3c-15.7 15.6-15.6 41-12.1 44.5C45.2 63 70 62.4 85.7 46.7z"/><path class="st4" d="M58.6 38.5l19-19c.8-.8 2.1-.8 2.9 0 .8.8.8 2.1 0 2.9l-19 19c-.8.8-2.1.8-2.9 0s-.8-2.1 0-2.9z"/><path class="st5" d="M60.3 34.3c-.4-.4-1-.4-1.4 0l-.6.7c-.4.4-.4 1 0 1.4l5.4 5.4c.4.4 1 .4 1.4 0l.7-.7c.4-.4.4-1 0-1.4-.1 0-5.5-5.4-5.5-5.4zm5-5c-.4-.4-1-.4-1.4 0l-.7.7c-.4.4-.4 1 0 1.4l5.4 5.4c.4.4 1 .4 1.4 0l.7-.7c.4-.4.4-1 0-1.4l-5.4-5.4zm5-5c-.4-.4-1-.4-1.4 0l-.6.7c-.4.4-.4 1 0 1.4l5.4 5.4c.4.4 1 .4 1.4 0l.7-.7c.4-.4.4-1 0-1.4l-5.5-5.4zm10.4.4l-5.4-5.4c-.4-.4-1-.4-1.4 0l-.6.7c-.4.4-.4 1 0 1.4l5.4 5.4c.4.4 1 .4 1.4 0l.7-.7c.3-.4.3-1-.1-1.4zm-20.4 9.6c-.4-.4-1-.4-1.4 0l-.6.7c-.4.4-.4 1 0 1.4l5.4 5.4c.4.4 1 .4 1.4 0l.7-.7c.4-.4.4-1 0-1.4-.1 0-5.5-5.4-5.5-5.4zm5-5c-.4-.4-1-.4-1.4 0l-.7.7c-.4.4-.4 1 0 1.4l5.4 5.4c.4.4 1 .4 1.4 0l.7-.7c.4-.4.4-1 0-1.4l-5.4-5.4zm5-5c-.4-.4-1-.4-1.4 0l-.6.7c-.4.4-.4 1 0 1.4l5.4 5.4c.4.4 1 .4 1.4 0l.7-.7c.4-.4.4-1 0-1.4l-5.5-5.4zm10.4.4l-5.4-5.4c-.4-.4-1-.4-1.4 0l-.6.7c-.4.4-.4 1 0 1.4l5.4 5.4c.4.4 1 .4 1.4 0l.7-.7c.3-.4.3-1-.1-1.4z"/><path class="st6" d="M60.4 17.3c4.6-4.6 10-7.8 15.4-10.1-2.1-1.3-4.3-2.4-6.6-3.3C63.5 6.1 57.8 9.5 53 14.3c-15.7 15.6-15.6 41-12.1 44.5 1.1 1.1 3.5 1.8 6.8 2.1-2.9-5.7-2.1-29 12.7-43.6z"/><path class="st5" d="M39.1 46.3c2.5 1.9 5.6 4.4 8.4 7.2 2.4 2.4 4.7 5.1 6.4 7.4 2.7-.2 5.7-.7 8.8-1.5-1.8-2.6-5.3-7.5-9.5-11.7-4.9-4.9-10.7-8.8-12.8-10.2-.6 3.1-1.1 6.1-1.3 8.8z"/><path class="st7" d="M46.4 52.3c0-2.9.3-6.2 1-9.8-3-2.4-5.7-4.2-6.9-5-.2.8-.3 1.5-.5 2.2v.2c-.1.7-.2 1.3-.3 2v.2c-.2 1.4-.4 2.8-.5 4.1 2.1 1.7 4.7 3.7 7.2 6.1z"/></svg>