<svg id="Layer_1" xmlns="http://www.w3.org/2000/svg" viewBox="0 0 136.9 136.9"><style>.st0{fill:#4abc96}.st1{fill:#ef5e8f}.st2,.st3{fill:#cfe6e9}.st3{opacity:.8;enable-background:new}.st4{fill:#f1f8f9}.st5{fill:#f4e028}.st6{fill:#f9f29a}</style><circle class="st0" cx="68.5" cy="68.5" r="63.3"/><path class="st1" d="M82.5 24.3l-4-1.8-11.1-4.9-.8-.4c-.1 0-.2-.1-.3-.1-.6-.1-1.1-.1-1.7-.1-3 0-5.5 2.3-5.5 5.1 0 .5.1 1 .2 1.4l7.5 49.3 2.7-.4-7-45.6-.5-3.3c-.5-3.7 3.1-3.6 5-3.1l3.1 1.3 7.3 3.2 4 1.8c.6.3 1.3 0 1.6-.7s.1-1.4-.5-1.7z"/><path class="st2" d="M65.4 75.7H70v43.1h-4.6z"/><ellipse class="st2" cx="68" cy="118.5" rx="16.2" ry="1.2"/><path class="st3" d="M69.9 77.8h-4.4c-.4 0-25-25.9-25-30.7 0-3.3 3.1-3.7 6.9-3.7h40.5c3.8 0 6.9 0 6.9 3.7.1 4.9-24.5 30.7-24.9 30.7z"/><path class="st4" d="M67.7 75.6c-2.9 0-14.5-14.2-14.5-14.2l28.8-.1S70.6 75.6 67.7 75.6z"/><path class="st5" d="M91.8 35.9c5.4 2.9 7.6 9.5 4.9 15l1.8.9c3.2-6.5.7-14.3-5.7-17.7-6.4-3.4-14.3-1-17.8 5.3l1.8.9c2.9-5.2 9.6-7.2 15-4.4z"/><path class="st6" d="M91.8 35.9c-5.4-2.9-12.1-.8-15.1 4.5l5.7 3.1H85.5l2.4 2.8 8.7 4.6c2.8-5.5.7-12.1-4.8-15z"/><path class="st5" d="M87.3 44.7h-.1c-.1-.1-.2-.2-.1-.4l2.8-5.4c.1-.1.2-.2.4-.1.1.1.2.2.1.4l-2.8 5.4c0 .1-.1.1-.3.1zM88.9 46.5c-.1 0-.2-.1-.3-.2 0-.2 0-.3.2-.4l5.8-1.8c.2 0 .3 0 .4.2 0 .2 0 .3-.2.4l-5.9 1.8c.1 0 0 0 0 0z"/><g><path class="st5" d="M84.5 43.5l-1.6-5c0-.2 0-.3.2-.4.2 0 .3 0 .4.2l1.6 5.2h-.6z"/></g></svg>