<svg id="Layer_1" xmlns="http://www.w3.org/2000/svg" viewBox="0 0 100 100"><style>.st0{fill:#85d4ee}.st1{fill:#1f95bc}.st2{fill:#ff9000}</style><path class="st0" d="M50 0C22.4 0 0 22.4 0 50s22.4 50 50 50 50-22.4 50-50S77.6 0 50 0z"/><path class="st1" d="M92.7 76H92c-4 0-6-4-6-4s-2.1 4-6 4c-4 0-5.9-4-5.9-4s-2 4-6 4-6-4-6-4-2.1 4-6 4c-4 0-6-4-6-4s-2 4-6 4-6-4-6-4-2.1 4-6 4c-4 0-6-4-6-4s-2 4-6 4-6-4-6-4-2.1 4-6 4c-.3 0-.5 0-.8-.1C16 90.4 31.9 100 50 100s34-9.6 42.7-24z"/><path class="st2" d="M57.6 60.7c6.1-3.9 6.1-12.4 6.1-18.3 0-7.9-6.1-24.4-14.2-24.4-4.1 0-14.2 14.2-14.2 24.4 0 5.9 0 14.5 6.1 18.3-6.1 4.1-6.1 18.3-6.1 18.3s10.2-10.2 14.2-10.2c4.1 0 14.2 10.2 14.2 10.2s0-14.2-6.1-18.3zM47.5 32.2h-4.1v-4.1h4.1v4.1z"/></svg>