<svg id="Layer_1" xmlns="http://www.w3.org/2000/svg" viewBox="0 0 136.9 136.9"><style>.st0{fill:#65a844}.st1{fill:#e8e7e7}.st2{fill:#e4e4e4}.st3{fill:#fff}.st4{fill:none}.st5{fill:#cdcdce}.st6{fill:#eed22f}.st7{fill:#e6c41f}</style><circle class="st0" cx="68.5" cy="68.5" r="63.3"/><path class="st1" d="M68.5 33C48.9 33 33 48.9 33 68.5c0 16.7 11.5 30.7 27.1 34.5 2.7.7 5.5 1 8.4 1 2.8 0 5.5-.3 8.1-.9C92.3 99.3 104 85.3 104 68.5 104 48.9 88.1 33 68.5 33z"/><path class="st2" d="M56.9 102.2c-.4-.1-.8-.3-1.2-.4.4.1.8.3 1.2.4zM103.9 69.9c0 .4 0 .9-.1 1.3.1-.4.1-.8.1-1.3zM102.5 58.4c.1.3.1.5.2.8.4 1.4.7 2.9.9 4.4-.3-2.4-.9-4.7-1.7-6.9 0 .1 0 .1.1.2.2.4.4 1 .5 1.5zM98.9 86.9l-.6.9.6-.9zM46.1 96.2c-.1 0-.1 0 0 0 1.4 1.2 3 2.3 4.6 3.2 0 0-.1 0-.1-.1-1.6-.9-3.1-2-4.5-3.1zM102 80.2l-.3.9.3-.9zM97.3 47.6c-.5-.8-1.1-1.5-1.7-2.2.4.5.9 1 1.3 1.6.1.2.3.4.4.6zM52.2 100.2c.6.3 1.2.6 1.8.8-.1-.1-.3-.1-.4-.2-.5-.1-.9-.3-1.4-.6zM88.9 97.7c-1.3.9-2.7 1.8-4.1 2.5 1.4-.8 2.8-1.6 4.1-2.5zM55.4 101.7c-.4-.2-.8-.3-1.2-.5.4.2.8.3 1.2.5zM103.9 66.3c0 .7.1 1.5.1 2.2 0-.8 0-1.5-.1-2.2zM70.6 104.1c-.7 0-1.5.1-2.2.1.8 0 1.5-.1 2.2-.1zM95.5 45.4c0-.1 0-.1 0 0 0-.1 0-.1 0 0 0-.1 0-.1 0 0zM73.1 103.9c-.8.1-1.6.2-2.4.2.8-.1 1.6-.1 2.4-.2zM103.7 64c.1.6.1 1.1.2 1.7-.1-.6-.1-1.1-.2-1.7zM101 54.1c.3.7.6 1.5.9 2.2-.3-.7-.6-1.4-.9-2.2zM98 88.3c-.2.3-.5.7-.7 1 .3-.4.5-.7.7-1zM65.6 104c-3-.2-5.8-.8-8.5-1.8 3.1 1.1 6.5 1.7 10 1.8-.4 0-.8 0-1.1-.1-.2.2-.3.2-.4.1zM97.1 89.6c-.3.4-.5.7-.8 1.1.2-.4.5-.7.8-1.1zM91.1 95.9c-.6.5-1.3 1-1.9 1.5.7-.5 1.3-.9 1.9-1.5zM92.9 94.4c-.4.4-.8.7-1.2 1.1.4-.4.8-.7 1.2-1.1zM95.1 92.1c-.3.4-.7.8-1 1.1.3-.3.6-.7 1-1.1zM103.3 75.5c0 .2-.1.4-.1.6 0-.2 0-.4.1-.6zM99.7 85.4c-.2.3-.3.6-.5.9.9-1.5 1.6-3.1 2.3-4.8-.5 1.3-1 2.5-1.7 3.7 0 .1 0 .2-.1.2zM103.9 71.4c0 .5-.1 1.1-.2 1.6.1-.6.1-1.2.2-1.7v.1zM103.6 73.5v0zM94 93.3l-1.1 1.1c.3-.4.7-.7 1.1-1.1zM96.1 90.9c-.3.4-.6.7-.9 1.1.3-.4.6-.7.9-1.1zM99.9 51.9c.4.7.7 1.4 1 2.1-.3-.7-.6-1.4-1-2.1zM102.5 78.7c-.1.3-.2.5-.2.8 0-.3.1-.6.2-.8zM81.6 101.6c-1.9.8-3.8 1.4-5.8 1.8-.8.2-1.6.3-2.4.4 3.9-.5 7.6-1.7 11-3.5-.7.4-1.5.7-2.2 1-.2.2-.4.2-.6.3zM52.2 100.2c-.5-.2-.9-.5-1.3-.7.4.2.8.5 1.3.7zM97.3 47.7c.9 1.3 1.8 2.7 2.6 4.2-.8-1.5-1.6-2.9-2.6-4.2zM102.9 77.1c-.1.2-.1.5-.2.7.1-.2.2-.4.2-.7z"/><path class="st3" d="M33.1 72.4v.2c.1-.1.1-.2 0-.2zM33 70.4v0c0 .1 0 .1 0 0zM33 70.9v0c0 .1 0 .1 0 0zM33.4 74.3c0 .2.1.4.1.6v-.1c0-.2-.1-.4-.1-.5zM83.4 36.1c.1 0 .1.1.2.1-.1-.1-.1-.1-.2-.1zM33.2 73v0zM34.8 80c.1.2.1.3.2.5v-.1c-.1-.1-.1-.2-.2-.4zM70.4 32.8h.6-.6zM72.3 33c.2 0 .5.1.7.1-.2-.1-.5-.1-.7-.1zM33.5 75zM77.9 34c.2.1.4.1.6.2-.2-.1-.4-.1-.6-.2zM81.5 35.2c.1.1.3.1.4.2-.1 0-.2-.1-.4-.2zM76 33.6c.2.1.5.1.7.2-.2-.1-.4-.2-.7-.2zM41.9 92.2l-.2-.2c.1 0 .2.1.2.2zM40.7 90.8l-.3-.3c.2.1.2.2.3.3zM39.6 89.3c-.1-.1-.2-.2-.3-.4.1.1.2.3.3.4zM33.9 76.9c-.1-.2-.1-.5-.2-.7.1.2.2.5.2.7zM80 34.7c.1 0 .1 0 .2.1-.2-.1-.4-.1-.5-.2.1 0 .2.1.3.1zM95.5 45.3l-.1-.1.1.1M38.5 87.7c-.1-.1-.2-.3-.2-.4.1.2.2.3.2.4zM34.4 78.7c-.1-.2-.1-.4-.2-.6.1.2.2.4.2.6zM36.5 84.1s0-.1 0 0c0-.1 0 0 0 0zM74.7 33.3h.2c-.2 0-.5-.1-.7-.1.1 0 .3 0 .4.1h.1zM37.5 86c-.1-.1-.1-.2-.2-.3.1.1.2.2.2.3zM35.7 82.3c0-.1 0-.1 0 0 0-.1 0-.1 0 0zM91.5 41.3zM92.8 42.5c.1 0 .1 0 0 0 .1 0 .1 0 0 0zM94.2 43.8s0 .1 0 0c0 .1 0 0 0 0zM93.8 43.4l-.9-.9-.1-.1c-.2-.2-.5-.4-.7-.6.6.6 1.1 1.1 1.7 1.6zM91.7 41.5c-.1-.1-.2-.2-.3-.2-.6-.5-1.1-.9-1.7-1.4.7.5 1.4 1.1 2 1.6z"/><path class="st3" d="M83.8 36.3c-.1 0-.1-.1-.2-.1s-.1-.1-.2-.1c-.2-.1-.4-.2-.5-.2.3.1.6.2.9.4zM46.6 40.3c-.7.5-1.3 1-1.9 1.6l.2-.2c.5-.5 1.1-.9 1.7-1.4zM32.9 68.5c0 .7 0 1.3.1 2v.1c0-.8-.1-1.5-.1-2.1zM33.4 62.5c.3-1.8.8-3.6 1.3-5.4-.8 2.3-1.3 4.7-1.6 7.1.1-.5.1-1 .2-1.5.1 0 .1-.1.1-.2zM40.3 90.2c.1.1.1.2.2.3l.3.3c-.2-.2-.4-.4-.5-.6zM35 80.4c0 .1 0 .1 0 0 .2.6.4 1.2.7 1.7v.1c.3.6.5 1.2.8 1.8.3.6.6 1.1.9 1.6.1.1.1.2.2.3-1.1-1.6-1.9-3.5-2.6-5.5zM39.1 88.5c.1.1.2.2.2.4.1.1.2.3.3.4 0 0 0 .1.1.1l-.6-.9zM33.2 73c0 .1 0 .1 0 0 .1.4.1.8.2 1.2 0 .1.1.3.1.4-.1-.4-.2-1-.3-1.6zM37.6 86.1c.2.4.5.8.7 1.2.1.1.2.3.2.4v.1c-.3-.6-.6-1.1-.9-1.7zM78.6 34.2h-.1c-.2-.1-.4-.1-.6-.2-.1 0-.2 0-.3-.1.3.1.7.2 1 .3zM73.1 33.1c-.1 0-.1-.1 0 0-.3 0-.5-.1-.8-.1h-.4c.4 0 .8 0 1.2.1zM33.5 75c.1.4.2.8.2 1.2.1.2.1.5.2.7-.1-.6-.2-1.2-.4-1.9zM80 34.7c-.1 0-.2-.1-.3-.1-.2-.1-.4-.1-.6-.2l.9.3zM74.6 33.3c-.1 0-.3 0-.4-.1-.2 0-.4-.1-.6-.1.3.1.6.1 1 .2zM77.1 33.8c-.1 0-.2-.1-.4-.1-.2-.1-.5-.1-.7-.2-.4-.1-.8-.2-1.2-.2h-.2c.9.2 1.7.3 2.5.5zM82.1 35.5s-.1 0-.1-.1c-.1-.1-.3-.1-.4-.2-.2-.1-.3-.1-.5-.2.3.2.6.3 1 .5zM84.9 36.8c.8.4 1.6.9 2.3 1.3-.8-.4-1.5-.9-2.3-1.3zM33 71c0 .5.1.9.1 1.4v.2c0-.5 0-1.1-.1-1.6zM34.1 77.5c0 .2.1.4.1.6.1.2.1.4.2.6l.3.9c-.2-.6-.4-1.4-.6-2.1zM71.5 32.9h-2.3c.7-.1 1.5-.1 2.3 0zM33 66.7c0-.5.1-1.1.1-1.6-.1.5-.1 1-.1 1.6zM87.5 38.3c.7.4 1.3.9 2 1.4-.7-.5-1.4-1-2-1.4zM62.3 33.3c.5-.1 1-.2 1.6-.2-.5 0-1.1.1-1.6.2zM60.4 33.7l1.5-.3-1.5.3zM58.4 34.2c.5-.2 1.1-.3 1.6-.4-.5.1-1 .2-1.6.4zM64.2 33c.6-.1 1.1-.1 1.7-.2-.5.1-1.1.1-1.7.2zM52.9 36.4c1.7-.8 3.5-1.6 5.4-2.1-1.9.5-3.7 1.2-5.4 2.1zM46 96.2c.1 0 .1 0 0 0-.1-.1-.2-.1-.3-.2.2 0 .2.1.3.2zM66.2 32.8c.6 0 1.3-.1 1.9-.1-.6.1-1.3.1-1.9.1zM34.8 57.1c.6-1.7 1.3-3.4 2.1-5-.8 1.6-1.5 3.2-2.1 5zM43.4 93.8c-.7-.7-1.3-1.3-1.9-2.1.1.1.1.2.2.2l.2.2c.5.6 1 1.2 1.5 1.7zM33.1 64.9c0-.2.1-.4.1-.7 0 .3-.1.5-.1.7zM37.2 51.5c.5-.8.9-1.7 1.5-2.5-.6.9-1.1 1.7-1.5 2.5zM40.6 46.3c.6-.7 1.1-1.4 1.7-2.1-.5.7-1.1 1.4-1.7 2.1zM94.5 44.2c.3.4.7.7 1 1.1-.4-.4-.7-.8-1-1.1zM38.8 48.8c.5-.8 1-1.5 1.6-2.2-.6.7-1.1 1.5-1.6 2.2zM42.6 44c.6-.7 1.3-1.3 2-2-.7.6-1.4 1.3-2 2zM46.7 40.2c1.8-1.4 3.7-2.6 5.8-3.7-2.1 1.1-4 2.3-5.8 3.7zM43.6 94c.6.6 1.3 1.2 2 1.8-.7-.6-1.4-1.2-2-1.8zM46 96.2zM46 96.2z"/><path class="st3" d="M33.4 74.3c-.1-.4-.1-.8-.2-1.2.1.4.1.8.2 1.2zM81 35.1c.2.1.3.1.5.2-.4-.2-.8-.3-1.2-.5.1 0 .1 0 .2.1.2 0 .4.1.5.2zM38.8 88.1c.2.3.4.5.5.8-.1-.1-.2-.2-.2-.4-.1-.1-.2-.2-.3-.4zM82.9 35.8c.2.1.4.2.5.2l-1.5-.6s.1 0 .1.1c.4.1.6.2.9.3zM70.4 32.8h-1.5 1.5zM41.4 91.6c-.2-.2-.3-.4-.5-.6.2.2.4.4.5.6zM73.1 33.1H73c0-.1 0 0 .1 0zM71.9 32.9h.4c-.4 0-.9-.1-1.3-.1h.5c.1.1.3.1.4.1zM74.2 33.2c-.3 0-.6-.1-.9-.1h.3c.1.1.4.1.6.1zM33 70.4c0-.7-.1-1.3-.1-2 0 .7 0 1.4.1 2zM95.4 45.2c-.4-.5-.8-.9-1.2-1.4.1.1.2.2.2.3.4.4.7.8 1 1.1zM79.1 34.4c.2.1.4.1.6.2-.4-.1-.8-.3-1.2-.4h.1c.2.1.3.1.5.2zM39.6 89.3c.1.1.1.2.2.3 0-.1-.1-.2-.2-.3zM77.6 34c.1 0 .2 0 .3.1l-1.2-.3c.1 0 .2.1.4.1s.3 0 .5.1zM40.7 90.8c.1.1.1.2.2.2 0-.1-.1-.1-.2-.2.1 0 0 0 0 0zM39.8 89.6c.2.3.4.6.6.8-.1-.1-.1-.2-.2-.3-.1-.1-.2-.3-.4-.5zM33.8 76.2c-.1-.4-.2-.8-.2-1.2 0 .4.1.8.2 1.2zM33.1 72.4c0-.4-.1-.9-.1-1.3.1.4.1.8.1 1.3zM36.5 84c-.3-.6-.6-1.2-.8-1.8.2.7.5 1.3.8 1.8zM74.9 33.3c.4.1.8.1 1.2.2-.5 0-.8-.1-1.2-.2zM34 77.2c0-.1 0-.2-.1-.3l.3 1.2c-.1-.2-.1-.4-.1-.6 0-.1-.1-.2-.1-.3zM35.6 82.2c-.2-.5-.4-1.1-.6-1.6.2.5.4 1 .6 1.6zM41.4 91.6l.3.3c-.1-.1-.1-.2-.2-.2l-.1-.1zM37.3 85.7c-.3-.5-.6-1.1-.9-1.6.4.5.6 1.1.9 1.6zM37.5 86zM45.6 95.8c-.7-.6-1.3-1.2-2-1.8l-.2-.2c-.5-.5-1-1-1.5-1.6 1.3 1.4 2.6 2.8 4.1 4-.1-.1-.2-.2-.3-.2 0-.1-.1-.2-.1-.2zM37.6 86.1c.2.4.5.8.7 1.2-.2-.4-.5-.8-.7-1.2zM94 43.6l-1.1-1.1.9.9c0 .1.1.2.2.2zM38.5 87.7s0 .1.1.1l-.1-.1c.1 0 0 0 0 0zM34.4 78.7c.1.3.2.7.3 1v-.1l-.3-.9zM92.8 42.5l-.9-.9.2.2.7.7zM87.2 38.1c.1.1.2.1.3.2.7.4 1.3.9 2 1.4.1.1.2.2.3.2.6.4 1.1.9 1.7 1.4-2-1.7-4.3-3.3-6.7-4.5 0 0 .1 0 .1.1.8.3 1.5.8 2.3 1.2zM84.1 36.4c-.2-.1-.3-.2-.5-.2.1 0 .2.1.2.1.1 0 .2 0 .3.1z"/><path class="st3" d="M91.9 41.6c-.1-.1-.3-.2-.4-.4.1.1.2.2.3.2 0 .2 0 .2.1.2z"/><path class="st4" d="M91.1 95.9zM89.2 97.4c-.1.1-.2.2-.3.2.1 0 .2-.1.3-.2zM84.8 100.2c-.1.1-.2.1-.4.2.1-.1.2-.2.4-.2z"/><path class="st3" d="M46.5 88.8c-2.1 0-4 1.1-5.1 2.8l.1.1c.6.7 1.2 1.4 1.9 2.1l.2.2c.6.6 1.3 1.2 2 1.8l.2.2c.1.1.2.2.3.2 1.9.6 3.9 1 6 1.2.3-.8.5-1.6.5-2.5 0-3.4-2.7-6.1-6.1-6.1zM41.4 91.6zM45.6 95.8l.2.2-.2-.2zM41.4 91.6l.1.1-.1-.1z"/><path class="st3" d="M43.6 94l-.2-.2c.1 0 .1.1.2.2z"/><ellipse class="st3" cx="60.2" cy="56.5" rx="6.1" ry="6.1"/><path class="st3" d="M35 80.4c.7 2 1.5 3.8 2.6 5.6 0 0 0 .1.1.1.3.6.6 1.1 1 1.6.2-.5.2-1.1.2-1.7-.1-2.5-1.7-4.7-3.9-5.6zM38.6 87.8zM37.6 86.1s-.1 0 0 0c-.1 0 0 0 0 0zM38.6 87.8zM37.5 86c0 .1.1.1 0 0 .1.1.1.1 0 0 .1.1.1.1 0 0z"/><path class="st4" d="M57.1 102.3c-.1 0-.2-.1-.2-.1s.1.1.2.1zM55.7 101.8c-.1 0-.2-.1-.2-.1s.1 0 .2.1zM54.3 101.2z"/><path class="st3" d="M55.4 97.6c3 0 6-.3 8.9-.9-1.1-1-2.5-1.6-4.1-1.6-1.9-.1-3.7.9-4.8 2.5z"/><ellipse class="st3" cx="60.3" cy="70.9" rx="6.1" ry="6.1"/><ellipse class="st3" cx="60.3" cy="86.2" rx="6.1" ry="6.1"/><ellipse class="st3" cx="46.5" cy="65.2" rx="6.1" ry="6.1"/><ellipse class="st3" cx="46.5" cy="79.6" rx="6.1" ry="6.1"/><path class="st4" d="M103.6 63.5c0 .2 0 .3.1.5 0-.2 0-.3-.1-.5zM103.9 65.7v0zM104 68.5v0zM103.9 71.2z"/><path class="st3" d="M82.2 41.7c0 3.4 2.7 6.1 6.1 6.1 2.7 0 5-1.8 5.7-4.2l-.2-.2c-.5-.5-1.1-1-1.6-1.5-.1-.1-.3-.2-.4-.4-.6-.6-1.3-1.1-2-1.6-.1-.1-.2-.2-.3-.2-.6-.5-1.3-.9-2-1.4-.1-.1-.2-.1-.3-.2-.8-.5-1.5-.9-2.3-1.3 0 0-.1 0-.1-.1-1.6 1.1-2.6 3-2.6 5zM91.9 41.6zM84.8 36.7zM94 43.6z"/><path class="st3" d="M84.8 36.7s.1 0 .1.1c-.1 0-.1 0-.1-.1zM92.1 41.9l-.2-.2-.1-.1c.1 0 .2.1.3.3zM87.2 38.1c.1.1.2.1.3.2-.1-.1-.2-.1-.3-.2zM94 43.6l-.2-.2c0 .1.1.2.2.2zM89.4 39.7c.1.1.2.2.3.2 0-.1-.1-.2-.3-.2zM33.5 74.7v0zM33 70.5v0zM33.2 72.6v0zM33 71c0 .5.1 1.1.1 1.6 0 .2 0 .3.1.5.1.6.2 1.1.3 1.7v.3c.1.6.3 1.3.4 1.9 2.8-.6 4.8-3 4.8-6 0-3.2-2.5-5.9-5.7-6.1v3.6c0 .7 0 1.4.1 2.1-.1.1-.1.2-.1.4zM33 70.9v-.3.3zM32.9 68.5v-1.8 1.8zM33.1 64.9v0zM33.5 75c0-.1 0-.1 0 0 0-.1 0-.1 0 0zM33.2 73v-.2.2z"/><path class="st3" d="M33.9 76.9s0 .1 0 0c.1.1 0 0 0 0z"/><path class="st4" d="M103.3 75.5c.1-.5.2-1.1.3-1.6-.1.5-.2 1.1-.3 1.6zM101.7 81c-.1.2-.1.3-.2.5.1-.1.1-.3.2-.5zM103.2 76.1c-.1.3-.1.7-.2 1 0-.3.1-.6.2-1zM102.3 79.5c-.1.2-.2.5-.2.7 0-.3.1-.5.2-.7zM102.7 77.9c-.1.3-.2.5-.2.8.1-.3.2-.6.2-.8zM99.9 51.8s0 .1 0 0c0 .1 0 0 0 0zM101.9 56.4zM97.3 47.7zM100.9 54c0 .1.1.1.1.2 0-.1 0-.2-.1-.2z"/><path class="st3" d="M96.7 50.5c0 .5.1.9.2 1.4-.1-.5-.1-1-.2-1.4zM80 34.7zM74.6 33.3h.2-.2zM79.1 34.4c-.2 0-.3-.1-.5-.1-.3-.1-.7-.2-1-.3-.2 0-.3-.1-.5-.1-.8-.2-1.6-.4-2.4-.5h-.2c-.3-.1-.7-.1-1-.2-.2 0-.3 0-.5-.1-.4 0-.8-.1-1.1-.1h-.5c-.8-.1-1.5-.1-2.3-.1h-.3c-.5.9-.9 2-.9 3.1 0 3.4 2.7 6.1 6.1 6.1 3.3 0 6.1-2.7 6.1-6.1 0-.4 0-.8-.1-1.2-.3-.2-.6-.3-.9-.4zM73.1 33.1h0zM68.9 32.8zM77.1 33.8c.2 0 .3.1.5.1-.2 0-.3 0-.5-.1zM78.6 34.2c.2 0 .3.1.5.1-.2 0-.3 0-.5-.1zM68.9 32.8h.3-.3zM73.5 33.1h-.3-.1-.1.5zM71.5 32.9h.5-.5zM38.8 56.5c0-1.7-.7-3.3-1.9-4.4-.8 1.6-1.5 3.3-2.1 5-.6 1.7-1 3.5-1.3 5.4 2.9-.4 5.3-2.9 5.3-6zM36.9 52.1zM34.8 57.1zM46.5 42c3.1 0 5.7-2.4 6-5.4-2 1-4 2.3-5.8 3.7l-.1.1c-.6.5-1.2.9-1.7 1.4.5.1 1 .2 1.6.2zM46.6 40.3s.1 0 0 0c.1 0 0 0 0 0zM52.5 36.6z"/><ellipse class="st3" cx="46.5" cy="50.4" rx="6.1" ry="6.1"/><path class="st3" d="M88.2 64.9c-3.3 0-6.1 2.7-6.1 6.1 0 3.4 2.7 6.1 6.1 6.1 1.4 0 2.7-.5 3.7-1.3.9-1.6 1.7-3.3 2.4-4.9-.1-3.3-2.8-6-6.1-6zM89.1 80.2c-.3 0-.6-.1-.8-.1-3.3 0-6.1 2.7-6.1 6.1 0 .4 0 .9.1 1.3.9-.7 1.7-1.5 2.5-2.3 1.6-1.6 3-3.2 4.3-5z"/><ellipse class="st3" cx="74.1" cy="50.4" rx="6.1" ry="6.1"/><ellipse class="st3" cx="88.3" cy="56.4" rx="6.1" ry="6.1"/><ellipse class="st3" cx="74.2" cy="79.7" rx="6.1" ry="6.1"/><ellipse class="st3" cx="74.2" cy="65.1" rx="6.1" ry="6.1"/><path class="st3" d="M74.2 88.8c-3.3 0-6.1 2.7-6.1 6.1v.7c3.5-1.2 7-2.9 10.2-5-1-1.1-2.5-1.8-4.1-1.8z"/><ellipse class="st3" cx="60.2" cy="41.7" rx="6.1" ry="6.1"/><path class="st4" d="M98.3 87.8c-.1.2-.2.3-.3.5.1-.2.2-.3.3-.5zM103.7 73.1zM97.3 89.3c-.1.1-.2.2-.2.3.1-.1.1-.2.2-.3zM70.6 104.1zM91.7 95.5zM50.8 99.5zM99.2 86.3l-.3.6.3-.6zM95.5 45.4c.1 0 .1 0 0 0 .1 0 .1 0 0 0zM92.9 94.4zM96.3 90.7c-.1.1-.1.2-.2.2.1-.1.1-.2.2-.2zM52.2 100.2zM68.5 104.2h-1.4 1.4zM95.2 92l-.1.1s0-.1.1-.1zM94 93.2s0 .1 0 0c0 .1 0 0 0 0z"/><path class="st3" d="M96.7 62.1c.4-2.8.6-5.6.4-8.3-.7-1-1-2.2-1-3.5 0-.6.1-1.3.3-1.9-.2-1.1-.5-2.1-.8-3.1-.3-.4-.7-.7-1-1.1-.1-.1-.2-.2-.2-.3-.9 2.5-3.3 4.2-6.1 4.2-3.6 0-6.5-2.9-6.5-6.6 0-2.1 1-3.9 2.5-5.1-.1 0-.2-.1-.2-.1-.3-.2-.6-.3-1-.4-.3-.1-.5-.2-.8-.3-.3-.1-.7-.3-1.1-.4-.2-.1-.4-.1-.6-.2 0 .3.1.5.1.8 0 3.6-2.9 6.6-6.5 6.6s-6.5-2.9-6.5-6.6c0-1 .3-2 .7-2.9-.7 0-1.3 0-1.9.1h-.3c-.6 0-1.1.1-1.7.2h-.3c-.5.1-1.1.1-1.6.2-.1 0-.2 0-.4.1l-1.5.3c-.1 0-.2.1-.3.1-.5.1-1.1.3-1.6.4-.1 0-.2 0-.2.1-1.9.6-3.7 1.3-5.4 2.1-.3 3.3-3.1 5.9-6.5 5.9-.6 0-1.2-.1-1.8-.2-.7.6-1.4 1.3-2 2l-.2.2c-.6.7-1.2 1.3-1.7 2.1l-.3.3c-.6.7-1.1 1.5-1.6 2.2-.1.1-.1.2-.2.3-.5.8-1 1.6-1.5 2.5 1.2 1.2 2 2.9 2 4.7 0 3.4-2.5 6.1-5.8 6.5-.1.5-.1 1-.2 1.5 3.4.3 6 3.1 6 6.5 0 3.1-2.2 5.8-5.1 6.4 0 .1.1.2.1.3l.6 2.1v.1c2.6.9 4.4 3.3 4.4 6.2 0 .7-.1 1.5-.4 2.1.1.1.2.3.3.4.2.3.4.5.6.8.2.3.4.5.6.8.2.2.3.4.5.7l.2.2c1.2-1.7 3.2-2.9 5.4-2.9 3.6 0 6.5 2.9 6.5 6.6 0 1-.2 1.9-.6 2.7.8.1 1.5.1 2.3.2 1.2-1.9 3.2-3.1 5.5-3.1 1.9 0 3.6.8 4.8 2.1.9-.2 1.8-.5 2.7-.7-.1-.3-.1-.7-.1-1.1 0-3.6 2.9-6.6 6.5-6.6 1.9 0 3.6.8 4.8 2.1 1-.7 2.1-1.5 3.1-2.3-.2-.6-.3-1.3-.3-1.9 0-3.6 2.9-6.6 6.5-6.6.5 0 1 .1 1.4.2.7-1 1.4-2.1 2-3.2-1 .6-2.2 1-3.5 1-3.6 0-6.5-2.9-6.5-6.6s2.9-6.6 6.5-6.6c3.3 0 6.1 2.5 6.5 5.8.6-1.5 1.1-3.1 1.4-4.6v-.4c-.1-1.2.2-2.2.6-3.1zm-50.3 24c-3.6 0-6.5-2.9-6.5-6.6s2.9-6.6 6.5-6.6 6.5 2.9 6.5 6.6-2.9 6.6-6.5 6.6zm0-14.6c-3.6 0-6.5-2.9-6.5-6.6 0-3.6 2.9-6.6 6.5-6.6s6.5 2.9 6.5 6.6c0 3.7-2.9 6.6-6.5 6.6zm0-14.7c-3.6 0-6.5-2.9-6.5-6.6 0-3.6 2.9-6.6 6.5-6.6s6.5 2.9 6.5 6.6c0 3.7-2.9 6.6-6.5 6.6zm13.7 35.8c-3.6 0-6.5-2.9-6.5-6.6 0-3.6 2.9-6.6 6.5-6.6s6.5 2.9 6.5 6.6c.1 3.6-2.9 6.6-6.5 6.6zm0-15.2c-3.6 0-6.5-2.9-6.5-6.6s2.9-6.6 6.5-6.6 6.5 2.9 6.5 6.6-2.9 6.6-6.5 6.6zm0-14.6c-3.6 0-6.5-2.9-6.5-6.6 0-3.6 2.9-6.6 6.5-6.6s6.5 2.9 6.5 6.6c.1 3.7-2.9 6.6-6.5 6.6zm0-14.7c-3.6 0-6.5-2.9-6.5-6.6 0-3.6 2.9-6.6 6.5-6.6s6.5 2.9 6.5 6.6c.1 3.7-2.9 6.6-6.5 6.6zm13.9 38c-3.6 0-6.5-2.9-6.5-6.6s2.9-6.6 6.5-6.6 6.5 2.9 6.5 6.6-2.9 6.6-6.5 6.6zm0-14.6c-3.6 0-6.5-2.9-6.5-6.6 0-3.6 2.9-6.6 6.5-6.6s6.5 2.9 6.5 6.6c0 3.7-2.9 6.6-6.5 6.6zm0-14.7c-3.6 0-6.5-2.9-6.5-6.6 0-3.6 2.9-6.6 6.5-6.6s6.5 2.9 6.5 6.6c0 3.7-2.9 6.6-6.5 6.6zm14.1 6c-3.6 0-6.5-2.9-6.5-6.6 0-3.6 2.9-6.6 6.5-6.6s6.5 2.9 6.5 6.6c.1 3.7-2.9 6.6-6.5 6.6zM39.8 89.6zM65.9 32.8h.3-.3zM94.2 43.9zM33.2 64.2v.1zM44.6 42zM37.2 51.5zM52.9 36.4zM38.8 88.1zM84.1 36.4zM38.6 49.1c.1-.1.1-.2.2-.3-.1.1-.1.2-.2.3zM68.2 32.8zM40.4 46.6l.3-.3c-.2.1-.2.2-.3.3zM60.1 33.8c.1 0 .2-.1.3-.1-.1 0-.2 0-.3.1zM58.2 34.3c.1 0 .2 0 .2-.1 0 0-.1 0-.2.1zM40.9 91zM42.4 44.2l.2-.2c-.1.1-.2.1-.2.2zM61.9 33.4c.1 0 .2 0 .4-.1-.1 0-.2 0-.4.1zM34.8 79.8zM63.9 33h.4-.4zM39.7 89.4c.1.1.1.2.2.2.1.2.3.4.4.6-.2-.3-.4-.6-.6-.8zM40.9 91l-.2-.2c.1.1.2.1.2.2zM34.8 79.8v-.1c-.1 0-.1 0 0 .1zM38.8 88.1c.1.2.2.3.3.4-.1-.1-.2-.2-.3-.4zM34.1 77.5c0-.1-.1-.2-.1-.3 0 .1.1.2.1.3z"/><path class="st3" d="M82.9 35.8c-.3-.1-.5-.2-.8-.3.3.1.5.2.8.3zM84.1 36.4c-.1 0-.2-.1-.2-.1s.1 0 .2.1zM94.2 43.9c.1.1.2.2.2.3 0-.1-.1-.2-.2-.3zM80.5 34.9c.2.1.4.1.6.2-.2-.1-.4-.2-.6-.2z"/><path class="st5" d="M60.1 49.7c-3.6 0-6.5 2.9-6.5 6.6 0 3.6 2.9 6.6 6.5 6.6s6.5-2.9 6.5-6.6c.1-3.7-2.9-6.6-6.5-6.6zm.1 12.8c-3.3 0-6.1-2.7-6.1-6.1 0-3.4 2.7-6.1 6.1-6.1 3.3 0 6.1 2.7 6.1 6.1 0 3.4-2.7 6.1-6.1 6.1zM60.1 35c-3.6 0-6.5 2.9-6.5 6.6 0 3.6 2.9 6.6 6.5 6.6s6.5-2.9 6.5-6.6c.1-3.7-2.9-6.6-6.5-6.6zm.1 12.8c-3.3 0-6.1-2.7-6.1-6.1 0-3.4 2.7-6.1 6.1-6.1 3.3 0 6.1 2.7 6.1 6.1 0 3.4-2.7 6.1-6.1 6.1zM60.1 64.2c-3.6 0-6.5 2.9-6.5 6.6s2.9 6.6 6.5 6.6 6.5-2.9 6.5-6.6-2.9-6.6-6.5-6.6zm.2 12.8c-3.3 0-6.1-2.7-6.1-6.1 0-3.4 2.7-6.1 6.1-6.1 3.3 0 6.1 2.7 6.1 6.1 0 3.4-2.8 6.1-6.1 6.1zM60.1 79.4c-3.6 0-6.5 2.9-6.5 6.6 0 3.6 2.9 6.6 6.5 6.6s6.5-2.9 6.5-6.6c.1-3.6-2.9-6.6-6.5-6.6zm.2 12.9c-3.3 0-6.1-2.7-6.1-6.1 0-3.4 2.7-6.1 6.1-6.1 3.3 0 6.1 2.7 6.1 6.1 0 3.3-2.8 6.1-6.1 6.1zM38.8 56.5c0 3.1-2.3 5.7-5.3 6 0 .1 0 .2-.1.3 3.3-.4 5.8-3.2 5.8-6.5 0-1.9-.8-3.5-2-4.7-.1.2-.2.3-.3.5 1.2 1.1 1.9 2.6 1.9 4.4zM37.2 51.5c-.1.2-.2.3-.3.5.1-.1.2-.3.3-.5zM38.8 71c0 2.9-2.1 5.4-4.8 6 0 .1 0 .2.1.3 2.9-.6 5.1-3.3 5.1-6.4 0-3.4-2.6-6.3-6-6.5 0 .2-.1.4-.1.7 3.2 0 5.7 2.7 5.7 5.9zM33.2 64.3zM33.1 64.9z"/><path class="st5" d="M34 77c0 .1 0 .2.1.3-.1-.2-.1-.2-.1-.3zM34.8 80c0 .1.1.3.1.4 0-.1 0-.3-.1-.4zM35 80.4c2.3.9 3.9 3.1 3.9 5.7 0 .6-.1 1.2-.2 1.7.1.1.1.2.2.3.2-.7.4-1.4.4-2.1 0-2.9-1.8-5.3-4.4-6.2 0 .1 0 .2.1.2-.1.1-.1.3 0 .4zM34.8 79.8c0 .1.1.2.1.2-.1-.1-.1-.1-.1-.2zM38.6 87.8c.1.1.1.2.2.3-.1-.1-.1-.2-.2-.3z"/><path class="st5" d="M38.6 87.8c.1.1.1.2.2.3-.1-.1-.1-.2-.2-.3zM34.8 80c0-.1-.1-.2-.1-.2.1.1.1.1.1.2zM54 101.1c.1 0 .2.1.3.1-.1 0-.2-.1-.3-.1zM66.4 101.1c0 1.1-.3 2-.7 2.9h.3c.5-.9.8-2 .8-3.1 0-1.7-.7-3.3-1.8-4.5-.2 0-.4.1-.5.1 1.1 1.2 1.9 2.8 1.9 4.6z"/><path class="st5" d="M54.2 101.1c0-1.3.4-2.6 1.2-3.6h-.8c-.6 1-1 2.1-1 3.4.1.1.3.1.4.2h.2c.1.1 0 .1 0 0zM60.1 94.4c-2.3 0-4.4 1.2-5.5 3.1h.8c1.1-1.5 2.9-2.5 4.9-2.5 1.6 0 3 .6 4.1 1.6.2 0 .4-.1.5-.1-1.2-1.3-2.9-2.1-4.8-2.1zM88.1 49.7c-3.6 0-6.5 2.9-6.5 6.6 0 3.6 2.9 6.6 6.5 6.6s6.5-2.9 6.5-6.6c.1-3.7-2.9-6.6-6.5-6.6zm.2 12.8c-3.3 0-6.1-2.7-6.1-6.1 0-3.4 2.7-6.1 6.1-6.1 3.3 0 6.1 2.7 6.1 6.1 0 3.3-2.8 6.1-6.1 6.1zM94.2 43.9s0-.1 0 0c0-.1 0-.1 0 0 0-.1 0 0 0 0zM94.2 43.8l-.2-.2c-.8 2.4-3.1 4.2-5.7 4.2-3.3 0-6.1-2.7-6.1-6.1 0-2.1 1-3.9 2.6-5-.2-.1-.5-.2-.7-.4-1.5 1.2-2.5 3.1-2.5 5.1 0 3.6 2.9 6.6 6.5 6.6 2.8.1 5.2-1.6 6.1-4.2 0 .1 0 .1 0 0 0 .1 0 0 0 0zM94.2 43.9z"/><path class="st5" d="M84.8 36.7c-.2-.1-.5-.2-.7-.4.2.2.4.3.7.4zM94.2 43.8l-.2-.2c0 .1.1.2.2.2zM94.2 43.9z"/><path class="st5" d="M94 43.6l.2.2c-.1 0-.2-.1-.2-.2zM84.8 36.7c-.2-.1-.5-.2-.7-.4.2.2.4.3.7.4zM94.3 71c0 2-.9 3.7-2.4 4.8l-.3.6c1.8-1.2 3.1-3.2 3.1-5.6 0-.3 0-.6-.1-.8l-.3.9v.1z"/><path class="st5" d="M88.1 64.2c-3.6 0-6.5 2.9-6.5 6.6s2.9 6.6 6.5 6.6c1.3 0 2.5-.4 3.5-1l.3-.6c-1 .8-2.3 1.3-3.7 1.3-3.3 0-6.1-2.7-6.1-6.1 0-3.4 2.7-6.1 6.1-6.1 3.3 0 6 2.7 6 6l.3-.9c-.3-3.3-3-5.8-6.4-5.8zM94.3 86.3c0 3.4-2.7 6.1-6.1 6.1-2.9 0-5.3-2.1-5.9-4.8l-.4.4c.8 2.7 3.3 4.7 6.3 4.7 3.6 0 6.5-2.9 6.5-6.6 0-3.1-2.2-5.8-5.1-6.4-.2.2-.3.4-.5.7 2.9.2 5.2 2.8 5.2 5.9zM81.6 86c0 .7.1 1.3.3 1.9l.4-.4c-.1-.4-.1-.8-.1-1.3 0-3.4 2.7-6.1 6.1-6.1.3 0 .6 0 .8.1.2-.2.3-.4.5-.7-.5-.1-.9-.2-1.4-.2-3.7.1-6.6 3.1-6.6 6.7zM91.1 95.9a1.205 1.205 0 0 1 0 0z"/><path class="st5" d="M82.2 101.3c0-3.4 2.7-6.1 6.1-6.1 1.1 0 2 .3 2.9.7.2-.1.4-.3.5-.5-1-.7-2.2-1-3.5-1-3.6 0-6.5 2.9-6.5 6.6v.6c.2-.1.4-.1.6-.2-.1 0-.1-.1-.1-.1zM74 58.4c-3.6 0-6.5 2.9-6.5 6.6 0 3.6 2.9 6.6 6.5 6.6s6.5-2.9 6.5-6.6c0-3.7-2.9-6.6-6.5-6.6zm.2 12.8c-3.3 0-6.1-2.7-6.1-6.1 0-3.4 2.7-6.1 6.1-6.1s6.1 2.7 6.1 6.1c-.1 3.4-2.8 6.1-6.1 6.1zM74 43.7c-3.6 0-6.5 2.9-6.5 6.6 0 3.6 2.9 6.6 6.5 6.6s6.5-2.9 6.5-6.6c0-3.7-2.9-6.6-6.5-6.6zm.1 12.8c-3.3 0-6.1-2.7-6.1-6.1 0-3.4 2.7-6.1 6.1-6.1 3.3 0 6.1 2.7 6.1 6.1 0 3.4-2.8 6.1-6.1 6.1zM80 34.7c.1 0 .1 0 .2.1 0-.1-.1-.1-.2-.1z"/><path class="st5" d="M67.5 35.7c0 3.6 2.9 6.6 6.5 6.6s6.5-2.9 6.5-6.6c0-.3 0-.5-.1-.8-.1 0-.2-.1-.2-.1-.1 0-.1 0-.2-.1.1.4.1.8.1 1.2 0 3.4-2.7 6.1-6.1 6.1-3.3 0-6.1-2.7-6.1-6.1 0-1.1.3-2.2.9-3.1H68c-.3.8-.5 1.8-.5 2.9zM80.3 34.8zM68.9 32.8h-.5c.2-.1.4 0 .5 0zM68.5 32.7h-.3c.1.1.2 0 .3 0zM80.5 34.9c-.1 0-.1-.1-.2-.1 0 0 .1 0 .2.1z"/><path class="st5" d="M68.9 32.8h-.5c.2-.1.4 0 .5 0zM74 72.9c-3.6 0-6.5 2.9-6.5 6.6s2.9 6.6 6.5 6.6 6.5-2.9 6.5-6.6-2.9-6.6-6.5-6.6zm.2 12.9c-3.3 0-6.1-2.7-6.1-6.1s2.7-6.1 6.1-6.1 6.1 2.7 6.1 6.1-2.8 6.1-6.1 6.1zM80.2 94.9c0 3.4-2.7 6.1-6.1 6.1-3.1 0-5.7-2.4-6-5.4-.2.1-.4.1-.6.2.5 3.1 3.2 5.5 6.4 5.5 3.6 0 6.5-2.9 6.5-6.6 0-1.7-.7-3.3-1.7-4.5-.1.1-.3.2-.4.3 1.2 1.1 1.9 2.7 1.9 4.4z"/><path class="st5" d="M74 88.1c-3.6 0-6.5 2.9-6.5 6.6 0 .4 0 .7.1 1.1.2-.1.4-.1.6-.2v-.7c0-3.4 2.7-6.1 6.1-6.1 1.6 0 3.1.7 4.2 1.7.1-.1.3-.2.4-.3-1.3-1.3-3-2.1-4.9-2.1zM103.9 71.3s0-.1 0 0c0-.1 0 0 0 0zM102.7 71.3c-3.3 0-6.1-2.7-6.1-6.1 0-3.4 2.7-6.1 6.1-6.1h.1c-.1-.3-.1-.5-.2-.8-2.6 0-4.8 1.5-5.9 3.7-.2 1.1-.4 2.2-.6 3.2.2 3.5 3 6.2 6.5 6.2.4 0 .9 0 1.3-.1v-.1-.1c-.4.2-.8.2-1.2.2z"/><path class="st5" d="M96 65v.4c.3-1.1.5-2.1.6-3.2-.3.8-.6 1.8-.6 2.8zM102 56.6c0-.1-.1-.2-.1-.2 0 .1.1.2.1.2zM97.3 47.7z"/><path class="st5" d="M96.9 51.8c.1.7.1 1.3.2 2 1.1 1.7 2.9 2.8 5 3 0-.1 0-.1-.1-.2 0-.1-.1-.2-.1-.2-2.5-.4-4.4-2.2-5-4.6zM96.3 48.4c.1.7.3 1.4.4 2.1v-.1c0-1 .2-1.9.6-2.7-.1-.2-.3-.4-.4-.6-.3.3-.5.8-.6 1.3z"/><path class="st5" d="M97.1 53.8c0-.7-.1-1.3-.2-2-.1-.4-.2-.9-.2-1.4-.1-.7-.2-1.4-.4-2.1-.2.7-.3 1.3-.3 1.9 0 1.4.4 2.6 1.1 3.6zM103.6 73.5c0-.2 0-.3.1-.5 0 .2-.1.4-.1.5zM103.6 73.9z"/><path class="st5" d="M102.6 72.9c-3.6 0-6.5 2.9-6.5 6.6 0 2.6 1.5 4.8 3.7 5.9 0-.1.1-.2.1-.2-1.8-1.1-3-3-3-5.3 0-3.4 2.7-6.1 6.1-6.1h.7v-.4c0-.2 0-.3.1-.5-.5.1-.9 0-1.2 0zM70.6 104.1zM73.3 103.8H73h.3zM74 103.2c-1.2 0-2.4.3-3.4.9.8-.1 1.6-.1 2.4-.2h.3c.8-.1 1.6-.3 2.4-.4-.5-.3-1.1-.3-1.7-.3zM46.4 58.4c-3.6 0-6.5 2.9-6.5 6.6 0 3.6 2.9 6.6 6.5 6.6s6.5-2.9 6.5-6.6c0-3.7-2.9-6.6-6.5-6.6zm.1 12.9c-3.3 0-6.1-2.7-6.1-6.1 0-3.4 2.7-6.1 6.1-6.1 3.3 0 6.1 2.7 6.1 6.1-.1 3.3-2.8 6.1-6.1 6.1zM46.4 43.7c-3.6 0-6.5 2.9-6.5 6.6 0 3.6 2.9 6.6 6.5 6.6s6.5-2.9 6.5-6.6c0-3.7-2.9-6.6-6.5-6.6zm.1 12.8c-3.3 0-6.1-2.7-6.1-6.1 0-3.4 2.7-6.1 6.1-6.1 3.3 0 6.1 2.7 6.1 6.1-.1 3.4-2.8 6.1-6.1 6.1zM46.4 42.2c3.4 0 6.2-2.6 6.5-5.9-.1.1-.3.1-.4.2-.3 3-2.9 5.4-6 5.4-.5 0-1.1-.1-1.6-.2l-.2.2s-.1 0-.1.1c.6.2 1.1.2 1.8.2z"/><path class="st5" d="M52.9 36.4c-.1.1-.3.1-.4.2.1-.1.2-.2.4-.2zM44.7 41.9s-.1.1 0 0c-.1.1 0 .1 0 0zM46.4 72.9c-3.6 0-6.5 2.9-6.5 6.6s2.9 6.6 6.5 6.6 6.5-2.9 6.5-6.6-2.9-6.6-6.5-6.6zm.1 12.8c-3.3 0-6.1-2.7-6.1-6.1s2.7-6.1 6.1-6.1 6.1 2.7 6.1 6.1-2.7 6.1-6.1 6.1zM50.7 99.4s.1 0 .1.1c0-.1 0-.1-.1-.1z"/><path class="st5" d="M52.3 97.4H52c-.3.8-.8 1.4-1.4 2 0 0 .1 0 .1.1 0 0 .1 0 .1.1.7-.7 1.2-1.4 1.5-2.2zM46.4 88.1c-2.3 0-4.2 1.1-5.4 2.9.2.2.3.4.5.6 1.1-1.7 3-2.8 5.1-2.8 3.3 0 6.1 2.7 6.1 6.1 0 .9-.2 1.7-.5 2.5h.3c.4-.8.6-1.7.6-2.7-.2-3.6-3.1-6.6-6.7-6.6zM41.4 91.6zM40.9 91zM41.4 91.6c-.2-.2-.3-.4-.5-.6.2.2.4.4.5.6z"/><path class="st6" d="M74.8 107.1l-6.5.8-6.1-.8 2.7 4.9 1.1 19.8c.8 0 1.7.1 2.5.1s1.6 0 2.4-.1l1.2-19.8 2.7-4.9z"/><path class="st7" d="M74.8 107.1c1.2 0 2.1-1.3 2.1-2.8 0-.3 0-.6-.1-.9-2.6.6-5.3.9-8.1.9-2.9 0-5.7-.4-8.4-1-.1.3-.1.6-.1 1 0 1.6.9 2.8 2.1 2.8l6.1.8 6.4-.8z"/></svg>