<svg id="Layer_1" xmlns="http://www.w3.org/2000/svg" viewBox="0 0 136.9 136.9"><style>.st0{fill:#22c48a}.st1{fill:#81bcb9}.st2{fill:#8ac5c4}.st3{fill:#edc92c}.st4{fill:#94d0d0}.st5{fill:#f37c2a}.st6{fill:#ed3351}.st7{fill:#a0d5d9}.st8{fill:#357180}.st9{fill:#b3dce2}.st10{fill:#1fa85b}</style><circle class="st0" cx="68.5" cy="68.5" r="63.3"/><path class="st1" d="M47.2 98.3c-1.4 0-2.6-.6-3.5-1.4.9.9 2.2 1.4 3.5 1.4h1.1-1.1z"/><path class="st2" d="M50.9 98.3h-2.6 2.6z"/><path class="st3" d="M103.7 69.5l-3.8-6.7c-.2 1-.8 1.9-1.6 2.6l-8.5 7.4-20.2 17.5-2.2 5.4 34.5-19.4c.7-.4 1.3-1 1.7-1.6.9-1.5 1.1-3.5.1-5.2z"/><path class="st4" d="M54.7 98.3h-3.8 3.9z"/><path class="st5" d="M98.9 58.4L88.8 46.7c-.7-.8-1.5-1.3-2.4-1.5.7 1.3.8 2.8.2 4.2l-3.4 8.2-6.3 15.3-9.1 22.3 29.9-28.9-.2.1 1-.9c.8-.7 1.3-1.6 1.6-2.6.2-1.6-.1-3.2-1.2-4.5z"/><path class="st6" d="M103.6 74.7c-.4.6-1 1.2-1.7 1.6L67.3 95.7l-.3.2c-.9 1.4-2.4 2.3-4.1 2.3l-.1.1h37c2.8 0 5-2.2 5-5V77.8c-.1-1.2-.5-2.3-1.2-3.1z"/><path class="st7" d="M60.4 98.3h2.4l.1-.1h-2.5zM54.7 98.3H60.4z"/><path class="st8" d="M86.4 45.1c-.5-1-1.4-1.9-2.5-2.3l-14.3-5.9c-1.3-.5-2.6-.5-3.8 0 1.2.9 2 2.4 2 4v52.5c0 1-.3 1.9-.8 2.6l.4-.2 2-4.9.1-.1 7.3-17.9 6.3-15.3 3.4-8.2c.6-1.5.5-3-.1-4.3z"/><path class="st9" d="M42.3 88.3v5c0 1.4.6 2.6 1.5 3.6-.9-.9-1.4-2.1-1.4-3.5v-5.1zM42.3 81v-.8.8zM42.3 87.6l-.1-.1v.8h.1z"/><path class="st9" d="M42.2 81v6.6V81c.1 0 .1 0 0 0zM42.8 88.5c0 .1-.1.2-.1.3l.8.9-.7-1.2z"/><path class="st10" d="M65.7 36.9c-.8-.6-1.8-1-3-1H47.2c-2.8 0-5 2.2-5 5V93.3c0 1.4.6 2.6 1.4 3.5.9.9 2.1 1.4 3.5 1.4h15.6c1.8 0 3.3-1 4.1-2.3.5-.8.8-1.7.8-2.6V40.9c.1-1.7-.7-3.1-1.9-4z"/><g><circle class="st1" cx="61.6" cy="92.5" r="3.2"/></g></svg>