<svg id="Layer_1" xmlns="http://www.w3.org/2000/svg" viewBox="0 0 136.9 136.9"><style>.st0{fill:#a2d4de}.st1{fill:#6cc077}.st2{fill:#fff}.st3{fill:#cc3432}.st4{fill:#ba2e2d}</style><circle class="st0" cx="68.5" cy="68.5" r="63.3"/><path class="st1" d="M113.2 23.7c24.7 24.7 24.7 64.8 0 89.6-24.7 24.7-64.8 24.7-89.6 0l89.6-89.6z"/><path class="st2" d="M124.3 38.6l-1.5-2.7C64.2 58.8 38.3 113.8 34.7 122c.9.5 1.7 1.1 2.6 1.6 2.7-6.3 28.1-62.2 87-85z"/><path class="st3" d="M68.6 26.6c-15.4 0-27.9 12.5-27.9 27.9C40.7 74.8 67 102 69.4 102s27.1-29.5 27.1-47.5c.1-15.4-12.4-27.9-27.9-27.9zm-.1 37.2c-6.1 0-11-4.8-11-10.7s4.9-10.7 11-10.7 11 4.8 11 10.7-4.9 10.7-11 10.7z"/><path class="st4" d="M69.4 102.5c-2.5 0-29.2-27.4-29.2-48 0-15.7 12.7-28.4 28.4-28.4S97 38.8 97 54.5c.1 17.8-24.8 48-27.6 48zm-.8-75.4c-15.1 0-27.4 12.3-27.4 27.4 0 20.4 25.9 46.5 28.2 47 2.4-.6 26.6-29.2 26.6-47 .1-15.1-12.2-27.4-27.4-27.4zm-.1 37.2c-6.3 0-11.5-5-11.5-11.2C57.1 47 62.2 42 68.5 42S80 47 80 53.2c0 6.1-5.2 11.1-11.5 11.1zm0-21.3C62.7 43 58 47.6 58 53.2s4.7 10.2 10.5 10.2S79 58.8 79 53.2 74.3 43 68.5 43z"/></svg>