<svg id="Layer_1" xmlns="http://www.w3.org/2000/svg" viewBox="0 0 465 326"><style>.st0{fill:#7c4b1f;stroke:#000}.st1{fill:#8e5624}.st2{fill:#ac6322}.st3{fill:#8e5624;stroke:#000}.st4{fill:#fff}.st5{stroke:#979797}.st6{fill:#e95583}.st7{fill:#191919}.st8{fill:#995b24;stroke:#7c4b1f}.st9{fill:none;stroke:#000;stroke-width:2;stroke-miterlimit:10}.st10{fill:#666}</style><title>snippitz</title><g id="Welcome"><g id="Desktop" transform="translate(-323 -179)"><g id="snippitz" transform="translate(293 177)"><ellipse id="Tail" transform="rotate(-21.001 103.344 158.428)" class="st0" cx="103.4" cy="158.4" rx="57" ry="137.5"/><g id="Body" transform="translate(87)"><path id="Rectangle-9" class="st1" d="M88.4 3l17.4 4.7c4.3 1.1 6.8 5.5 5.7 9.8l-5.2 19.3c-1.1 4.3-5.5 6.8-9.8 5.7l-17.4-4.7c-4.3-1.1-6.8-5.5-5.7-9.8l5.2-19.3c1.1-4.4 5.5-6.9 9.8-5.7z"/><path id="Rectangle-9-Copy-2" class="st2" d="M94.4 11l17.4 4.7c4.3 1.1 6.8 5.5 5.7 9.8l-5.2 19.3c-1.1 4.3-5.5 6.8-9.8 5.7l-17.4-4.7c-4.3-1.1-6.8-5.5-5.7-9.8l5.2-19.3c1.1-4.4 5.5-6.9 9.8-5.7z"/><path id="Rectangle-9-Copy" class="st1" d="M158.7 6.7l17.7-3.1c4.4-.8 8.5 2.1 9.3 6.5l3.5 19.7c.8 4.4-2.1 8.5-6.5 9.3L165 42.2c-4.4.8-8.5-2.1-9.3-6.5L152.2 16c-.7-4.4 2.2-8.5 6.5-9.3z"/><path id="Rectangle-9-Copy-3" class="st2" d="M152.7 12.3l17.8-2.5c4.4-.6 8.4 2.4 9 6.8l2.8 19.8c.6 4.4-2.4 8.4-6.8 9L157.7 48c-4.4.6-8.4-2.4-9-6.8l-2.8-19.8c-.6-4.4 2.4-8.5 6.8-9.1z"/><path id="Oval-6" class="st3" d="M183.1 320c40.1-19.9 67.9-62.6 67.9-112 0-68.5-53.3-124-119-124S13 139.5 13 208c0 49.4 27.7 92.1 67.9 112h102.2z"/><g id="Oval-3-_x2B_-Oval-4-_x2B_-Oval-4-Copy" transform="translate(0 5)"><circle id="Oval-3" class="st1" cx="132.5" cy="79.5" r="79.5"/><ellipse id="Oval-4" transform="rotate(-76.001 90.998 98)" class="st1" cx="91" cy="98" rx="57" ry="79"/><ellipse id="Oval-4-Copy" transform="rotate(-82.998 183.776 108.206)" class="st1" cx="183.8" cy="108.2" rx="57" ry="79"/></g></g><g id="FEet" transform="translate(115 302)"><path id="Rectangle-6" class="st3" d="M8 1h68c4.4 0 8 3.6 8 8v9c0 4.4-3.6 8-8 8H8c-4.4 0-8-3.6-8-8V9c0-4.4 3.6-8 8-8z"/><path id="Rectangle-6-Copy" class="st3" d="M140 0h68c4.4 0 8 3.6 8 8v9c0 4.4-3.6 8-8 8h-68c-4.4 0-8-3.6-8-8V8c0-4.4 3.6-8 8-8z"/></g><ellipse id="Oval-7" class="st2" cx="219.5" cy="217" rx="59.5" ry="75"/><g id="Eye-Balls" transform="translate(178 32)"><ellipse id="Oval-8" class="st4" cx="17.5" cy="19" rx="17.5" ry="19"/><ellipse id="Oval-8-Copy" class="st4" cx="63.5" cy="19" rx="17.5" ry="19"/><circle id="Oval-10" class="st5" cx="17.5" cy="22.5" r="6.5"/><circle id="Oval-10-Copy" class="st5" cx="64.5" cy="21.5" r="6.5"/><path id="Oval-8_1_" class="st0" d="M17.5 0C27.2 0 35 8.5 35 19c-2.5-.7-7.8-2-17.5-2S2 18.4 0 19C0 8.5 7.8 0 17.5 0z"/><path id="Oval-8_2_" class="st0" d="M63.5 0C73.2 0 81 8.5 81 19c-2.5-.7-7.8-2-17.5-2S48 18.4 46 19C46 8.5 53.8 0 63.5 0z"/></g><path id="Nose" class="st6" d="M219 72h1c4.4 0 8 3.1 8 7s-3.6 7-8 7h-1c-4.4 0-8-3.1-8-7s3.6-7 8-7z"/><g id="right-Arm" transform="translate(229 126)"><g id="claws-copy" transform="rotate(-28 21.027 3.99)"><path id="Triangle-1" class="st7" d="M151.7 66.5l-11.2 2.8.4-7z"/><path id="Triangle-1-Copy" class="st7" d="M151.3 73.5l-11.2 2.8.4-7z"/><path id="Triangle-1-Copy-2" class="st7" d="M152.1 60.5l-11.2 2.8.4-7z"/></g><path id="Rectangle-15-Copy" class="st8" d="M79.6 60.7c.3-.1.6-.3.9-.4l77.9-44.2c3.9-2.2 5.2-7.1 3-10.9l-4.6-8.1c-2.2-3.8-7.1-5.2-10.9-3L68 38.3c-1 .6-1.8 1.3-2.4 2.1 8.7 2.4 14.7 9.9 14.2 18.4 0 .6-.1 1.3-.2 1.9z"/></g><g id="Left-Arm" transform="translate(128 127)"><g id="claws" transform="rotate(30 27.17 106.9)"><path id="Triangle-1_1_" class="st7" d="M9.5 0L13 11H6z"/><path id="Triangle-1-Copy_1_" class="st7" d="M16.5 0L20 11h-7z"/><path id="Triangle-1-Copy-2_1_" class="st7" d="M3.5 0L7 11H0z"/></g><path id="Rectangle-15" class="st8" d="M21.7 103.4c.1-.2.2-.4.4-.6L68.3 26c2.3-3.8 1.1-8.7-2.7-11l-8-4.8c-3.8-2.3-8.7-1.1-11 2.7L.4 89.8c-.1.1-.1.2-.2.3.8-.1 1.5-.1 2.3-.1 8.8 0 16.4 5.6 19.2 13.4z"/></g><path class="st9" d="M230 108.3c6.7-1.5 18.8-7 22.3-11"/></g></g></g><path d="M459.7 186.5c1.9-10-4.7-19.7-14.8-21.5-6.5-1.2-16.1.6-20.3 5.1-2.2 2.4-3 5.7-3.7 9.2-.7 3.6-1 7 .3 10.2 0 .1.1.2.1.4 2.4 5.4 10.5 10.2 16.8 11.4 10.1 1.9 19.7-4.7 21.6-14.8z"/><path class="st10" d="M416.8 188.5c-1.2-3.2-.9-6.6-.3-10.2.7-3.5 1.4-6.7 3.7-9.2-.8-1.3-2.2-2.2-3.8-2.4l-68.6-9.2c-2.8-.4-5.5 1.5-6 4.4l-1 5.3c-.5 2.8 1.3 5.6 4 6.2l67.3 16.1c1.8.4 3.5 0 4.7-1zM395.7 178c-1.8-.3-3-2-2.6-3.8.3-1.8 2-3 3.8-2.6l5 .9c1.8.3 3 2 2.6 3.8s-2 3-3.8 2.6l-5-.9z"/></svg>