<svg id="Layer_1" xmlns="http://www.w3.org/2000/svg" viewBox="0 0 136.9 136.9"><style>.st0{fill:#4abc96}.st1{fill:#357180}.st2{fill:#27636d}.st3{fill:#e7e7d6}.st4{fill:#dcddd8}.st5{fill:#b9b9ba}.st6{fill:#bb5538}</style><circle class="st0" cx="68.5" cy="68.5" r="63.3"/><path class="st1" d="M12.6 38.6l5.6.3v-5h-2.8c-1 1.5-1.9 3-2.8 4.7zM26.4 38.8l23.5.2v-5.2H26.4zM94.7 33.8H67.2V39h24v88.5c1.9-.7 3.7-1.5 5.5-2.4V35.8c0-1.1-.9-2-2-2z"/><path class="st2" d="M22.2 39l4.2-.2v-5h-8.2v5z"/><path class="st3" d="M18.4 39h-.1v68c0 .1.1.1.1.2V39zM62.6 95.3l-2.3-4.6H58l-2.8 4.8zM50 104.6l16.9-.5-2.2-4.4-12.1.4z"/><path class="st3" d="M12.6 38.6c-.1.2-.2.3-.2.5-1.9 3.5-3.4 7.3-4.6 11.2l-1.2 4.5c-.3 1.5-.6 3.1-.9 4.7L5.2 64c-.1 1.5-.2 2.9-.2 4.4l.2 4.5c.1 1.6.3 3.2.5 4.7l.9 4.4c.4 1.7.8 3.3 1.3 4.9l1.6 4.5c.6 1.6 1.3 3.2 2.1 4.8l2.5 4.6c1.3 2.2 2.7 4.2 4.2 6.2V38.8l-5.7-.2zM67.2 38.8H26.4v77c.5.4 3.8 3.1 3.8 3.1 10.6 8 23.8 12.8 38.2 12.8 7 0 13.8-1.2 20.1-3.3.9-.3 1.8-.6 2.7-1V38.8h-24z"/><path class="st3" d="M22.2 39l-4-.2v.2h.1v68.2c1.1 1.4 2.3 2.8 3.5 4.2V41.3h.9v71c1.1 1.2 2.3 2.3 3.5 3.4 0 0 .1.1.2.1v-77l-4.2.2z"/><path class="st4" d="M22.2 41.3h-.4v70.1l.4.4c.2.2.4.4.5.6v-71h-.5z"/><path class="st5" d="M17 52.7c0-1.2-1-2.3-2.2-2.3l-7.1-.2-1.2 4.5 8.2.3c1.4 0 2.3-1 2.3-2.3zM17 61.9c0-1.2-1-2.3-2.2-2.3l-9.1-.3c-.2 1.5-.4 3-.5 4.5l9.6.3c1.3.1 2.2-.9 2.2-2.2zM17 70.9c0-1.2-1-2.3-2.2-2.3l-9.7-.3v.2c0 1.5.1 2.9.2 4.3l9.6.3c1.2 0 2.1-1 2.1-2.2zM17 80.1c0-1.2-1-2.3-2.2-2.3l-9.1-.3.9 4.5 8.3.3c1.2 0 2.1-1 2.1-2.2zM17 89.4c0-1.2-1-2.3-2.2-2.3l-7-.2c.5 1.5 1 3.1 1.6 4.5l5.4.2c1.3.1 2.2-.9 2.2-2.2zM17 98.6c0-1.2-1-2.3-2.2-2.3l-3.3-.1c.8 1.6 1.6 3.1 2.5 4.6h.9c1.2.1 2.1-.9 2.1-2.2zM30 50.4c-1.2 0-2.2 1.1-2.2 2.3s1 2.2 2.2 2.2l19.9-.6v-4.5l-19.9.6zM81.2 53.3c1.2 0 2.2-1.1 2.2-2.3 0-1.2-1-2.2-2.2-2.2l-13.9.4v4.5l13.9-.4zM81.2 62.5c1.2 0 2.2-1.1 2.2-2.3s-1-2.2-2.2-2.2l-13.9.4v4.5l13.9-.4zM30 59.6c-1.2 0-2.2 1.1-2.2 2.3s1 2.2 2.2 2.2l19.9-.6V59l-19.9.6zM30 68.6c-1.2 0-2.2 1.1-2.2 2.3s1 2.2 2.2 2.2l19.9-.6V68l-19.9.6zM81.2 71.4c1.2 0 2.2-1.1 2.2-2.3s-1-2.2-2.2-2.2l-13.9.4v4.5l13.9-.4zM81.2 80.7c1.2 0 2.2-1.1 2.2-2.3s-1-2.2-2.2-2.2l-13.9.4v4.5l13.9-.4zM30 77.8c-1.2 0-2.2 1.1-2.2 2.3 0 1.2 1 2.2 2.2 2.2l19.9-.6v-4.5l-19.9.6zM81.2 90c1.2 0 2.2-1.1 2.2-2.3 0-1.2-1-2.2-2.2-2.2l-13.9.4v4.5l13.9-.4zM30 87.1c-1.2 0-2.2 1.1-2.2 2.3 0 1.2 1 2.2 2.2 2.2l19.9-.6v-4.5l-19.9.6zM59.2 88.5L58 90.7h2.3zM81.2 99.2c1.2 0 2.2-1.1 2.2-2.3 0-1.2-1-2.2-2.2-2.2l-13.9.4v4.5l13.9-.4zM30 96.3c-1.2 0-2.2 1.1-2.2 2.3 0 1.2 1 2.2 2.2 2.2l19.9-.6v-4.5l-19.9.6zM52.6 100.1l12.1-.4-2.1-4.4-7.4.2zM66.9 104.1l-16.9.5-.1.1v-.1l-19.9.7c-1.2 0-2.2 1.1-2.2 2.3 0 1.2 1 2.2 2.2 2.2l51.2-1.6c1.2 0 2.2-1.1 2.2-2.3s-1-2.2-2.2-2.2l-13.9.4v.7l-.4-.7zM81.2 117.3c1.2 0 2.2-1.1 2.2-2.3 0-1.2-1-2.2-2.2-2.2L30 114.5c-1.2 0-2.2 1.1-2.2 2.3v.2c.8.7 1.6 1.3 2.4 1.9l51-1.6z"/><path class="st6" d="M49.9 33.8v70.8h.1l9.2-16.1 7.7 15.6h.3V33.8z"/><g><path class="st6" d="M50 104.6h-.1v.2z"/></g><g><path class="st6" d="M67.2 104.8v-.7h-.3z"/></g></svg>