<svg id="Layer_1" xmlns="http://www.w3.org/2000/svg" viewBox="0 0 200 60"><style>.st0{fill:#fff}</style><path class="st0" d="M25.9 23.1c-.2.4-.5.5-.9.5-.2 0-.5-.1-.8-.3-.3-.2-.7-.4-1.1-.6s-1-.4-1.6-.6-1.3-.3-2.2-.3c-.7 0-1.4.1-1.9.3-.6.2-1.1.4-1.5.8-.4.3-.7.7-.9 1.1s-.3.9-.3 1.4c0 .6.2 1.1.5 1.6.4.4.8.8 1.4 1.1s1.3.6 2 .8c.8.2 1.5.5 2.3.7s1.6.6 2.3.9c.8.3 1.4.7 2 1.2s1.1 1.1 1.4 1.8c.4.7.5 1.5.5 2.5 0 1.1-.2 2.2-.6 3.1-.4 1-1 1.8-1.8 2.5s-1.7 1.2-2.9 1.6c-1.1.4-2.4.6-3.9.6-1.7 0-3.2-.3-4.6-.8s-2.5-1.3-3.5-2.1l1-1.6c.1-.2.3-.4.5-.5s.4-.2.7-.2.6.1.9.3c.3.2.7.5 1.2.7.5.3 1 .5 1.7.7.6.2 1.5.3 2.4.3.8 0 1.6-.1 2.2-.3s1.1-.5 1.6-.9c.4-.4.7-.8.9-1.3.2-.5.3-1 .3-1.5 0-.7-.2-1.2-.5-1.7-.4-.4-.8-.8-1.4-1.1s-1.3-.6-2-.8c-.8-.2-1.5-.5-2.3-.7s-1.6-.5-2.3-.9-1.4-.7-2-1.2-1.1-1.1-1.4-1.8c-.4-.7-.5-1.6-.5-2.7 0-.9.2-1.8.6-2.7.4-.9.9-1.6 1.7-2.3.7-.6 1.6-1.2 2.7-1.5 1.1-.4 2.3-.6 3.7-.6 1.6 0 3 .3 4.3.8s2.4 1.2 3.3 2.1l-1.2 1.6zM35.2 43.4V19.1h2.5c.6 0 1 .3 1.2.9l.3 2.6c1.1-1.2 2.2-2.1 3.5-2.8s2.8-1.1 4.5-1.1c1.3 0 2.5.2 3.5.7 1 .4 1.9 1.1 2.5 1.9s1.2 1.8 1.5 2.9.5 2.4.5 3.8v15.5h-4.3V27.9c0-1.8-.4-3.3-1.3-4.3-.8-1-2.1-1.5-3.9-1.5-1.3 0-2.4.3-3.5.9s-2.1 1.4-3 2.5v17.9h-4zM78.7 51.6V19.1h2.5c.6 0 1 .3 1.2.9l.4 2.9c1-1.3 2.2-2.3 3.6-3 1.3-.8 2.9-1.2 4.6-1.2 1.4 0 2.7.3 3.8.8 1.1.5 2.1 1.3 2.9 2.4s1.4 2.3 1.8 3.9.6 3.3.6 5.4c0 1.8-.2 3.5-.7 5s-1.2 2.9-2.1 4-2 2-3.3 2.7c-1.3.6-2.8 1-4.4 1-1.5 0-2.8-.2-3.9-.7s-2-1.2-2.8-2.1v10.8h-4.2v-.3zm10.8-29.5c-1.4 0-2.6.3-3.7 1s-2 1.5-2.9 2.7v11.8c.8 1.1 1.6 1.8 2.6 2.2.9.4 2 .6 3.1.6 2.3 0 4-.8 5.2-2.4s1.8-3.9 1.8-6.9c0-1.6-.1-2.9-.4-4.1-.3-1.1-.7-2.1-1.2-2.8-.5-.7-1.2-1.3-1.9-1.6-.7-.3-1.6-.5-2.6-.5zM108.2 51.6V19.1h2.5c.6 0 1 .3 1.2.9l.4 2.9c1-1.3 2.2-2.3 3.6-3 1.3-.8 2.9-1.2 4.6-1.2 1.4 0 2.7.3 3.8.8s2.1 1.3 2.9 2.4c.8 1 1.4 2.3 1.8 3.9.4 1.6.6 3.3.6 5.4 0 1.8-.2 3.5-.7 5s-1.2 2.9-2.1 4-2 2-3.3 2.7c-1.3.6-2.8 1-4.4 1-1.5 0-2.8-.2-3.9-.7s-2-1.2-2.8-2.1v10.8h-4.2v-.3zM119 22.1c-1.4 0-2.6.3-3.7 1s-2 1.5-2.9 2.7v11.8c.8 1.1 1.6 1.8 2.6 2.2.9.4 2 .6 3.1.6 2.3 0 4-.8 5.2-2.4s1.8-3.9 1.8-6.9c0-1.6-.1-2.9-.4-4.1-.3-1.1-.7-2.1-1.2-2.8-.5-.7-1.2-1.3-1.9-1.6-.7-.3-1.6-.5-2.6-.5zM143 11.4c0 .4-.1.8-.3 1.2s-.4.7-.7 1-.6.5-1 .7-.8.2-1.2.2-.8-.1-1.2-.2c-.4-.2-.7-.4-1-.7s-.5-.6-.7-1-.2-.7-.2-1.2.1-.8.2-1.2c.2-.4.4-.7.7-1s.6-.5 1-.7.7-.2 1.2-.2c.4 0 .8.1 1.2.2.4.2.7.4 1 .7s.5.6.7 1 .3.8.3 1.2zm-1 7.7v24.3h-4.3V19.1h4.3zM159.1 43.8c-1.9 0-3.4-.5-4.4-1.6s-1.5-2.6-1.5-4.6V22.7h-2.9c-.3 0-.5-.1-.6-.2-.2-.2-.3-.4-.3-.7V20l4-.5 1-7.5c0-.2.1-.4.3-.6.2-.2.4-.2.7-.2h2.2v8.4h7v3.1h-7v14.6c0 1 .2 1.8.7 2.3s1.1.7 1.9.7c.4 0 .8-.1 1.2-.2.3-.1.6-.3.9-.4.2-.1.4-.3.6-.4.2-.1.3-.2.4-.2.2 0 .4.1.6.4l1.2 2c-.7.7-1.6 1.2-2.7 1.6s-2.2.7-3.3.7zM190 20.9c0 .3-.1.6-.2.9-.1.3-.3.5-.4.8l-13.2 17.5h13.3v3.3h-18.3v-1.8c0-.2.1-.5.2-.7.1-.3.3-.5.4-.8L185 22.5h-13v-3.4h18v1.8zM67.2 34.5c2.1 0 3.8-1.7 3.8-3.8v-7.6c0-2.1-1.7-3.8-3.8-3.8s-3.8 1.7-3.8 3.8v7.6c0 2.1 1.7 3.8 3.8 3.8zm6.7-3.8c0 3.8-3.2 6.5-6.7 6.5s-6.7-2.7-6.7-6.5h-2.2c0 4.3 3.5 7.9 7.6 8.5v4.2h2.5v-4.2c4.2-.6 7.6-4.2 7.6-8.5h-2.1z"/></svg>