<svg width="320" height="326" viewBox="0 0 320 326" xmlns="http://www.w3.org/2000/svg"><title>snippitz</title><g transform="translate(-30 -2)" fill="none" fill-rule="evenodd"><ellipse fill="#7C4B1F" transform="rotate(-21 103.355 158.441)" cx="103.355" cy="158.441" rx="57" ry="137.5"/><g transform="translate(87)"><rect fill="#8E5624" transform="rotate(15 92.405 22.677)" x="75.405" y="4.677" width="34" height="36" rx="8"/><rect fill="#AC6322" transform="rotate(15 98.405 30.677)" x="81.405" y="12.677" width="34" height="36" rx="8"/><rect fill="#8E5624" transform="rotate(-10 170.723 22.875)" x="153.723" y="4.875" width="34" height="36" rx="8"/><rect fill="#AC6322" transform="rotate(-8 164.121 28.893)" x="147.121" y="10.893" width="34" height="36" rx="8"/><circle fill="#8E5624" cx="132.5" cy="84.5" r="79.5"/><ellipse fill="#8E5624" transform="rotate(14 91 103)" cx="91" cy="103" rx="79" ry="57"/><ellipse fill="#8E5624" transform="rotate(7 183.763 113.203)" cx="183.763" cy="113.203" rx="79" ry="57"/><path d="M183.135 320C223.266 300.07 251 257.41 251 208c0-68.483-53.278-124-119-124-65.722 0-119 55.517-119 124 0 49.41 27.734 92.07 67.865 112h102.27z" fill="#8E5624"/></g><g transform="translate(115 302)" fill="#8E5624"><rect y="1" width="84" height="25" rx="8"/><rect x="132" width="84" height="25" rx="8"/></g><ellipse fill="#AC6322" cx="219.5" cy="217" rx="59.5" ry="75"/><g transform="translate(178 32)"><ellipse fill="#FFF" cx="17.5" cy="19" rx="17.5" ry="19"/><ellipse fill="#FFF" cx="63.5" cy="19" rx="17.5" ry="19"/><circle stroke="#979797" fill="#000" cx="17.5" cy="22.5" r="6.5"/><circle stroke="#979797" fill="#000" cx="64.5" cy="21.5" r="6.5"/></g><rect fill="#E95583" x="211" y="72" width="17" height="14" rx="8"/><rect fill="#000" x="206" y="101" width="26" height="13" rx="8"/><g transform="translate(185 105)" fill="#DF9C2E"><path d="M3 44h44L25 70 3 44z"/><ellipse cx="25" cy="29.5" rx="25" ry="29.5"/></g><path d="M239.603 129.469C237.246 115.593 224.666 105 209.5 105c-15.166 0-27.746 10.593-30.103 24.469 7.695-3.611 18.34-5.846 30.103-5.846 11.762 0 22.408 2.235 30.103 5.846z" fill="#A46935"/><path fill="#A46935" d="M199 94.137l10.833-1.91L214 115.863l-10.833 1.91z"/><g><g fill="#191919"><path d="M237.976 131.879l8.255 8.069-6.18 3.286z"/><path d="M244.157 128.592l8.255 8.07-6.181 3.286zM232.679 134.695l8.254 8.07-6.18 3.286z"/></g><path d="M305.946 214.116a8.08 8.08 0 0 0-.493-.874l-48.805-75.153a7.998 7.998 0 0 0-11.072-2.353l-7.79 5.059a8.004 8.004 0 0 0-2.353 11.071l48.805 75.153c.61.94 1.384 1.71 2.259 2.295C288.395 220.53 295.51 214 304 214c.658 0 1.307.04 1.946.116z" stroke="#7C4B1F" fill="#995B24"/></g><g><g fill="#191919"><path d="M193.317 132.487l-2.469 11.276-6.062-3.5z"/><path d="M199.38 135.987l-2.47 11.276-6.062-3.5zM188.12 129.487l-2.468 11.276-6.062-3.5z"/></g><path d="M149.745 230.422a8.11 8.11 0 0 0 .362-.55l46.152-76.811a7.998 7.998 0 0 0-2.738-10.983l-7.962-4.784a8.004 8.004 0 0 0-10.982 2.738l-46.153 76.811a8.174 8.174 0 0 0-.16.277c.735-.08 1.48-.12 2.236-.12 8.834 0 16.363 5.588 19.245 13.422z" stroke="#7C4B1F" fill="#995B24"/></g></g></svg>