<svg id="Layer_1" xmlns="http://www.w3.org/2000/svg" viewBox="0 0 136.9 136.9"><style>.st0{fill:#c6b298}.st1{fill:#ea6a25}.st2{fill:#f37c2a}.st3{fill:#3a3a39}</style><circle class="st0" cx="68.5" cy="68.5" r="63.3"/><path class="st1" d="M101.6 40.1c-8-9.3-19.9-15.3-33.1-15.3-24.1 0-43.6 19.5-43.6 43.6 0 13.6 6.3 25.8 16.1 33.8 7.5 6.1 17.1 9.8 27.5 9.8 24.1 0 43.6-19.5 43.6-43.6-.1-10.8-4-20.6-10.5-28.3z"/><path class="st2" d="M88.5 88.9c13.7-13.7 18.2-32.8 13-48.7-8-9.3-19.9-15.3-33.1-15.3-24.1 0-43.6 19.5-43.6 43.6 0 13.6 6.3 25.8 16.1 33.8 15.8 4.5 34.3-.1 47.6-13.4z"/><path class="st3" d="M111.9 71.9c.1-.7.1-1.3.1-2-2.5-1.8-6.6-3.6-11.3-5.1.5-4.4.4-8.3 0-11.8l7.7-1.9c-.2-.5-.4-1-.7-1.5l-7.2 1.8c-1.1-6.6-3.4-11.6-5.7-15.1-1.5-2.3-3-4.1-4.4-5.5-1.6-.9-3.3-1.8-5-2.5l-.2.3s4.4 2.8 8.3 8.8c2.2 3.3 4.4 8.1 5.4 14.4C88 53.3 68.8 36.1 68.6 35.9c-5.5-5.2-11.5-7.5-15.1-8.5-.9.3-1.8.7-2.6 1.1 2.4.5 9.9 2.3 16.6 8.6.8.7 18.2 16.4 30 16.4.6 0 1.1 0 1.6-.1.4 3.3.4 6.9 0 10.9-15.3-4.8-36.4-7.8-37.7-8-22.3-2.7-32 1.4-35.8 4.2-.2.8-.3 1.6-.4 2.5 2-2.1 10-8.2 36-5.1.3 0 22.4 3.2 37.8 8v.1c0 .1-.3 4.9-2.1 11.4-5.2-2.3-11.5-.5-12.2-.2-2.4.5-24.1 8.6-26.6 9.5-10.7 4.8-24 4.8-26.5 4.8.3.6.7 1.1 1.1 1.6 4.2 0 16.1-.5 26.1-4.9 9.9-3.7 25-9.2 26.3-9.4h.1c.1 0 6.4-2 11.3.3-.7 2.2-1.5 4.5-2.5 6.9-4 8.9-11.8 20.5-26.9 26h1.4c1 0 2.1-.1 3.1-.1 13.1-6.1 20.1-16.8 23.9-25.4 1-2.3 1.8-4.6 2.5-6.7.3.2.5.4.8.6.4.4 5.3 6.2 4.9 13.8.6-.8 1.1-1.6 1.6-2.4-.6-7.3-5.2-12.3-5.4-12.6l-.1-.1c-.4-.4-.9-.7-1.4-1.1 1.7-5.9 2.1-10.5 2.2-11.8 5 1.9 9.2 3.7 11.3 5.7z"/></svg>