<svg xmlns="http://www.w3.org/2000/svg" width="100" height="100" viewBox="0 0 100 100"><path fill="#E37948" d="M50 0c27.613 0 50 22.386 50 50s-22.387 50-50 50C22.386 100 0 77.614 0 50S22.386 0 50 0z"/><path fill="#34495E" d="M89.861 19.823a50.588 50.588 0 0 0-1.995-2.454A9 9 0 0 1 71 13a8.974 8.974 0 0 1 3.117-6.802 49.891 49.891 0 0 0-2.823-1.44A11.95 11.95 0 0 0 68 13c0 4.032 1.995 7.591 5.045 9.767C58.718 25.944 48 38.717 48 54c0 17.674 14.327 32 32 32 1.74 0 3.445-.144 5.109-.411C94.299 76.522 100 63.929 100 50a49.742 49.742 0 0 0-6.787-25.14 31.736 31.736 0 0 0-6.258-2.093 12.11 12.11 0 0 0 2.906-2.944z"/><path fill="#ECF0F1" d="M100 50a49.96 49.96 0 0 0-2.308-15.045A25.9 25.9 0 0 0 80 28c-14.359 0-26 11.641-26 26s11.641 26 26 26c4.35 0 8.446-1.073 12.049-2.962A49.748 49.748 0 0 0 100 50z"/><path fill="#D4D8D9" d="M98.477 37.722a50.077 50.077 0 0 0-.784-2.767A25.905 25.905 0 0 0 80 28c-14.359 0-26 11.641-26 26 0 .335.014.668.025 1C54.553 41.105 65.977 30 80 30c7.23 0 13.765 2.957 18.477 7.722z"/><path fill="#E74C3C" d="M82 50.555V36a2 2 0 0 0-4 0v14.555c-1.189.693-2 1.969-2 3.445a4 4 0 0 0 8 0c0-1.477-.811-2.752-2-3.445z"/><path fill="#fff" d="M24 35h20a2 2 0 0 0 0-4H24a2 2 0 0 0 0 4zM14 45h20a2 2 0 0 0 0-4H14a2 2 0 0 0 0 4zm22 18a2 2 0 0 0-2-2H14a2 2 0 0 0 0 4h20a2 2 0 0 0 2-2zm9 8H25a2 2 0 0 0 0 4h20a2 2 0 0 0 0-4zM17 51a2 2 0 0 0 0 4h22a2 2 0 0 0 0-4H17z"/><path fill="#2C3E50" d="M83 14h-6v7.477c.939.333 1.946.523 3 .523s2.061-.19 3-.523V14z"/><path fill="#34495E" d="M85.712 15.019A50.296 50.296 0 0 0 80 10h-4a2 2 0 0 0-2 2v2a2 2 0 0 0 2 2h8c.73 0 1.363-.396 1.712-.981z"/></svg>