<svg id="Layer_1" xmlns="http://www.w3.org/2000/svg" viewBox="0 0 136.9 136.9"><style>.st0{fill:#edbf00}.st1{fill:#f3f4f5}.st2{fill:url(#SVGID_1_)}.st3{fill:#6cc077}.st4{fill:#dbf0f5}.st5{fill:#b8b9ba}.st6{fill:#fff}.st7{opacity:.5;fill:#202121;enable-background:new}.st8{fill:#b5dbaf}.st9{fill:#f6a2a3}.st10{fill:#67b8cb}.st11{fill:#f5e554}.st12{fill:none;stroke:#67b8cb;stroke-width:.5;stroke-miterlimit:10}.st13{fill:#d3d4e3}.st14{fill:none;stroke:#b8b9ba;stroke-width:.5;stroke-miterlimit:10}</style><circle class="st0" cx="68.5" cy="68.5" r="63.3"/><path class="st1" d="M93.3 106.7c0 5.8-2.1 7.9-7.9 7.9H53.9c-5.8 0-7.9-2.1-7.9-7.9V33c0-5.8 2.1-7.9 7.9-7.9h31.6c5.8 0 7.9 2.1 7.9 7.9l-.1 73.7z"/><linearGradient id="SVGID_1_" gradientUnits="userSpaceOnUse" x1="69.543" y1="104.353" x2="69.543" y2="32.832" gradientTransform="matrix(1 0 0 -1 0 138)"><stop offset="0" stop-color="#5978ba"/><stop offset=".703" stop-color="#4e9db8"/><stop offset="1" stop-color="#379cc9"/></linearGradient><path class="st2" d="M48.2 33.6H91v71.5H48.2z"/><path class="st3" d="M53.1 63.2h33.3c.8 0 1.5-.7 1.5-1.5v-5.3l-2.8-2.8s-1.6-2-3-1.9c-1.3.1-2.8 1.7-3.1 2l-1.8-1.8s-1.8-2.4-3.5-2.3c-1.7.1-3.7 2.5-3.7 2.5l-.6.6-3.4-3.4s-2.3-2.9-4.3-2.8c-2.1.1-4.6 3-4.6 3l-5.3 5.3v7c-.2.7.5 1.4 1.3 1.4z"/><path class="st4" d="M61.4 46.4c2.1-.1 4.4 2.8 4.4 2.8l3.4 3.4.6-.6s2-2.4 3.7-2.5c1.7-.1 3.5 2.3 3.5 2.3l1.8 1.8c.3-.3 1.8-2 3.1-2 1.5-.1 3 1.9 3 1.9l2.8 2.8V42.5c0-.8-.7-1.5-1.5-1.5H53.1c-.8 0-1.5.7-1.5 1.5v12.2l5.3-5.3c0 .1 2.5-2.9 4.5-3z"/><path class="st5" d="M74.4 28.1c0 .3-.4.6-.9.6h-7.7c-.5 0-.9-.3-.9-.6s.4-.6.9-.6h7.7c.5 0 .9.3.9.6z"/><circle class="st6" cx="69.6" cy="88.6" r="1.2"/><circle class="st6" cx="74" cy="88.6" r=".8"/><circle class="st6" cx="77.5" cy="88.6" r=".8"/><circle class="st6" cx="61.7" cy="88.6" r=".8"/><circle class="st6" cx="65.3" cy="88.6" r=".8"/><path class="st7" d="M48.2 33.6H91v3.6H48.2z"/><circle class="st6" cx="84.5" cy="35.3" r=".9"/><circle class="st6" cx="50.3" cy="35.3" r=".9"/><circle class="st6" cx="88.7" cy="35.3" r=".9"/><path class="st8" d="M58.6 82c0 .8-.7 1.5-1.5 1.5h-4.3c-.8 0-1.5-.7-1.5-1.5v-4.3c0-.8.7-1.5 1.5-1.5h4.3c.8 0 1.5.7 1.5 1.5V82z"/><path class="st9" d="M68.4 82c0 .8-.7 1.5-1.5 1.5h-4.3c-.8 0-1.5-.7-1.5-1.5v-4.3c0-.8.7-1.5 1.5-1.5h4.3c.8 0 1.5.7 1.5 1.5V82z"/><path class="st10" d="M78.2 82c0 .8-.7 1.5-1.5 1.5h-4.3c-.8 0-1.5-.7-1.5-1.5v-4.3c0-.8.7-1.5 1.5-1.5h4.3c.8 0 1.5.7 1.5 1.5V82z"/><path class="st11" d="M87.9 82c0 .8-.7 1.5-1.5 1.5h-4.3c-.8 0-1.5-.7-1.5-1.5v-4.3c0-.8.7-1.5 1.5-1.5h4.3c.8 0 1.5.7 1.5 1.5V82z"/><path class="st12" d="M87.8 69.7c0 .8-.7 1.5-1.5 1.5H53.1c-.8 0-1.5-.7-1.5-1.5V68c0-.8.7-1.5 1.5-1.5h33.3c.8 0 1.5.7 1.5 1.5v1.7z"/><g><circle class="st4" cx="84.4" cy="68.4" r="1.1"/><path class="st4" d="M86.4 70.4c-.1.1-.2.1-.4-.1l-1.2-1.2c-.1-.1-.1-.3-.1-.4l.1-.1c.1-.1.2-.1.4.1l1.2 1.2c.1.1.1.3.1.4l-.1.1z"/></g><g><path class="st10" d="M57 98.5c0 .7-.5 1.2-1.2 1.2h-3.5c-.7 0-1.2-.5-1.2-1.2V95c0-.7.5-1.2 1.2-1.2h3.5c.7 0 1.2.5 1.2 1.2v3.5z"/><path class="st11" d="M64.9 98.5c0 .7-.5 1.2-1.2 1.2h-3.5c-.7 0-1.2-.5-1.2-1.2V95c0-.7.5-1.2 1.2-1.2h3.5c.7 0 1.2.5 1.2 1.2v3.5z"/><path class="st8" d="M72.9 98.5c0 .7-.5 1.2-1.2 1.2h-3.5c-.7 0-1.2-.5-1.2-1.2V95c0-.7.5-1.2 1.2-1.2h3.5c.7 0 1.2.5 1.2 1.2v3.5z"/><path class="st13" d="M80.8 98.5c0 .7-.5 1.2-1.2 1.2h-3.5c-.7 0-1.2-.5-1.2-1.2V95c0-.7.5-1.2 1.2-1.2h3.5c.7 0 1.2.5 1.2 1.2v3.5z"/><path class="st9" d="M88.7 98.5c0 .7-.5 1.2-1.2 1.2H84c-.7 0-1.2-.5-1.2-1.2V95c0-.7.5-1.2 1.2-1.2h3.5c.7 0 1.2.5 1.2 1.2v3.5z"/></g><path class="st14" d="M74.5 110.3c0 .9-.5 1.6-1.2 1.6h-7.1c-.7 0-1.2-.7-1.2-1.6v-1.1c0-.9.5-1.6 1.2-1.6h7.1c.7 0 1.2.7 1.2 1.6v1.1z"/><circle class="st5" cx="75.7" cy="28.1" r=".7"/><circle class="st5" cx="77.4" cy="28.1" r=".7"/><circle class="st5" cx="83.7" cy="28.4" r=".9"/></svg>