<svg id="Layer_1" xmlns="http://www.w3.org/2000/svg" viewBox="0 0 136.9 136.9"><style>.st0{fill:#ffce00}.st1{fill:#525252}.st2{fill:#444545}.st3{fill:#63bd6e}.st4{fill:#117f4a}.st5{fill:#616161}.st6{fill:#717171}.st7{fill:#727172}.st8{fill:#575656}.st9{fill:#d6cb78}.st10{fill:#ece17e}</style><circle class="st0" cx="68.5" cy="69.5" r="63.3"/><path class="st1" d="M105.2 92.9c0 4.3-1 4.2-5.5 4.2H39c-4.5 0-8.2-3.5-8.2-7.8V52.8c0-4.3 3.7-7.8 8.2-7.8h60.3c4.5 0 5.9 1.5 5.9 5.8v42.1z"/><path class="st2" d="M103.6 91.6c0 4.3-1.2 4.2-5.5 4.2H40.2c-4.3 0-7.8-3.5-7.8-7.8V54.8c0-4.3 3.5-7.8 7.8-7.8h58.4c4.3 0 5 2 5 6.3v38.3z"/><path transform="rotate(-82.403 73.671 58.692)" class="st3" d="M62.5 32.9h22.4v51.7H62.5z"/><path class="st4" d="M97.1 72.1l-49.5-6.6 2.7-20.1L99.8 52l-2.7 20.1zm2.1-19.7l-48.6-6.5L48.1 65l48.6 6.5 2.5-19.1z"/><ellipse transform="rotate(-82.403 73.668 58.692)" class="st4" cx="73.7" cy="58.7" rx="8.8" ry="8.8"/><path class="st3" d="M72.5 66l.2-1.4c-.6-.2-1.1-.4-1.4-.7-.3-.3-.6-.7-.8-1.2-.2-.5-.3-1.2-.2-2l1.2-.1c0 .8.1 1.4.3 1.8.3.6.6.9 1.1 1l.6-4.6c-.5-.2-.9-.5-1.4-.9-.3-.3-.6-.7-.7-1.2-.1-.5-.2-1-.1-1.6.1-1 .5-1.8 1.2-2.4.5-.4 1.1-.6 1.9-.5l.1-.7.7.1-.2.7c.7.2 1.2.5 1.6 1 .5.6.7 1.4.7 2.3H76c0-.6-.1-1-.3-1.4-.2-.3-.5-.6-.8-.7l-.6 4.1c.6.3 1 .4 1.1.6.3.2.6.5.8.8.2.3.3.7.4 1.1.1.4.1.8 0 1.3-.1 1-.5 1.8-1.1 2.4-.6.6-1.3.9-2.2.8l-.2 1.5-.6-.1zm1.6-12.6c-.5 0-.9.2-1.2.5-.3.3-.5.7-.6 1.2-.1.5 0 .9.2 1.3s.5.7 1.1.9l.5-3.9zm-.6 10c.5 0 .9-.2 1.2-.6.4-.4.6-.9.7-1.5.1-.5 0-1-.2-1.3-.2-.3-.6-.7-1.2-1l-.5 4.4z"/><g><path transform="rotate(-24.42 67.999 53.83)" class="st3" d="M42.2 42.6h51.7V65H42.2z"/><path class="st4" d="M94.9 52.8L49.5 73.4l-8.4-18.5 45.5-20.6 8.3 18.5zm-8.6-17.9L41.7 55.2l8 17.5 44.7-20.3-8.1-17.5z"/><ellipse transform="rotate(-24.42 68 53.83)" class="st4" cx="68" cy="53.8" rx="8.8" ry="8.8"/><g><path class="st3" d="M70.8 60.6l-.6-1.3c-.6.2-1.1.2-1.5.2-.4-.1-.9-.3-1.4-.6-.5-.4-.9-.9-1.2-1.5l1-.7c.4.7.8 1.1 1.2 1.4.5.3 1 .4 1.5.3l-2-4.4c-.5.1-1.1.1-1.7 0-.5-.1-.9-.3-1.2-.6-.4-.3-.7-.8-.9-1.3-.4-.9-.5-1.8-.2-2.7.2-.6.6-1 1.3-1.5l-.3-.6.6-.3.3.6c.7-.2 1.3-.2 1.8 0 .7.3 1.3.8 1.8 1.6l-1 .7c-.3-.5-.6-.8-.9-1-.3-.2-.7-.2-1.1-.2l1.7 3.8c.6-.1 1-.1 1.3-.1.4 0 .8.1 1.1.3.3.2.6.4.9.7.3.3.5.7.7 1.1.4.9.5 1.8.3 2.6s-.7 1.4-1.4 1.8l.6 1.3-.7.4zm-5.2-11.5c-.4.3-.6.6-.7 1.1-.1.4 0 .9.2 1.3.2.5.5.8.8 1 .3.2.8.3 1.4.2l-1.7-3.6zm4.8 8.8c.4-.3.6-.6.8-1.1.1-.5 0-1-.2-1.6-.2-.5-.5-.8-.8-1-.3-.2-.8-.3-1.5-.2l1.7 3.9z"/></g></g><g><path class="st5" d="M101.8 96.4c0 4.3-1.7 5.5-6 5.5H35.2c-4.3 0-4.4-.4-4.4-4.7v-44s0-1.1.1-1.7c.1-1.5 1.2-2.9 1.2-2.9s.6 2.7 2.5 3.5c2.9 1.2 5.1 1.1 5.1 1.1h56.1c4.3 0 6 .6 6 4.9v38.3z"/><path class="st6" d="M36 56h-4c-.6 0-1-.4-1-1s.4-1 1-1h4c.6 0 1 .4 1 1s-.5 1-1 1zM94.4 100.7h-2c-.6 0-1-.4-1-1s.4-1 1-1h2c3.3 0 3.9-.3 4.2-1.4.1-.5.7-.9 1.2-.7.5.1.9.7.7 1.2-.8 2.9-3.4 2.9-6.1 2.9zm-10.1 0h-8.1c-.6 0-1-.4-1-1s.4-1 1-1h8.1c.6 0 1 .4 1 1s-.4 1-1 1zm-16.1 0h-8.1c-.6 0-1-.4-1-1s.4-1 1-1h8.1c.6 0 1 .4 1 1s-.4 1-1 1zm-16.1 0H44c-.6 0-1-.4-1-1s.4-1 1-1h8.1c.6 0 1 .4 1 1s-.4 1-1 1zm47.6-10.1c-.6 0-1-.4-1-1v-8.1c0-.6.4-1 1-1s1 .4 1 1v8.1c0 .6-.4 1-1 1zm0-16.1c-.6 0-1-.4-1-1v-8.1c0-.6.4-1 1-1s1 .4 1 1v8.1c0 .5-.4 1-1 1zm-.3-16.1c-.4 0-.8-.3-1-.7-.3-.9-.8-1.6-3.9-1.6h-2.2c-.6 0-1-.4-1-1s.4-1 1-1h2.2c2.5 0 4.9.4 5.8 3 .2.5-.1 1.1-.7 1.3h-.2zm-15.1-2.3h-8.1c-.6 0-1-.4-1-1s.4-1 1-1h8.1c.6 0 1 .4 1 1 0 .5-.5 1-1 1zm-16.1 0h-8.1c-.6 0-1-.4-1-1s.4-1 1-1h8.1c.6 0 1 .4 1 1 0 .5-.5 1-1 1zM52.1 56H44c-.6 0-1-.4-1-1s.4-1 1-1h8.1c.6 0 1 .4 1 1s-.5 1-1 1zM36 100.7h-4c-.6 0-1-.4-1-1s.4-1 1-1h4c.6 0 1 .4 1 1s-.5 1-1 1z"/><path class="st5" d="M98 94.5c0 3.6-1.3 3.9-5 3.9H31V56.2h62.2c3.7 0 4.8 1 4.8 4.7v33.6z"/></g><g><path class="st7" d="M105.4 79.2H85.9c-1.3 0-3.6-2.3-3.6-6.8s2.3-6.7 3.6-6.7h19.5c.6 0 .5 13.5 0 13.5z"/><path class="st8" d="M105.4 80.3H85.9c-1.3 0-3.6-2.3-3.6-6.8s2.3-6.7 3.6-6.7h19.5c.6 0 .5 13.5 0 13.5z"/><ellipse class="st9" cx="88.4" cy="73.6" rx="2.5" ry="3"/><ellipse class="st10" cx="88.4" cy="73.6" rx="2" ry="2.4"/></g></svg>