<?xml version="1.0" encoding="utf-8"?>
<!-- Generator: Adobe Illustrator 21.0.0, SVG Export Plug-In . SVG Version: 6.00 Build 0)  -->
<svg version="1.1" id="Layer_1" xmlns="http://www.w3.org/2000/svg" xmlns:xlink="http://www.w3.org/1999/xlink" x="0px" y="0px"
	 viewBox="0 0 136.9 136.9" style="enable-background:new 0 0 136.9 136.9;" xml:space="preserve">
<style type="text/css">
	.st0{fill:#4ABC96;}
	.st1{fill:#5E5F5E;}
	.st2{fill:#D32027;}
	.st3{fill:#C82127;}
	.st4{fill:#A81E22;}
	.st5{fill:#FFFFFF;}
	.st6{fill:#F9F298;}
	.st7{opacity:0.8;fill:#B1D4D7;enable-background:new    ;}
	.st8{fill:#D3E0E1;}
	.st9{fill:#8D191C;}
	.st10{fill:#F1E7A4;}
	.st11{fill:#A69C60;}
	.st12{fill:#FAF3D1;}
</style>
<g>
	<g>
		<g>
			<g>
				<g>
					<circle class="st0" cx="68.5" cy="68.5" r="63.3"/>
				</g>
			</g>
		</g>
	</g>
	<g>
		<g>
			<path class="st1" d="M34.7,89.8c0,3.8-3.1,6.9-6.9,6.9l0,0c-3.8,0-6.9-3.1-6.9-6.9V74.6c0-3.8,3.1-6.9,6.9-6.9l0,0
				c3.8,0,6.9,3.1,6.9,6.9V89.8z"/>
			<path class="st1" d="M117.1,89.8c0,3.8-3.1,6.9-6.9,6.9l0,0c-3.8,0-6.9-3.1-6.9-6.9V74.6c0-3.8,3.1-6.9,6.9-6.9l0,0
				c3.8,0,6.9,3.1,6.9,6.9V89.8z"/>
			<path class="st2" d="M108,52.4c-4.3-11.6-9.1-26.9-16.7-26.9c0,0-13.6-1.1-21.7-1.1c-7.7,0-21.7,1.1-21.7,1.1
				c-8.2,0-12.7,15.4-16.9,27c-6.3,2.7-12.2,10.4-10.8,16.4s8,24.5,17.8,24.5h63.1c9.8,0,17.5-20,17.8-24.5S114.4,55.1,108,52.4z"/>
			<path class="st3" d="M51.6,29.8c0,0,11.6-1,17.9-1c6.7,0,17.9,1,17.9,1c6.4,0,13.5,13.7,17.5,24c1.9,4.9-3.2,24.3-10.8,24.3H45
				c-7.7,0-12.8-19.4-11-24.3C37.8,43.5,44.8,29.8,51.6,29.8z"/>
			<path class="st4" d="M45,78c-7.7,0-12.8-19.4-11-24.3c0,0,1.9,9.2,4.2,14.1C41.4,74.1,45,78,45,78z"/>
			<path class="st4" d="M94.1,78c7.7,0,12.8-19.4,11-24.3c0,0-1.9,9.2-4.2,14.1C97.7,74.1,94.1,78,94.1,78z"/>
			<path class="st3" d="M36.9,74.8c0,2.8-5.8,3.2-8.5,3.2c-2.8,0-5-2.2-5-5c0-2.8,2.2-5,5-5C31.1,67.9,36.9,72,36.9,74.8z"/>
			<path class="st5" d="M35.6,74.4c0,2.2-4.7,2.6-6.9,2.6s-4.1-1.8-4.1-4.1s1.8-4.1,4.1-4.1S35.6,72.2,35.6,74.4z"/>
			<path class="st4" d="M95.4,85.8c0,2.8-2.2,5-5,5H48.7c-2.8,0-5-2.2-5-5l0,0c0-2.8,2.2-5,5-5h41.7C93.2,80.8,95.4,83,95.4,85.8
				L95.4,85.8z"/>
			<path class="st3" d="M102.4,74.8c0,2.8,5.8,3.2,8.5,3.2c2.8,0,5-2.2,5-5c0-2.8-2.2-5-5-5C108.2,67.9,102.4,72,102.4,74.8z"/>
			<path class="st5" d="M103.4,74.5c0,2.4,4.9,2.7,7.3,2.7c2.4,0,4.3-1.9,4.3-4.3c0-2.4-1.9-4.3-4.3-4.3
				C108.4,68.7,103.4,72.2,103.4,74.5z"/>
			<circle class="st6" cx="29.6" cy="73.1" r="3.5"/>
			<circle class="st6" cx="109.8" cy="73.1" r="3.5"/>
		</g>
		<path class="st7" d="M49.1,29.2c0,0,13.2-0.9,20.5-0.9c7.7,0,20.5,0.9,20.5,0.9c7.3,0,9.3,11.1,13.1,20.6c1.8,4.5-68.9,4.5-67.2,0
			C39.5,40.3,41.4,29.2,49.1,29.2z"/>
		<path class="st8" d="M49.1,29.2c0,0,13.2-0.9,20.5-0.9c3.1,0,7.1,0.1,10.7,0.3L61.5,53c-14.2-0.3-26.3-1.4-25.6-3.3
			C39.5,40.3,41.4,29.2,49.1,29.2z"/>
		<g>
			<g>
				<path class="st9" d="M86.9,84.1h-35c-0.4,0-0.7-0.3-0.7-0.7c0-0.4,0.3-0.7,0.7-0.7h35c0.4,0,0.7,0.3,0.7,0.7
					C87.5,83.8,87.2,84.1,86.9,84.1z"/>
			</g>
			<g>
				<path class="st9" d="M86.9,86.4h-35c-0.4,0-0.7-0.3-0.7-0.7c0-0.4,0.3-0.7,0.7-0.7h35c0.4,0,0.7,0.3,0.7,0.7
					C87.5,86.1,87.2,86.4,86.9,86.4z"/>
			</g>
			<g>
				<path class="st9" d="M86.9,88.8h-35c-0.4,0-0.7-0.3-0.7-0.7c0-0.4,0.3-0.7,0.7-0.7h35c0.4,0,0.7,0.3,0.7,0.7
					C87.5,88.5,87.2,88.8,86.9,88.8z"/>
			</g>
		</g>
		<g>
			<g>
				<g>
					<path class="st10" d="M76.4,71.6c-2.8,0.5-4.9,2.8-4.9,2.8v0c0,0,0,0,0,0c-0.8,0.4-1.7,0.3-2-0.3c-0.3-0.6,0-1.5,0.8-1.9
						C72.9,70.7,76.4,71.6,76.4,71.6z"/>
				</g>
				<g>
					<path class="st10" d="M75.3,73c-2.3,0.2-4.2,1.8-4.2,1.8l0,0c0,0,0,0,0,0c-0.7,0.3-1.4,0.1-1.6-0.4c-0.2-0.5,0.1-1.2,0.8-1.5
						C72.5,71.9,75.3,73,75.3,73z"/>
				</g>
				<g>
					<path class="st10" d="M73.9,74c-1.7-0.1-3.3,1-3.3,1l0,0c0,0,0,0,0,0c-0.5,0.2-1-0.1-1.2-0.5c-0.1-0.4,0.2-0.9,0.7-1
						C71.9,72.9,73.9,74,73.9,74z"/>
				</g>
			</g>
			<g>
				<g>
					<path class="st10" d="M62.3,71.6c2.8,0.5,4.9,2.8,4.9,2.8v0c0,0,0,0,0,0c0.8,0.4,1.7,0.3,2-0.3c0.3-0.6,0-1.5-0.8-1.9
						C65.8,70.7,62.3,71.6,62.3,71.6z"/>
				</g>
				<g>
					<path class="st10" d="M63.4,73c2.3,0.2,4.2,1.8,4.2,1.8l0,0c0,0,0,0,0,0c0.7,0.3,1.4,0.1,1.6-0.4c0.2-0.5-0.1-1.2-0.8-1.5
						C66.2,71.9,63.4,73,63.4,73z"/>
				</g>
				<g>
					<path class="st10" d="M64.8,74c1.7-0.1,3.3,1,3.3,1l0,0c0,0,0,0,0,0c0.5,0.2,1-0.1,1.2-0.5c0.1-0.4-0.2-0.9-0.7-1
						C66.8,72.9,64.8,74,64.8,74z"/>
				</g>
			</g>
			<circle class="st11" cx="69.2" cy="73.6" r="2.1"/>
			<circle class="st12" cx="69.2" cy="73.6" r="1"/>
		</g>
	</g>
</g>
</svg>
