<?xml version="1.0" encoding="utf-8"?>
<!-- Generator: Adobe Illustrator 21.0.0, SVG Export Plug-In . SVG Version: 6.00 Build 0)  -->
<svg version="1.1" id="Layer_1" xmlns="http://www.w3.org/2000/svg" xmlns:xlink="http://www.w3.org/1999/xlink" x="0px" y="0px"
	 viewBox="0 0 100 100" style="enable-background:new 0 0 100 100;" xml:space="preserve">
<style type="text/css">
	.st0{fill:#3DB39E;}
	.st1{fill:#E4E7E7;}
	.st2{fill:#349886;}
	.st3{fill:#E77944;}
	.st4{fill:#CDCFCF;}
	.st5{fill:#EFF1F1;}
	.st6{fill:#C5673A;}
	.st7{fill:#CCCDCD;}
</style>
<path class="st0" d="M50,0c27.6,0,50,22.4,50,50s-22.4,50-50,50S0,77.6,0,50S22.4,0,50,0z"/>
<g>
	<path class="st1" d="M23.4,32.3l17.9,8.9l7.1-3.6l-17.9-8.9L23.4,32.3z M60.9,31.4L43,22.5l-7.1,3.6L53.8,35L60.9,31.4z M28.7,47.5
		l7.1-3.6L18,35l-7.1,3.6L28.7,47.5z M48.4,19.8l17.9,8.9l7.1-3.6l-17.9-8.9L48.4,19.8z M55.4,99.7c3.5-0.4,6.8-1.1,10-2.1L2.7,66.2
		c1.1,3.3,2.6,6.4,4.3,9.3C7,75.5,55.4,99.7,55.4,99.7z M3.7,60l7.1-3.6L0,51c0.1,2.6,0.3,5.1,0.7,7.5C0.7,58.5,3.7,60,3.7,60z
		 M16.2,53.8l7.1-3.6L5.5,41.3l-5.1,2.6c-0.1,0.6-0.1,1.3-0.2,1.9C0.2,45.7,16.2,53.8,16.2,53.8z"/>
</g>
<path class="st2" d="M60.4,71.9c6-3.4,13.5-1.6,14.4,0c0.9,1.6-1.2,8.8-7.2,12.2c-6,3.4-13.5,1.6-14.4,0
	C52.4,82.8,54.4,75.3,60.4,71.9z"/>
<path class="st3" d="M85.7,46.7c4.8-4.8,8.2-10.4,10.4-16C91.1,18.6,81.3,8.9,69.2,3.8C63.5,6.1,57.8,9.5,53,14.3
	c-15.7,15.6-15.6,41-12.1,44.5C45.2,63,70,62.4,85.7,46.7z M85.7,46.7c4.8-4.8,8.2-10.4,10.4-16C91.1,18.6,81.3,8.9,69.2,3.8
	C63.5,6.1,57.8,9.5,53,14.3c-15.7,15.6-15.6,41-12.1,44.5C45.2,63,70,62.4,85.7,46.7z"/>
<path class="st4" d="M58.6,38.5l19-19c0.8-0.8,2.1-0.8,2.9,0c0.8,0.8,0.8,2.1,0,2.9l-19,19c-0.8,0.8-2.1,0.8-2.9,0
	S57.8,39.3,58.6,38.5z"/>
<path class="st5" d="M60.3,34.3c-0.4-0.4-1-0.4-1.4,0L58.3,35c-0.4,0.4-0.4,1,0,1.4l5.4,5.4c0.4,0.4,1,0.4,1.4,0l0.7-0.7
	c0.4-0.4,0.4-1,0-1.4C65.7,39.7,60.3,34.3,60.3,34.3z M65.3,29.3c-0.4-0.4-1-0.4-1.4,0l-0.7,0.7c-0.4,0.4-0.4,1,0,1.4l5.4,5.4
	c0.4,0.4,1,0.4,1.4,0l0.7-0.7c0.4-0.4,0.4-1,0-1.4C70.7,34.7,65.3,29.3,65.3,29.3z M70.3,24.3c-0.4-0.4-1-0.4-1.4,0L68.3,25
	c-0.4,0.4-0.4,1,0,1.4l5.4,5.4c0.4,0.4,1,0.4,1.4,0l0.7-0.7c0.4-0.4,0.4-1,0-1.4L70.3,24.3z M80.7,24.7l-5.4-5.4
	c-0.4-0.4-1-0.4-1.4,0L73.3,20c-0.4,0.4-0.4,1,0,1.4l5.4,5.4c0.4,0.4,1,0.4,1.4,0l0.7-0.7C81.1,25.7,81.1,25.1,80.7,24.7z
	 M60.3,34.3c-0.4-0.4-1-0.4-1.4,0L58.3,35c-0.4,0.4-0.4,1,0,1.4l5.4,5.4c0.4,0.4,1,0.4,1.4,0l0.7-0.7c0.4-0.4,0.4-1,0-1.4
	C65.7,39.7,60.3,34.3,60.3,34.3z M65.3,29.3c-0.4-0.4-1-0.4-1.4,0l-0.7,0.7c-0.4,0.4-0.4,1,0,1.4l5.4,5.4c0.4,0.4,1,0.4,1.4,0
	l0.7-0.7c0.4-0.4,0.4-1,0-1.4C70.7,34.7,65.3,29.3,65.3,29.3z M70.3,24.3c-0.4-0.4-1-0.4-1.4,0L68.3,25c-0.4,0.4-0.4,1,0,1.4
	l5.4,5.4c0.4,0.4,1,0.4,1.4,0l0.7-0.7c0.4-0.4,0.4-1,0-1.4L70.3,24.3z M80.7,24.7l-5.4-5.4c-0.4-0.4-1-0.4-1.4,0L73.3,20
	c-0.4,0.4-0.4,1,0,1.4l5.4,5.4c0.4,0.4,1,0.4,1.4,0l0.7-0.7C81.1,25.7,81.1,25.1,80.7,24.7z"/>
<path class="st6" d="M60.4,17.3c4.6-4.6,10-7.8,15.4-10.1c-2.1-1.3-4.3-2.4-6.6-3.3C63.5,6.1,57.8,9.5,53,14.3
	c-15.7,15.6-15.6,41-12.1,44.5c1.1,1.1,3.5,1.8,6.8,2.1C44.8,55.2,45.6,31.9,60.4,17.3z"/>
<path class="st5" d="M39.1,46.3c2.5,1.9,5.6,4.4,8.4,7.2c2.4,2.4,4.7,5.1,6.4,7.4c2.7-0.2,5.7-0.7,8.8-1.5
	c-1.8-2.6-5.3-7.5-9.5-11.7c-4.9-4.9-10.7-8.8-12.8-10.2C39.8,40.6,39.3,43.6,39.1,46.3z"/>
<path class="st7" d="M46.4,52.3c0-2.9,0.3-6.2,1-9.8c-3-2.4-5.7-4.2-6.9-5c-0.2,0.8-0.3,1.5-0.5,2.2l0,0.2c-0.1,0.7-0.2,1.3-0.3,2
	l0,0.2c-0.2,1.4-0.4,2.8-0.5,4.1v0C41.3,47.9,43.9,49.9,46.4,52.3z"/>
</svg>
