<?xml version="1.0" encoding="utf-8"?>
<!-- Generator: Adobe Illustrator 21.0.0, SVG Export Plug-In . SVG Version: 6.00 Build 0)  -->
<svg version="1.1" id="Layer_1" xmlns="http://www.w3.org/2000/svg" xmlns:xlink="http://www.w3.org/1999/xlink" x="0px" y="0px"
	 viewBox="0 0 136.9 136.9" style="enable-background:new 0 0 136.9 136.9;" xml:space="preserve">
<style type="text/css">
	.st0{fill:#4ABC96;}
	.st1{fill:#EF5E8F;}
	.st2{fill:#CFE6E9;}
	.st3{opacity:0.8;fill:#CFE6E9;enable-background:new    ;}
	.st4{fill:#F1F8F9;}
	.st5{fill:#F4E028;}
	.st6{fill:#F9F29A;}
</style>
<g>
	<g>
		<g>
			<g>
				<g>
					<circle class="st0" cx="68.5" cy="68.5" r="63.3"/>
				</g>
			</g>
		</g>
	</g>
	<g>
		<g>
			<path class="st1" d="M82.5,24.3l-4-1.8l-11.1-4.9l-0.8-0.4c-0.1,0-0.2-0.1-0.3-0.1C65.7,17,65.2,17,64.6,17c-3,0-5.5,2.3-5.5,5.1
				c0,0.5,0.1,1,0.2,1.4l7.5,49.3l2.7-0.4l-7-45.6l-0.5-3.3c-0.5-3.7,3.1-3.6,5-3.1l3.1,1.3l7.3,3.2l0,0l4,1.8
				C82,27,82.7,26.7,83,26S83.1,24.6,82.5,24.3z"/>
		</g>
		<rect x="65.4" y="75.7" class="st2" width="4.6" height="43.1"/>
		<ellipse class="st2" cx="68" cy="118.5" rx="16.2" ry="1.2"/>
		<path class="st3" d="M69.9,77.8h-4.4c-0.4,0-25-25.9-25-30.7c0-3.3,3.1-3.7,6.9-3.7h40.5c3.8,0,6.9,0,6.9,3.7
			C94.9,52,70.3,77.8,69.9,77.8z"/>
		<path class="st4" d="M67.7,75.6c-2.9,0-14.5-14.2-14.5-14.2L82,61.3C82,61.3,70.6,75.6,67.7,75.6z"/>
		<g>
			<g>
				<g>
					<path class="st5" d="M91.8,35.9c5.4,2.9,7.6,9.5,4.9,15l1.8,0.9c3.2-6.5,0.7-14.3-5.7-17.7c-6.4-3.4-14.3-1-17.8,5.3l1.8,0.9
						C79.7,35.1,86.4,33.1,91.8,35.9z"/>
				</g>
				<g>
					<path class="st6" d="M91.8,35.9c-5.4-2.9-12.1-0.8-15.1,4.5l5.7,3.1l1.4,0l1.7,0l2.4,2.8l8.7,4.6
						C99.4,45.4,97.3,38.8,91.8,35.9z"/>
				</g>
			</g>
			<g>
				<path class="st5" d="M87.3,44.7c0,0-0.1,0-0.1,0c-0.1-0.1-0.2-0.2-0.1-0.4l2.8-5.4c0.1-0.1,0.2-0.2,0.4-0.1
					c0.1,0.1,0.2,0.2,0.1,0.4l-2.8,5.4C87.6,44.7,87.5,44.7,87.3,44.7z"/>
			</g>
			<g>
				<path class="st5" d="M88.9,46.5c-0.1,0-0.2-0.1-0.3-0.2c0-0.2,0-0.3,0.2-0.4l5.8-1.8c0.2,0,0.3,0,0.4,0.2c0,0.2,0,0.3-0.2,0.4
					L88.9,46.5C89,46.5,88.9,46.5,88.9,46.5z"/>
			</g>
			<g>
				<path class="st5" d="M84.5,43.5l-1.6-5c0-0.2,0-0.3,0.2-0.4c0.2,0,0.3,0,0.4,0.2l1.6,5.2L84.5,43.5z"/>
			</g>
		</g>
	</g>
</g>
</svg>
