<?xml version="1.0" encoding="utf-8"?>
<!-- Generator: Adobe Illustrator 21.0.0, SVG Export Plug-In . SVG Version: 6.00 Build 0)  -->
<svg version="1.1" id="Layer_1" xmlns="http://www.w3.org/2000/svg" xmlns:xlink="http://www.w3.org/1999/xlink" x="0px" y="0px"
	 viewBox="0 0 100 100" style="enable-background:new 0 0 100 100;" xml:space="preserve">
<style type="text/css">
	.st0{fill:#85D4EE;}
	.st1{fill:#1F95BC;}
	.st2{fill:#FF9000;}
</style>
<path class="st0" d="M50,0C22.4,0,0,22.4,0,50s22.4,50,50,50s50-22.4,50-50S77.6,0,50,0z"/>
<path class="st1" d="M92.7,76c-0.2,0-0.5,0-0.7,0c-4,0-6-4-6-4s-2.1,4-6,4c-4,0-5.9-4-5.9-4s-2,4-6,4s-6-4-6-4s-2.1,4-6,4
	c-4,0-6-4-6-4s-2,4-6,4s-6-4-6-4s-2.1,4-6,4c-4,0-6-4-6-4s-2,4-6,4s-6-4-6-4s-2.1,4-6,4c-0.3,0-0.5,0-0.8-0.1
	C16,90.4,31.9,100,50,100S84,90.4,92.7,76z"/>
<g>
	<g>
		<path class="st2" d="M57.6,60.7c6.1-3.9,6.1-12.4,6.1-18.3c0-7.9-6.1-24.4-14.2-24.4c-4.1,0-14.2,14.2-14.2,24.4
			c0,5.9,0,14.5,6.1,18.3C35.3,64.8,35.3,79,35.3,79s10.2-10.2,14.2-10.2c4.1,0,14.2,10.2,14.2,10.2S63.7,64.8,57.6,60.7z
			 M47.5,32.2h-4.1v-4.1h4.1V32.2z"/>
	</g>
</g>
</svg>
