<?xml version="1.0" encoding="utf-8"?>
<!-- Generator: Adobe Illustrator 21.0.0, SVG Export Plug-In . SVG Version: 6.00 Build 0)  -->
<svg version="1.1" id="Layer_1" xmlns="http://www.w3.org/2000/svg" xmlns:xlink="http://www.w3.org/1999/xlink" x="0px" y="0px"
	 viewBox="0 0 136.9 136.9" style="enable-background:new 0 0 136.9 136.9;" xml:space="preserve">
<style type="text/css">
	.st0{fill:#65A844;}
	.st1{fill:#E8E7E7;}
	.st2{fill:#E4E4E4;}
	.st3{fill:#FFFFFF;}
	.st4{fill:none;}
	.st5{fill:#CDCDCE;}
	.st6{fill:#EED22F;}
	.st7{fill:#E6C41F;}
</style>
<g>
	<g>
		<circle class="st0" cx="68.5" cy="68.5" r="63.3"/>
	</g>
	<path class="st1" d="M68.5,33C48.9,33,33,48.9,33,68.5c0,16.7,11.5,30.7,27.1,34.5c2.7,0.7,5.5,1,8.4,1c2.8,0,5.5-0.3,8.1-0.9
		C92.3,99.3,104,85.3,104,68.5C104,48.9,88.1,33,68.5,33z"/>
	<g>
		<path class="st2" d="M56.9,102.2c-0.4-0.1-0.8-0.3-1.2-0.4C56.1,101.9,56.5,102.1,56.9,102.2z"/>
		<path class="st2" d="M103.9,69.9c0,0.4,0,0.9-0.1,1.3C103.9,70.8,103.9,70.4,103.9,69.9z"/>
		<path class="st2" d="M102.5,58.4c0.1,0.3,0.1,0.5,0.2,0.8c0.4,1.4,0.7,2.9,0.9,4.4c-0.3-2.4-0.9-4.7-1.7-6.9c0,0.1,0,0.1,0.1,0.2
			C102.2,57.3,102.4,57.9,102.5,58.4z"/>
		<path class="st2" d="M98.9,86.9c-0.2,0.3-0.4,0.6-0.6,0.9C98.5,87.5,98.7,87.2,98.9,86.9z"/>
		<path class="st2" d="M46.1,96.2C46.1,96.2,46.1,96.2,46.1,96.2L46.1,96.2C46,96.2,46,96.2,46.1,96.2c1.4,1.2,3,2.3,4.6,3.2
			c0,0-0.1,0-0.1-0.1C49,98.4,47.5,97.3,46.1,96.2z"/>
		<path class="st2" d="M102,80.2c-0.1,0.3-0.2,0.6-0.3,0.9C101.8,80.8,101.9,80.5,102,80.2z"/>
		<path class="st2" d="M97.3,47.6c-0.5-0.8-1.1-1.5-1.7-2.2c0.4,0.5,0.9,1,1.3,1.6C97,47.2,97.2,47.4,97.3,47.6z"/>
		<path class="st2" d="M52.2,100.2c0.6,0.3,1.2,0.6,1.8,0.8c-0.1-0.1-0.3-0.1-0.4-0.2C53.1,100.7,52.7,100.5,52.2,100.2z"/>
		<path class="st2" d="M88.9,97.7c-1.3,0.9-2.7,1.8-4.1,2.5C86.2,99.4,87.6,98.6,88.9,97.7z"/>
		<path class="st2" d="M55.4,101.7c-0.4-0.2-0.8-0.3-1.2-0.5C54.6,101.4,55,101.5,55.4,101.7z"/>
		<path class="st2" d="M103.9,66.3c0,0.7,0.1,1.5,0.1,2.2C104,67.7,104,67,103.9,66.3z"/>
		<path class="st2" d="M70.6,104.1c-0.7,0-1.5,0.1-2.2,0.1C69.2,104.2,69.9,104.1,70.6,104.1z"/>
		<path class="st2" d="M95.5,45.4C95.5,45.3,95.5,45.3,95.5,45.4C95.5,45.3,95.5,45.3,95.5,45.4C95.5,45.3,95.5,45.3,95.5,45.4z"/>
		<path class="st2" d="M73.1,103.9c-0.8,0.1-1.6,0.2-2.4,0.2C71.5,104,72.3,104,73.1,103.9z"/>
		<path class="st2" d="M103.7,64c0.1,0.6,0.1,1.1,0.2,1.7C103.8,65.1,103.8,64.6,103.7,64z"/>
		<path class="st2" d="M101,54.1c0.3,0.7,0.6,1.5,0.9,2.2C101.6,55.6,101.3,54.9,101,54.1z"/>
		<path class="st2" d="M98,88.3c-0.2,0.3-0.5,0.7-0.7,1C97.6,88.9,97.8,88.6,98,88.3z"/>
		<path class="st2" d="M65.6,104c-3-0.2-5.8-0.8-8.5-1.8c3.1,1.1,6.5,1.7,10,1.8c-0.4,0-0.8,0-1.1-0.1
			C65.8,104.1,65.7,104.1,65.6,104z"/>
		<path class="st2" d="M97.1,89.6c-0.3,0.4-0.5,0.7-0.8,1.1C96.5,90.3,96.8,90,97.1,89.6z"/>
		<path class="st2" d="M91.1,95.9c-0.6,0.5-1.3,1-1.9,1.5C89.9,96.9,90.5,96.5,91.1,95.9z"/>
		<path class="st2" d="M92.9,94.4c-0.4,0.4-0.8,0.7-1.2,1.1C92.1,95.1,92.5,94.8,92.9,94.4z"/>
		<path class="st2" d="M95.1,92.1c-0.3,0.4-0.7,0.8-1,1.1C94.4,92.9,94.7,92.5,95.1,92.1z"/>
		<path class="st2" d="M103.3,75.5c0,0.2-0.1,0.4-0.1,0.6C103.2,75.9,103.2,75.7,103.3,75.5z"/>
		<path class="st2" d="M99.7,85.4c-0.2,0.3-0.3,0.6-0.5,0.9c0.9-1.5,1.6-3.1,2.3-4.8c-0.5,1.3-1,2.5-1.7,3.7
			C99.8,85.3,99.8,85.4,99.7,85.4z"/>
		<path class="st2" d="M103.9,71.4c0,0.5-0.1,1.1-0.2,1.6c0.1-0.6,0.1-1.2,0.2-1.7C103.9,71.3,103.9,71.4,103.9,71.4z"/>
		<path class="st2" d="M103.6,73.5c0,0.1,0,0.2,0,0.4C103.6,73.8,103.6,73.7,103.6,73.5z"/>
		<path class="st2" d="M94,93.3c-0.4,0.4-0.7,0.7-1.1,1.1C93.2,94,93.6,93.7,94,93.3z"/>
		<path class="st2" d="M96.1,90.9c-0.3,0.4-0.6,0.7-0.9,1.1C95.5,91.6,95.8,91.3,96.1,90.9z"/>
		<path class="st2" d="M99.9,51.9c0.4,0.7,0.7,1.4,1,2.1C100.6,53.3,100.3,52.6,99.9,51.9z"/>
		<path class="st2" d="M102.5,78.7c-0.1,0.3-0.2,0.5-0.2,0.8C102.3,79.2,102.4,78.9,102.5,78.7z"/>
		<path class="st2" d="M81.6,101.6c-1.9,0.8-3.8,1.4-5.8,1.8c-0.8,0.2-1.6,0.3-2.4,0.4c3.9-0.5,7.6-1.7,11-3.5
			c-0.7,0.4-1.5,0.7-2.2,1C82,101.5,81.8,101.5,81.6,101.6z"/>
		<path class="st2" d="M52.2,100.2c-0.5-0.2-0.9-0.5-1.3-0.7C51.3,99.7,51.7,100,52.2,100.2z"/>
		<path class="st2" d="M97.3,47.7c0.9,1.3,1.8,2.7,2.6,4.2C99.1,50.4,98.3,49,97.3,47.7z"/>
		<path class="st2" d="M102.9,77.1c-0.1,0.2-0.1,0.5-0.2,0.7C102.8,77.6,102.9,77.4,102.9,77.1z"/>
		<path class="st3" d="M33.1,72.4c0,0.1,0,0.3,0,0.4c0-0.1,0-0.1,0-0.2C33.2,72.5,33.2,72.4,33.1,72.4z"/>
		<path class="st3" d="M33,70.4c0,0.1,0,0.1,0,0.2C33,70.6,33,70.5,33,70.4C33,70.5,33,70.5,33,70.4z"/>
		<path class="st3" d="M33,70.9c0,0,0,0.1,0,0.1C33,71,33,71,33,70.9C33,71,33,71,33,70.9z"/>
		<path class="st3" d="M33.4,74.3c0,0.2,0.1,0.4,0.1,0.6c0,0,0-0.1,0-0.1C33.5,74.6,33.4,74.4,33.4,74.3z"/>
		<path class="st3" d="M83.4,36.1c0.1,0,0.1,0.1,0.2,0.1C83.5,36.1,83.5,36.1,83.4,36.1z"/>
		<path class="st3" d="M33.2,73c0,0,0,0.1,0,0.1C33.2,73.1,33.2,73.1,33.2,73C33.2,73,33.2,73,33.2,73z"/>
		<path class="st3" d="M34.8,80c0.1,0.2,0.1,0.3,0.2,0.5c0,0,0-0.1,0-0.1C34.9,80.3,34.9,80.2,34.8,80z"/>
		<path class="st3" d="M70.4,32.8c0.2,0,0.4,0,0.6,0C70.8,32.8,70.6,32.8,70.4,32.8z"/>
		<path class="st3" d="M72.3,33c0.2,0,0.5,0.1,0.7,0.1C72.8,33,72.5,33,72.3,33z"/>
		<path class="st3" d="M33.5,75C33.5,75,33.5,75,33.5,75C33.5,75,33.5,75,33.5,75C33.5,75,33.5,75,33.5,75z"/>
		<path class="st3" d="M77.9,34c0.2,0.1,0.4,0.1,0.6,0.2C78.3,34.1,78.1,34.1,77.9,34z"/>
		<path class="st3" d="M81.5,35.2c0.1,0.1,0.3,0.1,0.4,0.2C81.8,35.4,81.7,35.3,81.5,35.2z"/>
		<path class="st3" d="M76,33.6c0.2,0.1,0.5,0.1,0.7,0.2C76.5,33.7,76.3,33.6,76,33.6z"/>
		<path class="st3" d="M41.9,92.2c-0.1-0.1-0.1-0.1-0.2-0.2C41.8,92,41.9,92.1,41.9,92.2z"/>
		<path class="st3" d="M40.7,90.8c-0.1-0.1-0.2-0.2-0.3-0.3C40.6,90.6,40.6,90.7,40.7,90.8z"/>
		<path class="st3" d="M39.6,89.3c-0.1-0.1-0.2-0.2-0.3-0.4C39.4,89,39.5,89.2,39.6,89.3z"/>
		<path class="st3" d="M33.9,76.9c-0.1-0.2-0.1-0.5-0.2-0.7C33.8,76.4,33.9,76.7,33.9,76.9z"/>
		<path class="st3" d="M80,34.7c0.1,0,0.1,0,0.2,0.1c-0.2-0.1-0.4-0.1-0.5-0.2C79.8,34.6,79.9,34.7,80,34.7C80,34.7,80,34.7,80,34.7
			z"/>
		<polyline class="st3" points="95.5,45.3 95.4,45.2 95.5,45.3 		"/>
		<path class="st3" d="M38.5,87.7c-0.1-0.1-0.2-0.3-0.2-0.4C38.4,87.5,38.5,87.6,38.5,87.7z"/>
		<path class="st3" d="M34.4,78.7c-0.1-0.2-0.1-0.4-0.2-0.6C34.3,78.3,34.4,78.5,34.4,78.7z"/>
		<path class="st3" d="M36.5,84.1C36.5,84.1,36.5,84,36.5,84.1C36.5,84,36.5,84.1,36.5,84.1z"/>
		<path class="st3" d="M74.7,33.3c0.1,0,0.1,0,0.2,0c-0.2,0-0.5-0.1-0.7-0.1c0.1,0,0.3,0,0.4,0.1C74.6,33.3,74.7,33.3,74.7,33.3z"/>
		<path class="st3" d="M37.5,86c-0.1-0.1-0.1-0.2-0.2-0.3C37.4,85.8,37.5,85.9,37.5,86z"/>
		<path class="st3" d="M35.7,82.3C35.7,82.2,35.7,82.2,35.7,82.3C35.7,82.2,35.7,82.2,35.7,82.3z"/>
		<path class="st3" d="M91.5,41.3C91.5,41.3,91.5,41.3,91.5,41.3C91.5,41.3,91.5,41.3,91.5,41.3z"/>
		<path class="st3" d="M92.8,42.5C92.9,42.5,92.9,42.5,92.8,42.5C92.9,42.5,92.9,42.5,92.8,42.5z"/>
		<path class="st3" d="M94.2,43.8C94.2,43.8,94.2,43.9,94.2,43.8C94.2,43.9,94.2,43.8,94.2,43.8z"/>
		<path class="st3" d="M93.8,43.4c-0.3-0.3-0.6-0.6-0.9-0.9c0,0,0,0-0.1-0.1c-0.2-0.2-0.5-0.4-0.7-0.6
			C92.7,42.4,93.2,42.9,93.8,43.4z"/>
		<path class="st3" d="M91.7,41.5c-0.1-0.1-0.2-0.2-0.3-0.2c0,0,0,0,0,0c-0.6-0.5-1.1-0.9-1.7-1.4C90.4,40.4,91.1,41,91.7,41.5z"/>
		<path class="st3" d="M83.8,36.3c-0.1,0-0.1-0.1-0.2-0.1c-0.1,0-0.1-0.1-0.2-0.1c-0.2-0.1-0.4-0.2-0.5-0.2
			C83.2,36,83.5,36.1,83.8,36.3z"/>
		<path class="st3" d="M46.6,40.3c-0.7,0.5-1.3,1-1.9,1.6c0.1-0.1,0.1-0.1,0.2-0.2C45.4,41.2,46,40.8,46.6,40.3z"/>
		<path class="st3" d="M32.9,68.5c0,0.7,0,1.3,0.1,2c0,0,0,0.1,0,0.1C33,69.8,32.9,69.1,32.9,68.5z"/>
		<path class="st3" d="M33.4,62.5c0.3-1.8,0.8-3.6,1.3-5.4c-0.8,2.3-1.3,4.7-1.6,7.1c0.1-0.5,0.1-1,0.2-1.5
			C33.4,62.7,33.4,62.6,33.4,62.5z"/>
		<path class="st3" d="M40.3,90.2c0.1,0.1,0.1,0.2,0.2,0.3c0.1,0.1,0.2,0.2,0.3,0.3c0,0,0,0,0,0C40.6,90.6,40.4,90.4,40.3,90.2z"/>
		<path class="st3" d="M35,80.4C35,80.4,35,80.4,35,80.4C35,80.5,35,80.5,35,80.4c0.2,0.6,0.4,1.2,0.7,1.7c0,0,0,0.1,0,0.1
			c0.3,0.6,0.5,1.2,0.8,1.8c0,0,0,0,0,0c0.3,0.6,0.6,1.1,0.9,1.6c0.1,0.1,0.1,0.2,0.2,0.3c0,0,0,0,0,0C36.5,84.3,35.7,82.4,35,80.4z
			"/>
		<path class="st3" d="M39.1,88.5c0.1,0.1,0.2,0.2,0.2,0.4c0.1,0.1,0.2,0.3,0.3,0.4c0,0,0,0.1,0.1,0.1
			C39.5,89.1,39.3,88.8,39.1,88.5z"/>
		<path class="st3" d="M33.2,73C33.2,73.1,33.2,73.1,33.2,73c0.1,0.4,0.1,0.8,0.2,1.2c0,0.1,0.1,0.3,0.1,0.4
			C33.4,74.2,33.3,73.6,33.2,73z"/>
		<path class="st3" d="M37.6,86.1c0.2,0.4,0.5,0.8,0.7,1.2c0.1,0.1,0.2,0.3,0.2,0.4c0,0,0,0,0,0.1C38.2,87.2,37.9,86.7,37.6,86.1z"
			/>
		<path class="st3" d="M78.6,34.2c0,0-0.1,0-0.1,0c-0.2-0.1-0.4-0.1-0.6-0.2c-0.1,0-0.2,0-0.3-0.1C77.9,34,78.3,34.1,78.6,34.2z"/>
		<path class="st3" d="M73.1,33.1C73,33.1,73,33,73.1,33.1c-0.3,0-0.5-0.1-0.8-0.1c-0.1,0-0.2,0-0.4,0C72.3,33,72.7,33,73.1,33.1z"
			/>
		<path class="st3" d="M33.5,75C33.5,75,33.5,75,33.5,75c0.1,0.4,0.2,0.8,0.2,1.2c0.1,0.2,0.1,0.5,0.2,0.7c0,0,0,0,0,0
			C33.8,76.3,33.7,75.7,33.5,75z"/>
		<path class="st3" d="M80,34.7c-0.1,0-0.2-0.1-0.3-0.1c-0.2-0.1-0.4-0.1-0.6-0.2C79.4,34.5,79.7,34.6,80,34.7z"/>
		<path class="st3" d="M74.6,33.3c-0.1,0-0.3,0-0.4-0.1c-0.2,0-0.4-0.1-0.6-0.1C73.9,33.2,74.2,33.2,74.6,33.3z"/>
		<path class="st3" d="M77.1,33.8c-0.1,0-0.2-0.1-0.4-0.1c-0.2-0.1-0.5-0.1-0.7-0.2c-0.4-0.1-0.8-0.2-1.2-0.2c-0.1,0-0.1,0-0.2,0
			C75.5,33.5,76.3,33.6,77.1,33.8z"/>
		<path class="st3" d="M82.1,35.5c0,0-0.1,0-0.1-0.1c-0.1-0.1-0.3-0.1-0.4-0.2c-0.2-0.1-0.3-0.1-0.5-0.2
			C81.4,35.2,81.7,35.3,82.1,35.5z"/>
		<path class="st3" d="M84.9,36.8c0.8,0.4,1.6,0.9,2.3,1.3C86.4,37.7,85.7,37.2,84.9,36.8z"/>
		<path class="st3" d="M33,71C33,71,33,71,33,71c0,0.5,0.1,0.9,0.1,1.4c0,0.1,0,0.1,0,0.2C33.1,72.1,33.1,71.5,33,71z"/>
		<path class="st3" d="M34.1,77.5c0,0.2,0.1,0.4,0.1,0.6c0.1,0.2,0.1,0.4,0.2,0.6c0.1,0.3,0.2,0.6,0.3,0.9
			C34.5,79,34.3,78.2,34.1,77.5z"/>
		<path class="st3" d="M71.5,32.9c-0.2,0-0.3,0-0.5,0c-0.2,0-0.4,0-0.6,0c-0.4,0-0.8,0-1.2,0C69.9,32.8,70.7,32.8,71.5,32.9z"/>
		<path class="st3" d="M33,66.7c0-0.5,0.1-1.1,0.1-1.6C33,65.6,33,66.1,33,66.7z"/>
		<path class="st3" d="M87.5,38.3c0.7,0.4,1.3,0.9,2,1.4C88.8,39.2,88.1,38.7,87.5,38.3z"/>
		<path class="st3" d="M62.3,33.3c0.5-0.1,1-0.2,1.6-0.2C63.4,33.1,62.8,33.2,62.3,33.3z"/>
		<path class="st3" d="M60.4,33.7c0.5-0.1,1-0.2,1.5-0.3C61.4,33.5,60.9,33.6,60.4,33.7z"/>
		<path class="st3" d="M58.4,34.2c0.5-0.2,1.1-0.3,1.6-0.4C59.5,33.9,59,34,58.4,34.2z"/>
		<path class="st3" d="M64.2,33c0.6-0.1,1.1-0.1,1.7-0.2C65.4,32.9,64.8,32.9,64.2,33z"/>
		<path class="st3" d="M52.9,36.4c1.7-0.8,3.5-1.6,5.4-2.1C56.4,34.8,54.6,35.5,52.9,36.4z"/>
		<path class="st3" d="M46,96.2C46.1,96.2,46.1,96.2,46,96.2c-0.1-0.1-0.2-0.1-0.3-0.2C45.9,96,45.9,96.1,46,96.2z"/>
		<path class="st3" d="M66.2,32.8c0.6,0,1.3-0.1,1.9-0.1C67.5,32.8,66.8,32.8,66.2,32.8z"/>
		<path class="st3" d="M34.8,57.1c0.6-1.7,1.3-3.4,2.1-5C36.1,53.7,35.4,55.3,34.8,57.1z"/>
		<path class="st3" d="M43.4,93.8c-0.7-0.7-1.3-1.3-1.9-2.1c0.1,0.1,0.1,0.2,0.2,0.2c0.1,0.1,0.1,0.1,0.2,0.2
			C42.4,92.7,42.9,93.3,43.4,93.8z"/>
		<path class="st3" d="M33.1,64.9c0-0.2,0.1-0.4,0.1-0.7C33.2,64.5,33.1,64.7,33.1,64.9z"/>
		<path class="st3" d="M37.2,51.5c0.5-0.8,0.9-1.7,1.5-2.5C38.1,49.9,37.6,50.7,37.2,51.5z"/>
		<path class="st3" d="M40.6,46.3c0.6-0.7,1.1-1.4,1.7-2.1C41.8,44.9,41.2,45.6,40.6,46.3z"/>
		<path class="st3" d="M94.5,44.2c0.3,0.4,0.7,0.7,1,1.1c0,0,0,0,0,0c0,0,0,0,0,0C95.1,44.9,94.8,44.5,94.5,44.2z"/>
		<path class="st3" d="M38.8,48.8c0.5-0.8,1-1.5,1.6-2.2C39.8,47.3,39.3,48.1,38.8,48.8z"/>
		<path class="st3" d="M42.6,44c0.6-0.7,1.3-1.3,2-2C43.9,42.6,43.2,43.3,42.6,44z"/>
		<path class="st3" d="M46.7,40.2c1.8-1.4,3.7-2.6,5.8-3.7C50.4,37.6,48.5,38.8,46.7,40.2z"/>
		<path class="st3" d="M43.6,94c0.6,0.6,1.3,1.2,2,1.8C44.9,95.2,44.2,94.6,43.6,94z"/>
		<polygon class="st3" points="46,96.2 46,96.2 46,96.2 		"/>
		<polygon class="st3" points="46,96.2 46,96.2 46,96.2 		"/>
		<path class="st3" d="M33.4,74.3c-0.1-0.4-0.1-0.8-0.2-1.2C33.3,73.5,33.3,73.9,33.4,74.3z"/>
		<path class="st3" d="M81,35.1c0.2,0.1,0.3,0.1,0.5,0.2c-0.4-0.2-0.8-0.3-1.2-0.5c0.1,0,0.1,0,0.2,0.1C80.7,34.9,80.9,35,81,35.1z"
			/>
		<path class="st3" d="M38.8,88.1c0.2,0.3,0.4,0.5,0.5,0.8c-0.1-0.1-0.2-0.2-0.2-0.4C39,88.4,38.9,88.3,38.8,88.1z"/>
		<path class="st3" d="M82.9,35.8c0.2,0.1,0.4,0.2,0.5,0.2c-0.5-0.2-1-0.4-1.5-0.6c0,0,0.1,0,0.1,0.1C82.4,35.6,82.6,35.7,82.9,35.8
			z"/>
		<path class="st3" d="M70.4,32.8c-0.5,0-1,0-1.5,0c0.1,0,0.2,0,0.2,0C69.6,32.8,70,32.8,70.4,32.8z"/>
		<path class="st3" d="M41.4,91.6c-0.2-0.2-0.3-0.4-0.5-0.6C41.1,91.2,41.3,91.4,41.4,91.6z"/>
		<path class="st3" d="M73.1,33.1c0,0-0.1,0-0.1,0C73,33,73,33.1,73.1,33.1C73.1,33.1,73.1,33.1,73.1,33.1z"/>
		<path class="st3" d="M71.9,32.9c0.1,0,0.2,0,0.4,0c-0.4,0-0.9-0.1-1.3-0.1c0.2,0,0.3,0,0.5,0C71.6,32.9,71.8,32.9,71.9,32.9z"/>
		<path class="st3" d="M74.2,33.2c-0.3,0-0.6-0.1-0.9-0.1c0.1,0,0.2,0,0.3,0C73.7,33.2,74,33.2,74.2,33.2z"/>
		<path class="st3" d="M33,70.4c0-0.7-0.1-1.3-0.1-2C32.9,69.1,32.9,69.8,33,70.4z"/>
		<path class="st3" d="M95.4,45.2c-0.4-0.5-0.8-0.9-1.2-1.4c0.1,0.1,0.2,0.2,0.2,0.3C94.8,44.5,95.1,44.9,95.4,45.2z"/>
		<path class="st3" d="M79.1,34.4c0.2,0.1,0.4,0.1,0.6,0.2c-0.4-0.1-0.8-0.3-1.2-0.4c0,0,0.1,0,0.1,0C78.8,34.3,78.9,34.3,79.1,34.4
			z"/>
		<path class="st3" d="M39.6,89.3c0.1,0.1,0.1,0.2,0.2,0.3C39.8,89.5,39.7,89.4,39.6,89.3C39.6,89.3,39.6,89.3,39.6,89.3z"/>
		<path class="st3" d="M77.6,34c0.1,0,0.2,0,0.3,0.1c-0.4-0.1-0.8-0.2-1.2-0.3c0.1,0,0.2,0.1,0.4,0.1C77.3,33.9,77.4,33.9,77.6,34z"
			/>
		<path class="st3" d="M40.7,90.8c0.1,0.1,0.1,0.2,0.2,0.2C40.9,90.9,40.8,90.9,40.7,90.8C40.8,90.8,40.7,90.8,40.7,90.8z"/>
		<path class="st3" d="M39.8,89.6c0.2,0.3,0.4,0.6,0.6,0.8c-0.1-0.1-0.1-0.2-0.2-0.3C40.1,90,40,89.8,39.8,89.6z"/>
		<path class="st3" d="M33.8,76.2c-0.1-0.4-0.2-0.8-0.2-1.2C33.6,75.4,33.7,75.8,33.8,76.2z"/>
		<path class="st3" d="M33.1,72.4c0-0.4-0.1-0.9-0.1-1.3C33.1,71.5,33.1,71.9,33.1,72.4z"/>
		<path class="st3" d="M36.5,84c-0.3-0.6-0.6-1.2-0.8-1.8C35.9,82.9,36.2,83.5,36.5,84z"/>
		<path class="st3" d="M74.9,33.3c0.4,0.1,0.8,0.1,1.2,0.2C75.6,33.5,75.3,33.4,74.9,33.3z"/>
		<path class="st3" d="M34,77.2c0-0.1,0-0.2-0.1-0.3c0,0,0,0,0,0s0,0,0,0c0.1,0.4,0.2,0.8,0.3,1.2c-0.1-0.2-0.1-0.4-0.1-0.6
			C34.1,77.4,34,77.3,34,77.2z"/>
		<path class="st3" d="M35.6,82.2c-0.2-0.5-0.4-1.1-0.6-1.6C35.2,81.1,35.4,81.6,35.6,82.2z"/>
		<path class="st3" d="M41.4,91.6c0.1,0.1,0.2,0.2,0.3,0.3c-0.1-0.1-0.1-0.2-0.2-0.2C41.5,91.7,41.5,91.7,41.4,91.6z"/>
		<path class="st3" d="M37.3,85.7c-0.3-0.5-0.6-1.1-0.9-1.6C36.8,84.6,37,85.2,37.3,85.7z"/>
		<path class="st3" d="M37.5,86C37.5,86,37.5,86,37.5,86C37.5,86,37.5,86,37.5,86C37.5,86,37.5,86,37.5,86z"/>
		<path class="st3" d="M45.6,95.8c-0.7-0.6-1.3-1.2-2-1.8c-0.1-0.1-0.1-0.1-0.2-0.2c-0.5-0.5-1-1-1.5-1.6c1.3,1.4,2.6,2.8,4.1,4
			c0,0,0,0,0,0c-0.1-0.1-0.2-0.2-0.3-0.2C45.7,95.9,45.6,95.8,45.6,95.8z"/>
		<path class="st3" d="M37.6,86.1c0.2,0.4,0.5,0.8,0.7,1.2C38.1,86.9,37.8,86.5,37.6,86.1C37.6,86.1,37.6,86.1,37.6,86.1z"/>
		<path class="st3" d="M94,43.6c-0.4-0.4-0.7-0.7-1.1-1.1c0.3,0.3,0.6,0.6,0.9,0.9C93.8,43.5,93.9,43.6,94,43.6z"/>
		<path class="st3" d="M38.5,87.7c0,0,0,0.1,0.1,0.1C38.6,87.8,38.6,87.8,38.5,87.7C38.6,87.7,38.5,87.7,38.5,87.7z"/>
		<path class="st3" d="M34.4,78.7c0.1,0.3,0.2,0.7,0.3,1c0,0,0-0.1,0-0.1C34.6,79.3,34.5,79,34.4,78.7z"/>
		<path class="st3" d="M92.8,42.5c-0.3-0.3-0.6-0.6-0.9-0.9c0.1,0.1,0.2,0.2,0.2,0.2C92.4,42.1,92.6,42.3,92.8,42.5z"/>
		<path class="st3" d="M87.2,38.1c0.1,0.1,0.2,0.1,0.3,0.2c0.7,0.4,1.3,0.9,2,1.4c0.1,0.1,0.2,0.2,0.3,0.2c0.6,0.4,1.1,0.9,1.7,1.4
			c-2-1.7-4.3-3.3-6.7-4.5c0,0,0.1,0,0.1,0.1C85.7,37.2,86.4,37.7,87.2,38.1z"/>
		<path class="st3" d="M84.1,36.4c-0.2-0.1-0.3-0.2-0.5-0.2c0.1,0,0.2,0.1,0.2,0.1C83.9,36.3,84,36.3,84.1,36.4z"/>
		<path class="st3" d="M91.9,41.6c-0.1-0.1-0.3-0.2-0.4-0.4c0.1,0.1,0.2,0.2,0.3,0.2C91.8,41.6,91.8,41.6,91.9,41.6z"/>
		<polygon class="st4" points="91.1,95.9 91.1,95.9 91.1,95.9 		"/>
		<path class="st4" d="M89.2,97.4c-0.1,0.1-0.2,0.2-0.3,0.2C89,97.6,89.1,97.5,89.2,97.4z"/>
		<path class="st4" d="M84.8,100.2c-0.1,0.1-0.2,0.1-0.4,0.2C84.5,100.3,84.6,100.2,84.8,100.2z"/>
		<path class="st3" d="M46.5,88.8c-2.1,0-4,1.1-5.1,2.8c0,0,0.1,0.1,0.1,0.1c0.6,0.7,1.2,1.4,1.9,2.1c0.1,0.1,0.1,0.1,0.2,0.2
			c0.6,0.6,1.3,1.2,2,1.8c0.1,0.1,0.1,0.1,0.2,0.2c0.1,0.1,0.2,0.2,0.3,0.2c1.9,0.6,3.9,1,6,1.2c0.3-0.8,0.5-1.6,0.5-2.5
			C52.6,91.5,49.9,88.8,46.5,88.8z"/>
		<path class="st3" d="M41.4,91.6L41.4,91.6L41.4,91.6z"/>
		<path class="st3" d="M45.6,95.8c0.1,0.1,0.1,0.1,0.2,0.2C45.7,95.9,45.6,95.8,45.6,95.8z"/>
		<path class="st3" d="M41.4,91.6C41.4,91.6,41.4,91.6,41.4,91.6L41.4,91.6c0,0,0.1,0.1,0.1,0.1C41.5,91.7,41.5,91.7,41.4,91.6z"/>
		<path class="st3" d="M43.6,94c-0.1-0.1-0.1-0.1-0.2-0.2C43.5,93.8,43.5,93.9,43.6,94z"/>
		<ellipse class="st3" cx="60.2" cy="56.5" rx="6.1" ry="6.1"/>
		<path class="st3" d="M35,80.4c0.7,2,1.5,3.8,2.6,5.6c0,0,0,0.1,0.1,0.1c0.3,0.6,0.6,1.1,1,1.6c0,0,0,0,0,0
			c0.2-0.5,0.2-1.1,0.2-1.7C38.8,83.5,37.2,81.3,35,80.4z"/>
		<polygon class="st3" points="38.6,87.8 38.6,87.8 38.6,87.8 		"/>
		<path class="st3" d="M37.6,86.1C37.6,86.1,37.5,86.1,37.6,86.1C37.5,86.1,37.6,86.1,37.6,86.1z"/>
		<path class="st3" d="M38.6,87.8C38.6,87.8,38.6,87.8,38.6,87.8C38.6,87.8,38.6,87.8,38.6,87.8C38.6,87.8,38.6,87.8,38.6,87.8
			C38.6,87.8,38.6,87.8,38.6,87.8z"/>
		<path class="st3" d="M37.5,86C37.5,86,37.5,86,37.5,86C37.5,86.1,37.6,86.1,37.5,86C37.6,86.1,37.6,86.1,37.5,86
			C37.6,86.1,37.6,86.1,37.5,86z"/>
		<path class="st4" d="M57.1,102.3c-0.1,0-0.2-0.1-0.2-0.1C56.9,102.2,57,102.3,57.1,102.3z"/>
		<path class="st4" d="M55.7,101.8c-0.1,0-0.2-0.1-0.2-0.1C55.5,101.7,55.6,101.7,55.7,101.8z"/>
		<path class="st4" d="M54.3,101.2L54.3,101.2L54.3,101.2z"/>
		<path class="st3" d="M55.4,97.6c3,0,6-0.3,8.9-0.9c-1.1-1-2.5-1.6-4.1-1.6C58.3,95,56.5,96,55.4,97.6z"/>
		<ellipse class="st3" cx="60.3" cy="70.9" rx="6.1" ry="6.1"/>
		<ellipse class="st3" cx="60.3" cy="86.2" rx="6.1" ry="6.1"/>
		<ellipse class="st3" cx="46.5" cy="65.2" rx="6.1" ry="6.1"/>
		<ellipse class="st3" cx="46.5" cy="79.6" rx="6.1" ry="6.1"/>
		<path class="st4" d="M103.6,63.5c0,0.2,0,0.3,0.1,0.5C103.7,63.8,103.7,63.7,103.6,63.5z"/>
		<path class="st4" d="M103.9,65.7c0,0.2,0,0.4,0,0.6C103.9,66.1,103.9,65.9,103.9,65.7z"/>
		<path class="st4" d="M104,68.5c0,0.5,0,1,0,1.5C104,69.4,104,68.9,104,68.5z"/>
		<path class="st4" d="M103.9,71.2L103.9,71.2L103.9,71.2z"/>
		<path class="st3" d="M82.2,41.7c0,3.4,2.7,6.1,6.1,6.1c2.7,0,5-1.8,5.7-4.2c-0.1-0.1-0.1-0.1-0.2-0.2c-0.5-0.5-1.1-1-1.6-1.5
			c-0.1-0.1-0.3-0.2-0.4-0.4c-0.6-0.6-1.3-1.1-2-1.6c-0.1-0.1-0.2-0.2-0.3-0.2c-0.6-0.5-1.3-0.9-2-1.4c-0.1-0.1-0.2-0.1-0.3-0.2
			c-0.8-0.5-1.5-0.9-2.3-1.3c0,0-0.1,0-0.1-0.1C83.2,37.8,82.2,39.7,82.2,41.7z"/>
		<path class="st3" d="M91.9,41.6C91.9,41.6,91.9,41.6,91.9,41.6C91.9,41.6,91.9,41.6,91.9,41.6z"/>
		<polygon class="st3" points="84.8,36.7 84.8,36.7 84.8,36.7 		"/>
		<path class="st3" d="M94,43.6L94,43.6L94,43.6z"/>
		<path class="st3" d="M84.8,36.7c0,0,0.1,0,0.1,0.1C84.8,36.8,84.8,36.8,84.8,36.7C84.8,36.7,84.8,36.7,84.8,36.7
			C84.8,36.7,84.8,36.7,84.8,36.7z"/>
		<path class="st3" d="M92.1,41.9c-0.1-0.1-0.2-0.2-0.2-0.2c0,0,0,0,0,0c0,0-0.1-0.1-0.1-0.1C91.9,41.6,92,41.7,92.1,41.9z"/>
		<path class="st3" d="M87.2,38.1c0.1,0.1,0.2,0.1,0.3,0.2C87.4,38.2,87.3,38.2,87.2,38.1z"/>
		<path class="st3" d="M94,43.6C94,43.6,94,43.6,94,43.6L94,43.6c-0.1-0.1-0.1-0.1-0.2-0.2C93.8,43.5,93.9,43.6,94,43.6z"/>
		<path class="st3" d="M89.4,39.7c0.1,0.1,0.2,0.2,0.3,0.2C89.7,39.8,89.6,39.7,89.4,39.7z"/>
		<path class="st3" d="M33.5,74.7c0,0,0,0.1,0,0.1c0,0,0,0.1,0,0.1c0,0,0,0,0,0C33.5,74.9,33.5,74.8,33.5,74.7z"/>
		<path class="st3" d="M33,70.5c0,0,0,0.1,0,0.1c0,0.1,0,0.2,0,0.3c0,0,0,0.1,0,0.1C33,70.8,33,70.7,33,70.5z"/>
		<path class="st3" d="M33.2,72.6c0,0.1,0,0.1,0,0.2c0,0.1,0,0.1,0,0.2c0,0,0,0.1,0,0.1C33.2,72.9,33.2,72.7,33.2,72.6z"/>
		<path class="st3" d="M33,71c0,0.5,0.1,1.1,0.1,1.6c0,0.2,0,0.3,0.1,0.5c0.1,0.6,0.2,1.1,0.3,1.7c0,0.1,0,0.2,0,0.3
			c0.1,0.6,0.3,1.3,0.4,1.9c0,0,0,0,0,0c2.8-0.6,4.8-3,4.8-6c0-3.2-2.5-5.9-5.7-6.1c0,0,0,0.1,0,0.1C33,65.6,33,66.1,33,66.7
			c0,0.6,0,1.2,0,1.8c0,0.7,0,1.4,0.1,2.1C33,70.7,33,70.8,33,71z"/>
		<path class="st3" d="M33,70.9c0-0.1,0-0.2,0-0.3C33,70.7,33,70.8,33,70.9z"/>
		<path class="st3" d="M32.9,68.5c0-0.6,0-1.2,0-1.8C32.9,67.3,32.9,67.9,32.9,68.5z"/>
		<path class="st3" d="M33.1,64.9c0,0,0,0.1,0,0.1C33.1,65,33.1,65,33.1,64.9L33.1,64.9z"/>
		<path class="st3" d="M33.5,75C33.5,74.9,33.5,74.9,33.5,75C33.5,74.9,33.5,74.9,33.5,75z"/>
		<path class="st3" d="M33.2,73c0-0.1,0-0.1,0-0.2C33.2,72.8,33.2,72.9,33.2,73z"/>
		<path class="st3" d="M33.9,76.9C33.9,76.9,33.9,77,33.9,76.9L33.9,76.9C34,77,33.9,76.9,33.9,76.9z"/>
		<path class="st4" d="M103.3,75.5c0.1-0.5,0.2-1.1,0.3-1.6l0,0C103.5,74.4,103.4,75,103.3,75.5z"/>
		<path class="st4" d="M101.7,81c-0.1,0.2-0.1,0.3-0.2,0.5C101.6,81.4,101.6,81.2,101.7,81z"/>
		<path class="st4" d="M103.2,76.1c-0.1,0.3-0.1,0.7-0.2,1C103,76.8,103.1,76.5,103.2,76.1z"/>
		<path class="st4" d="M102.3,79.5c-0.1,0.2-0.2,0.5-0.2,0.7C102.1,79.9,102.2,79.7,102.3,79.5z"/>
		<path class="st4" d="M102.7,77.9c-0.1,0.3-0.2,0.5-0.2,0.8C102.6,78.4,102.7,78.1,102.7,77.9z"/>
		<path class="st4" d="M99.9,51.8C99.9,51.8,99.9,51.9,99.9,51.8C99.9,51.9,99.9,51.8,99.9,51.8z"/>
		<path class="st4" d="M101.9,56.4L101.9,56.4L101.9,56.4z"/>
		<polygon class="st4" points="97.3,47.7 97.3,47.7 97.3,47.7 		"/>
		<path class="st4" d="M100.9,54c0,0.1,0.1,0.1,0.1,0.2C101,54.1,101,54,100.9,54z"/>
		<path class="st3" d="M96.7,50.5c0,0.5,0.1,0.9,0.2,1.4C96.8,51.4,96.8,50.9,96.7,50.5z"/>
		<polygon class="st3" points="80,34.7 80,34.7 80,34.7 		"/>
		<path class="st3" d="M74.6,33.3c0.1,0,0.1,0,0.2,0C74.7,33.3,74.6,33.3,74.6,33.3z"/>
		<path class="st3" d="M79.1,34.4c-0.2,0-0.3-0.1-0.5-0.1c-0.3-0.1-0.7-0.2-1-0.3c-0.2,0-0.3-0.1-0.5-0.1c-0.8-0.2-1.6-0.4-2.4-0.5
			c-0.1,0-0.1,0-0.2,0c-0.3-0.1-0.7-0.1-1-0.2c-0.2,0-0.3,0-0.5-0.1c-0.4,0-0.8-0.1-1.1-0.1c-0.2,0-0.3,0-0.5,0
			c-0.8-0.1-1.5-0.1-2.3-0.1c-0.1,0-0.2,0-0.3,0c-0.5,0.9-0.9,2-0.9,3.1c0,3.4,2.7,6.1,6.1,6.1c3.3,0,6.1-2.7,6.1-6.1
			c0-0.4,0-0.8-0.1-1.2c0,0,0,0,0,0C79.7,34.6,79.4,34.5,79.1,34.4z"/>
		<path class="st3" d="M73.1,33.1c0,0,0.1,0,0.1,0C73.2,33.1,73.2,33.1,73.1,33.1z"/>
		<polygon class="st3" points="68.9,32.8 68.9,32.8 68.9,32.8 		"/>
		<path class="st3" d="M77.1,33.8c0.2,0,0.3,0.1,0.5,0.1C77.4,33.9,77.3,33.9,77.1,33.8z"/>
		<path class="st3" d="M78.6,34.2c0.2,0,0.3,0.1,0.5,0.1C78.9,34.3,78.8,34.3,78.6,34.2z"/>
		<path class="st3" d="M68.9,32.8c0.1,0,0.2,0,0.3,0C69.1,32.8,69,32.8,68.9,32.8C68.9,32.8,68.9,32.8,68.9,32.8
			C68.9,32.8,68.9,32.8,68.9,32.8z"/>
		<path class="st3" d="M73.5,33.1c-0.1,0-0.2,0-0.3,0c0,0-0.1,0-0.1,0c0,0,0,0-0.1,0C73.2,33.1,73.4,33.1,73.5,33.1z"/>
		<path class="st3" d="M71.5,32.9c0.2,0,0.3,0,0.5,0C71.8,32.9,71.6,32.9,71.5,32.9z"/>
		<path class="st3" d="M38.8,56.5c0-1.7-0.7-3.3-1.9-4.4c0,0,0,0,0,0c-0.8,1.6-1.5,3.3-2.1,5c0,0,0,0,0,0c-0.6,1.7-1,3.5-1.3,5.4
			C36.4,62.1,38.8,59.6,38.8,56.5z"/>
		<path class="st3" d="M36.9,52.1L36.9,52.1L36.9,52.1z"/>
		<path class="st3" d="M34.8,57.1C34.8,57.1,34.8,57.1,34.8,57.1C34.8,57.1,34.8,57.1,34.8,57.1z"/>
		<path class="st3" d="M46.5,42c3.1,0,5.7-2.4,6-5.4c0,0,0,0,0,0c-2,1-4,2.3-5.8,3.7c0,0-0.1,0.1-0.1,0.1c-0.6,0.5-1.2,0.9-1.7,1.4
			C45.4,41.9,45.9,42,46.5,42z"/>
		<path class="st3" d="M46.6,40.3C46.6,40.3,46.7,40.3,46.6,40.3C46.7,40.3,46.6,40.3,46.6,40.3z"/>
		<polygon class="st3" points="52.5,36.6 52.5,36.6 52.5,36.6 		"/>
		<ellipse class="st3" cx="46.5" cy="50.4" rx="6.1" ry="6.1"/>
		<path class="st3" d="M88.2,64.9c-3.3,0-6.1,2.7-6.1,6.1c0,3.4,2.7,6.1,6.1,6.1c1.4,0,2.7-0.5,3.7-1.3c0.9-1.6,1.7-3.3,2.4-4.9
			C94.2,67.6,91.5,64.9,88.2,64.9z"/>
		<path class="st3" d="M89.1,80.2c-0.3,0-0.6-0.1-0.8-0.1c-3.3,0-6.1,2.7-6.1,6.1c0,0.4,0,0.9,0.1,1.3c0.9-0.7,1.7-1.5,2.5-2.3
			C86.4,83.6,87.8,82,89.1,80.2z"/>
		<ellipse class="st3" cx="74.1" cy="50.4" rx="6.1" ry="6.1"/>
		<ellipse class="st3" cx="88.3" cy="56.4" rx="6.1" ry="6.1"/>
		<ellipse class="st3" cx="74.2" cy="79.7" rx="6.1" ry="6.1"/>
		<ellipse class="st3" cx="74.2" cy="65.1" rx="6.1" ry="6.1"/>
		<path class="st3" d="M74.2,88.8c-3.3,0-6.1,2.7-6.1,6.1c0,0.2,0,0.5,0,0.7c3.5-1.2,7-2.9,10.2-5C77.3,89.5,75.8,88.8,74.2,88.8z"
			/>
		<ellipse class="st3" cx="60.2" cy="41.7" rx="6.1" ry="6.1"/>
		<path class="st4" d="M98.3,87.8c-0.1,0.2-0.2,0.3-0.3,0.5C98.1,88.1,98.2,88,98.3,87.8z"/>
		<path class="st4" d="M103.7,73.1L103.7,73.1L103.7,73.1z"/>
		<path class="st4" d="M97.3,89.3c-0.1,0.1-0.2,0.2-0.2,0.3C97.2,89.5,97.2,89.4,97.3,89.3z"/>
		<polygon class="st4" points="70.6,104.1 70.6,104.1 70.6,104.1 		"/>
		<path class="st4" d="M91.7,95.5L91.7,95.5L91.7,95.5z"/>
		<path class="st4" d="M50.8,99.5L50.8,99.5L50.8,99.5z"/>
		<path class="st4" d="M99.2,86.3c-0.1,0.2-0.2,0.4-0.3,0.6C99,86.7,99.1,86.5,99.2,86.3z"/>
		<path class="st4" d="M95.5,45.4C95.6,45.4,95.6,45.4,95.5,45.4C95.6,45.4,95.6,45.4,95.5,45.4z"/>
		<path class="st4" d="M92.9,94.4C92.9,94.4,92.9,94.4,92.9,94.4C92.9,94.4,92.9,94.4,92.9,94.4z"/>
		<path class="st4" d="M96.3,90.7c-0.1,0.1-0.1,0.2-0.2,0.2C96.2,90.8,96.2,90.7,96.3,90.7z"/>
		<path class="st4" d="M52.2,100.2C52.2,100.2,52.2,100.2,52.2,100.2C52.2,100.2,52.2,100.2,52.2,100.2z"/>
		<path class="st4" d="M68.5,104.2c-0.5,0-0.9,0-1.4,0C67.5,104.2,68,104.2,68.5,104.2z"/>
		<path class="st4" d="M95.2,92c0,0-0.1,0.1-0.1,0.1C95.1,92.1,95.1,92,95.2,92z"/>
		<path class="st4" d="M94,93.2C94,93.2,94,93.3,94,93.2C94,93.3,94,93.2,94,93.2z"/>
		<path class="st3" d="M96.7,62.1c0.4-2.8,0.6-5.6,0.4-8.3c-0.7-1-1-2.2-1-3.5c0-0.6,0.1-1.3,0.3-1.9c-0.2-1.1-0.5-2.1-0.8-3.1
			c-0.3-0.4-0.7-0.7-1-1.1c-0.1-0.1-0.2-0.2-0.2-0.3c-0.9,2.5-3.3,4.2-6.1,4.2c-3.6,0-6.5-2.9-6.5-6.6c0-2.1,1-3.9,2.5-5.1
			c-0.1,0-0.2-0.1-0.2-0.1c-0.3-0.2-0.6-0.3-1-0.4c-0.3-0.1-0.5-0.2-0.8-0.3c-0.3-0.1-0.7-0.3-1.1-0.4c-0.2-0.1-0.4-0.1-0.6-0.2
			c0,0.3,0.1,0.5,0.1,0.8c0,3.6-2.9,6.6-6.5,6.6c-3.6,0-6.5-2.9-6.5-6.6c0-1,0.3-2,0.7-2.9c0,0,0,0,0,0c-0.7,0-1.3,0-1.9,0.1
			c-0.1,0-0.2,0-0.3,0c-0.6,0-1.1,0.1-1.7,0.2c-0.1,0-0.2,0-0.3,0c-0.5,0.1-1.1,0.1-1.6,0.2c-0.1,0-0.2,0-0.4,0.1
			c-0.5,0.1-1,0.2-1.5,0.3c-0.1,0-0.2,0.1-0.3,0.1c-0.5,0.1-1.1,0.3-1.6,0.4c-0.1,0-0.2,0-0.2,0.1c-1.9,0.6-3.7,1.3-5.4,2.1
			c0,0,0,0,0,0c-0.3,3.3-3.1,5.9-6.5,5.9c-0.6,0-1.2-0.1-1.8-0.2c0,0,0,0,0,0c-0.7,0.6-1.4,1.3-2,2c-0.1,0.1-0.2,0.2-0.2,0.2
			c-0.6,0.7-1.2,1.3-1.7,2.1c-0.1,0.1-0.2,0.2-0.3,0.3c-0.6,0.7-1.1,1.5-1.6,2.2c-0.1,0.1-0.1,0.2-0.2,0.3c-0.5,0.8-1,1.6-1.5,2.5
			c0,0,0,0,0,0c1.2,1.2,2,2.9,2,4.7c0,3.4-2.5,6.1-5.8,6.5c-0.1,0.5-0.1,1-0.2,1.5c0,0,0,0,0,0c3.4,0.3,6,3.1,6,6.5
			c0,3.1-2.2,5.8-5.1,6.4c0,0.1,0.1,0.2,0.1,0.3c0.2,0.7,0.4,1.4,0.6,2.1c0,0,0,0.1,0,0.1c2.6,0.9,4.4,3.3,4.4,6.2
			c0,0.7-0.1,1.5-0.4,2.1c0.1,0.1,0.2,0.3,0.3,0.4c0.2,0.3,0.4,0.5,0.6,0.8c0.2,0.3,0.4,0.5,0.6,0.8c0.2,0.2,0.3,0.4,0.5,0.7
			c0.1,0.1,0.1,0.1,0.2,0.2c1.2-1.7,3.2-2.9,5.4-2.9c3.6,0,6.5,2.9,6.5,6.6c0,1-0.2,1.9-0.6,2.7c0.8,0.1,1.5,0.1,2.3,0.2
			c1.2-1.9,3.2-3.1,5.5-3.1c1.9,0,3.6,0.8,4.8,2.1c0.9-0.2,1.8-0.5,2.7-0.7c-0.1-0.3-0.1-0.7-0.1-1.1c0-3.6,2.9-6.6,6.5-6.6
			c1.9,0,3.6,0.8,4.8,2.1c1-0.7,2.1-1.5,3.1-2.3c-0.2-0.6-0.3-1.3-0.3-1.9c0-3.6,2.9-6.6,6.5-6.6c0.5,0,1,0.1,1.4,0.2
			c0.7-1,1.4-2.1,2-3.2c-1,0.6-2.2,1-3.5,1c-3.6,0-6.5-2.9-6.5-6.6s2.9-6.6,6.5-6.6c3.3,0,6.1,2.5,6.5,5.8c0.6-1.5,1.1-3.1,1.4-4.6
			c0-0.1,0-0.2,0-0.4C96,64,96.3,63,96.7,62.1z M46.4,86.1c-3.6,0-6.5-2.9-6.5-6.6s2.9-6.6,6.5-6.6s6.5,2.9,6.5,6.6
			S50,86.1,46.4,86.1z M46.4,71.5c-3.6,0-6.5-2.9-6.5-6.6c0-3.6,2.9-6.6,6.5-6.6s6.5,2.9,6.5,6.6C52.9,68.6,50,71.5,46.4,71.5z
			 M46.4,56.8c-3.6,0-6.5-2.9-6.5-6.6c0-3.6,2.9-6.6,6.5-6.6s6.5,2.9,6.5,6.6C52.9,53.9,50,56.8,46.4,56.8z M60.1,92.6
			c-3.6,0-6.5-2.9-6.5-6.6c0-3.6,2.9-6.6,6.5-6.6c3.6,0,6.5,2.9,6.5,6.6C66.7,89.6,63.7,92.6,60.1,92.6z M60.1,77.4
			c-3.6,0-6.5-2.9-6.5-6.6s2.9-6.6,6.5-6.6c3.6,0,6.5,2.9,6.5,6.6S63.7,77.4,60.1,77.4z M60.1,62.8c-3.6,0-6.5-2.9-6.5-6.6
			c0-3.6,2.9-6.6,6.5-6.6c3.6,0,6.5,2.9,6.5,6.6C66.7,59.9,63.7,62.8,60.1,62.8z M60.1,48.1c-3.6,0-6.5-2.9-6.5-6.6
			c0-3.6,2.9-6.6,6.5-6.6c3.6,0,6.5,2.9,6.5,6.6C66.7,45.2,63.7,48.1,60.1,48.1z M74,86.1c-3.6,0-6.5-2.9-6.5-6.6s2.9-6.6,6.5-6.6
			c3.6,0,6.5,2.9,6.5,6.6S77.6,86.1,74,86.1z M74,71.5c-3.6,0-6.5-2.9-6.5-6.6c0-3.6,2.9-6.6,6.5-6.6c3.6,0,6.5,2.9,6.5,6.6
			C80.5,68.6,77.6,71.5,74,71.5z M74,56.8c-3.6,0-6.5-2.9-6.5-6.6c0-3.6,2.9-6.6,6.5-6.6c3.6,0,6.5,2.9,6.5,6.6
			C80.5,53.9,77.6,56.8,74,56.8z M88.1,62.8c-3.6,0-6.5-2.9-6.5-6.6c0-3.6,2.9-6.6,6.5-6.6c3.6,0,6.5,2.9,6.5,6.6
			C94.7,59.9,91.7,62.8,88.1,62.8z"/>
		<path class="st3" d="M39.8,89.6C39.8,89.6,39.8,89.6,39.8,89.6C39.8,89.6,39.8,89.6,39.8,89.6z"/>
		<path class="st3" d="M65.9,32.8c0.1,0,0.2,0,0.3,0C66.1,32.8,66,32.8,65.9,32.8z"/>
		<polygon class="st3" points="94.2,43.9 94.2,43.9 94.2,43.9 		"/>
		<polygon class="st3" points="33.2,64.2 33.2,64.3 33.2,64.3 		"/>
		<path class="st3" d="M44.6,42L44.6,42L44.6,42z"/>
		<polygon class="st3" points="37.2,51.5 37.2,51.5 37.2,51.5 		"/>
		<polygon class="st3" points="52.9,36.4 52.9,36.4 52.9,36.4 		"/>
		<path class="st3" d="M38.8,88.1L38.8,88.1L38.8,88.1z"/>
		<path class="st3" d="M84.1,36.4L84.1,36.4L84.1,36.4z"/>
		<path class="st3" d="M38.6,49.1c0.1-0.1,0.1-0.2,0.2-0.3C38.7,48.9,38.7,49,38.6,49.1z"/>
		<path class="st3" d="M68.2,32.8L68.2,32.8L68.2,32.8z"/>
		<path class="st3" d="M40.4,46.6c0.1-0.1,0.2-0.2,0.3-0.3C40.5,46.4,40.5,46.5,40.4,46.6z"/>
		<path class="st3" d="M60.1,33.8c0.1,0,0.2-0.1,0.3-0.1C60.3,33.7,60.2,33.7,60.1,33.8z"/>
		<path class="st3" d="M58.2,34.3c0.1,0,0.2,0,0.2-0.1C58.4,34.2,58.3,34.2,58.2,34.3z"/>
		<path class="st3" d="M40.9,91C40.9,91,40.9,91,40.9,91L40.9,91C40.9,91,40.9,91,40.9,91z"/>
		<path class="st3" d="M42.4,44.2c0.1-0.1,0.2-0.2,0.2-0.2C42.5,44.1,42.4,44.1,42.4,44.2z"/>
		<path class="st3" d="M61.9,33.4c0.1,0,0.2,0,0.4-0.1C62.2,33.3,62.1,33.3,61.9,33.4z"/>
		<polygon class="st3" points="34.8,79.8 34.8,79.8 34.8,79.8 		"/>
		<path class="st3" d="M63.9,33c0.1,0,0.2,0,0.4,0C64.1,33,64,33,63.9,33z"/>
		<path class="st3" d="M39.7,89.4c0.1,0.1,0.1,0.2,0.2,0.2c0,0,0,0,0,0c0.1,0.2,0.3,0.4,0.4,0.6C40.1,89.9,39.9,89.6,39.7,89.4z"/>
		<path class="st3" d="M40.9,91c-0.1-0.1-0.1-0.1-0.2-0.2C40.8,90.9,40.9,90.9,40.9,91C40.9,91,40.9,91,40.9,91
			C40.9,91,40.9,91,40.9,91z"/>
		<path class="st3" d="M34.8,79.8c0,0,0-0.1,0-0.1C34.7,79.7,34.7,79.7,34.8,79.8C34.8,79.8,34.8,79.8,34.8,79.8
			C34.8,79.8,34.8,79.8,34.8,79.8z"/>
		<path class="st3" d="M38.8,88.1C38.8,88.1,38.8,88.1,38.8,88.1C38.8,88.1,38.8,88.1,38.8,88.1c0.1,0.2,0.2,0.3,0.3,0.4
			C39,88.4,38.9,88.3,38.8,88.1z"/>
		<path class="st3" d="M34.1,77.5c0-0.1-0.1-0.2-0.1-0.3c0,0,0,0,0,0C34,77.3,34.1,77.4,34.1,77.5z"/>
		<path class="st3" d="M82.9,35.8c-0.3-0.1-0.5-0.2-0.8-0.3C82.4,35.6,82.6,35.7,82.9,35.8z"/>
		<path class="st3" d="M84.1,36.4C84.1,36.4,84.1,36.4,84.1,36.4C84.1,36.4,84.1,36.4,84.1,36.4c-0.1,0-0.2-0.1-0.2-0.1
			C83.9,36.3,84,36.3,84.1,36.4z"/>
		<path class="st3" d="M94.2,43.9c0.1,0.1,0.2,0.2,0.2,0.3C94.4,44.1,94.3,44,94.2,43.9C94.2,43.9,94.2,43.9,94.2,43.9L94.2,43.9z"
			/>
		<path class="st3" d="M80.5,34.9c0.2,0.1,0.4,0.1,0.6,0.2C80.9,35,80.7,34.9,80.5,34.9C80.5,34.9,80.5,34.9,80.5,34.9z"/>
		<path class="st5" d="M60.1,49.7c-3.6,0-6.5,2.9-6.5,6.6c0,3.6,2.9,6.6,6.5,6.6c3.6,0,6.5-2.9,6.5-6.6
			C66.7,52.6,63.7,49.7,60.1,49.7z M60.2,62.5c-3.3,0-6.1-2.7-6.1-6.1c0-3.4,2.7-6.1,6.1-6.1c3.3,0,6.1,2.7,6.1,6.1
			C66.3,59.8,63.6,62.5,60.2,62.5z"/>
		<path class="st5" d="M60.1,35c-3.6,0-6.5,2.9-6.5,6.6c0,3.6,2.9,6.6,6.5,6.6c3.6,0,6.5-2.9,6.5-6.6C66.7,37.9,63.7,35,60.1,35z
			 M60.2,47.8c-3.3,0-6.1-2.7-6.1-6.1c0-3.4,2.7-6.1,6.1-6.1c3.3,0,6.1,2.7,6.1,6.1C66.3,45.1,63.6,47.8,60.2,47.8z"/>
		<path class="st5" d="M60.1,64.2c-3.6,0-6.5,2.9-6.5,6.6s2.9,6.6,6.5,6.6c3.6,0,6.5-2.9,6.5-6.6S63.7,64.2,60.1,64.2z M60.3,77
			c-3.3,0-6.1-2.7-6.1-6.1c0-3.4,2.7-6.1,6.1-6.1c3.3,0,6.1,2.7,6.1,6.1C66.4,74.3,63.6,77,60.3,77z"/>
		<path class="st5" d="M60.1,79.4c-3.6,0-6.5,2.9-6.5,6.6c0,3.6,2.9,6.6,6.5,6.6c3.6,0,6.5-2.9,6.5-6.6
			C66.7,82.4,63.7,79.4,60.1,79.4z M60.3,92.3c-3.3,0-6.1-2.7-6.1-6.1c0-3.4,2.7-6.1,6.1-6.1c3.3,0,6.1,2.7,6.1,6.1
			C66.4,89.5,63.6,92.3,60.3,92.3z"/>
		<path class="st5" d="M38.8,56.5c0,3.1-2.3,5.7-5.3,6c0,0.1,0,0.2-0.1,0.3c3.3-0.4,5.8-3.2,5.8-6.5c0-1.9-0.8-3.5-2-4.7
			c-0.1,0.2-0.2,0.3-0.3,0.5C38.1,53.2,38.8,54.7,38.8,56.5z"/>
		<path class="st5" d="M37.2,51.5L37.2,51.5c-0.1,0.2-0.2,0.3-0.3,0.5l0,0C37,51.9,37.1,51.7,37.2,51.5z"/>
		<path class="st5" d="M38.8,71c0,2.9-2.1,5.4-4.8,6c0,0.1,0,0.2,0.1,0.3c2.9-0.6,5.1-3.3,5.1-6.4c0-3.4-2.6-6.3-6-6.5c0,0,0,0,0,0
			c0,0.2-0.1,0.4-0.1,0.7c0,0,0,0,0,0C36.3,65.1,38.8,67.8,38.8,71z"/>
		<path class="st5" d="M33.2,64.3L33.2,64.3L33.2,64.3z"/>
		<polygon class="st5" points="33.1,64.9 33.1,64.9 33.1,64.9 		"/>
		<path class="st5" d="M34,77c0,0.1,0,0.2,0.1,0.3c0,0,0,0,0,0C34,77.1,34,77.1,34,77L34,77z"/>
		<path class="st5" d="M34.8,80C34.8,80,34.8,80,34.8,80c0,0.1,0.1,0.3,0.1,0.4C34.9,80.3,34.9,80.1,34.8,80z"/>
		<path class="st5" d="M35,80.4C35,80.4,35,80.4,35,80.4c2.3,0.9,3.9,3.1,3.9,5.7c0,0.6-0.1,1.2-0.2,1.7c0.1,0.1,0.1,0.2,0.2,0.3
			c0.2-0.7,0.4-1.4,0.4-2.1c0-2.9-1.8-5.3-4.4-6.2c0,0.1,0,0.2,0.1,0.2C34.9,80.1,34.9,80.3,35,80.4z"/>
		<path class="st5" d="M34.8,79.8L34.8,79.8c0,0.1,0.1,0.2,0.1,0.2c0,0,0,0,0,0C34.8,79.9,34.8,79.9,34.8,79.8z"/>
		<path class="st5" d="M38.6,87.8L38.6,87.8c0.1,0.1,0.1,0.2,0.2,0.3l0,0C38.7,88,38.7,87.9,38.6,87.8z"/>
		<path class="st5" d="M38.6,87.8c0.1,0.1,0.1,0.2,0.2,0.3c0,0,0,0,0,0C38.7,88,38.7,87.9,38.6,87.8C38.6,87.8,38.6,87.8,38.6,87.8z
			"/>
		<path class="st5" d="M34.8,80c0-0.1-0.1-0.2-0.1-0.2c0,0,0,0,0,0C34.8,79.9,34.8,79.9,34.8,80z"/>
		<path class="st5" d="M54,101.1c0.1,0,0.2,0.1,0.3,0.1l0,0C54.2,101.2,54.1,101.1,54,101.1z"/>
		<path class="st5" d="M66.4,101.1c0,1.1-0.3,2-0.7,2.9c0.1,0,0.2,0,0.3,0c0.5-0.9,0.8-2,0.8-3.1c0-1.7-0.7-3.3-1.8-4.5
			c-0.2,0-0.4,0.1-0.5,0.1C65.6,97.7,66.4,99.3,66.4,101.1z"/>
		<path class="st5" d="M54.2,101.1c0-1.3,0.4-2.6,1.2-3.6c-0.3,0-0.5,0-0.8,0c-0.6,1-1,2.1-1,3.4c0.1,0.1,0.3,0.1,0.4,0.2
			C54.1,101.1,54.2,101.1,54.2,101.1C54.3,101.2,54.2,101.2,54.2,101.1z"/>
		<path class="st5" d="M60.1,94.4c-2.3,0-4.4,1.2-5.5,3.1c0.3,0,0.5,0,0.8,0c1.1-1.5,2.9-2.5,4.9-2.5c1.6,0,3,0.6,4.1,1.6
			c0.2,0,0.4-0.1,0.5-0.1C63.7,95.2,62,94.4,60.1,94.4z"/>
		<path class="st5" d="M88.1,49.7c-3.6,0-6.5,2.9-6.5,6.6c0,3.6,2.9,6.6,6.5,6.6c3.6,0,6.5-2.9,6.5-6.6
			C94.7,52.6,91.7,49.7,88.1,49.7z M88.3,62.5c-3.3,0-6.1-2.7-6.1-6.1c0-3.4,2.7-6.1,6.1-6.1c3.3,0,6.1,2.7,6.1,6.1
			C94.4,59.7,91.6,62.5,88.3,62.5z"/>
		<path class="st5" d="M94.2,43.9C94.2,43.9,94.2,43.9,94.2,43.9C94.2,43.9,94.2,43.8,94.2,43.9C94.2,43.8,94.2,43.8,94.2,43.9
			C94.2,43.8,94.2,43.9,94.2,43.9z"/>
		<path class="st5" d="M94.2,43.8c-0.1-0.1-0.1-0.1-0.2-0.2c-0.8,2.4-3.1,4.2-5.7,4.2c-3.3,0-6.1-2.7-6.1-6.1c0-2.1,1-3.9,2.6-5
			c-0.2-0.1-0.5-0.2-0.7-0.4c-1.5,1.2-2.5,3.1-2.5,5.1c0,3.6,2.9,6.6,6.5,6.6C90.9,48.1,93.3,46.4,94.2,43.8
			C94.2,43.9,94.2,43.9,94.2,43.8C94.2,43.9,94.2,43.8,94.2,43.8z"/>
		<path class="st5" d="M94.2,43.9L94.2,43.9C94.2,43.9,94.2,43.9,94.2,43.9C94.2,43.9,94.2,43.9,94.2,43.9
			C94.2,43.9,94.2,43.9,94.2,43.9z"/>
		<path class="st5" d="M84.8,36.7L84.8,36.7c-0.2-0.1-0.5-0.2-0.7-0.4l0,0C84.3,36.5,84.5,36.6,84.8,36.7z"/>
		<path class="st5" d="M94.2,43.8C94.2,43.8,94.2,43.8,94.2,43.8c-0.1-0.1-0.1-0.1-0.2-0.2l0,0C94,43.7,94.1,43.8,94.2,43.8z"/>
		<polygon class="st5" points="94.2,43.9 94.2,43.9 94.2,43.9 		"/>
		<path class="st5" d="M94,43.6C94,43.6,94,43.6,94,43.6c0.1,0.1,0.1,0.1,0.2,0.2C94.1,43.8,94,43.7,94,43.6z"/>
		<path class="st5" d="M84.8,36.7c-0.2-0.1-0.5-0.2-0.7-0.4c0,0,0,0,0,0C84.3,36.5,84.5,36.6,84.8,36.7
			C84.8,36.7,84.8,36.7,84.8,36.7z"/>
		<path class="st5" d="M94.3,71c0,2-0.9,3.7-2.4,4.8c-0.1,0.2-0.2,0.4-0.3,0.6c1.8-1.2,3.1-3.2,3.1-5.6c0-0.3,0-0.6-0.1-0.8
			c-0.1,0.3-0.2,0.6-0.3,0.9C94.3,70.9,94.3,71,94.3,71z"/>
		<path class="st5" d="M88.1,64.2c-3.6,0-6.5,2.9-6.5,6.6s2.9,6.6,6.5,6.6c1.3,0,2.5-0.4,3.5-1c0.1-0.2,0.2-0.4,0.3-0.6
			c-1,0.8-2.3,1.3-3.7,1.3c-3.3,0-6.1-2.7-6.1-6.1c0-3.4,2.7-6.1,6.1-6.1c3.3,0,6,2.7,6,6c0.1-0.3,0.2-0.6,0.3-0.9
			C94.2,66.7,91.5,64.2,88.1,64.2z"/>
		<path class="st5" d="M94.3,86.3c0,3.4-2.7,6.1-6.1,6.1c-2.9,0-5.3-2.1-5.9-4.8c-0.1,0.1-0.3,0.3-0.4,0.4c0.8,2.7,3.3,4.7,6.3,4.7
			c3.6,0,6.5-2.9,6.5-6.6c0-3.1-2.2-5.8-5.1-6.4c-0.2,0.2-0.3,0.4-0.5,0.7C92,80.6,94.3,83.2,94.3,86.3z"/>
		<path class="st5" d="M81.6,86c0,0.7,0.1,1.3,0.3,1.9c0.1-0.1,0.3-0.3,0.4-0.4c-0.1-0.4-0.1-0.8-0.1-1.3c0-3.4,2.7-6.1,6.1-6.1
			c0.3,0,0.6,0,0.8,0.1c0.2-0.2,0.3-0.4,0.5-0.7c-0.5-0.1-0.9-0.2-1.4-0.2C84.5,79.4,81.6,82.4,81.6,86z"/>
		<path class="st5" d="M91.1,95.9L91.1,95.9c0.2-0.1,0.4-0.3,0.5-0.5l0,0C91.5,95.6,91.3,95.8,91.1,95.9z"/>
		<path class="st5" d="M82.2,101.3c0-3.4,2.7-6.1,6.1-6.1c1.1,0,2,0.3,2.9,0.7c0.2-0.1,0.4-0.3,0.5-0.5c-1-0.7-2.2-1-3.5-1
			c-3.6,0-6.5,2.9-6.5,6.6c0,0.2,0,0.4,0,0.6c0.2-0.1,0.4-0.1,0.6-0.2C82.2,101.4,82.2,101.3,82.2,101.3z"/>
		<path class="st5" d="M74,58.4c-3.6,0-6.5,2.9-6.5,6.6c0,3.6,2.9,6.6,6.5,6.6c3.6,0,6.5-2.9,6.5-6.6C80.5,61.3,77.6,58.4,74,58.4z
			 M74.2,71.2c-3.3,0-6.1-2.7-6.1-6.1c0-3.4,2.7-6.1,6.1-6.1s6.1,2.7,6.1,6.1C80.2,68.5,77.5,71.2,74.2,71.2z"/>
		<path class="st5" d="M74,43.7c-3.6,0-6.5,2.9-6.5,6.6c0,3.6,2.9,6.6,6.5,6.6c3.6,0,6.5-2.9,6.5-6.6C80.5,46.6,77.6,43.7,74,43.7z
			 M74.1,56.5c-3.3,0-6.1-2.7-6.1-6.1c0-3.4,2.7-6.1,6.1-6.1c3.3,0,6.1,2.7,6.1,6.1C80.2,53.8,77.4,56.5,74.1,56.5z"/>
		<path class="st5" d="M80,34.7c0.1,0,0.1,0,0.2,0.1l0,0C80.2,34.7,80.1,34.7,80,34.7L80,34.7z"/>
		<path class="st5" d="M67.5,35.7c0,3.6,2.9,6.6,6.5,6.6c3.6,0,6.5-2.9,6.5-6.6c0-0.3,0-0.5-0.1-0.8c-0.1,0-0.2-0.1-0.2-0.1
			c-0.1,0-0.1,0-0.2-0.1c0.1,0.4,0.1,0.8,0.1,1.2c0,3.4-2.7,6.1-6.1,6.1c-3.3,0-6.1-2.7-6.1-6.1c0-1.1,0.3-2.2,0.9-3.1
			c-0.2,0-0.3,0-0.5,0c-0.1,0-0.2,0-0.3,0C67.7,33.6,67.5,34.6,67.5,35.7z"/>
		<path class="st5" d="M80.3,34.8C80.3,34.8,80.3,34.8,80.3,34.8L80.3,34.8C80.3,34.8,80.3,34.8,80.3,34.8z"/>
		<path class="st5" d="M68.9,32.8c-0.2,0-0.3,0-0.5,0C68.6,32.7,68.8,32.8,68.9,32.8L68.9,32.8z"/>
		<path class="st5" d="M68.5,32.7c-0.1,0-0.2,0-0.3,0l0,0C68.3,32.8,68.4,32.7,68.5,32.7z"/>
		<path class="st5" d="M80.5,34.9C80.5,34.9,80.5,34.9,80.5,34.9c-0.1,0-0.1-0.1-0.2-0.1c0,0,0,0,0,0C80.3,34.8,80.4,34.8,80.5,34.9
			z"/>
		<path class="st5" d="M68.9,32.8c-0.2,0-0.3,0-0.5,0C68.6,32.7,68.8,32.8,68.9,32.8C68.9,32.8,68.9,32.8,68.9,32.8z"/>
		<path class="st5" d="M74,72.9c-3.6,0-6.5,2.9-6.5,6.6s2.9,6.6,6.5,6.6c3.6,0,6.5-2.9,6.5-6.6S77.6,72.9,74,72.9z M74.2,85.8
			c-3.3,0-6.1-2.7-6.1-6.1s2.7-6.1,6.1-6.1s6.1,2.7,6.1,6.1S77.5,85.8,74.2,85.8z"/>
		<path class="st5" d="M80.2,94.9c0,3.4-2.7,6.1-6.1,6.1c-3.1,0-5.7-2.4-6-5.4c-0.2,0.1-0.4,0.1-0.6,0.2c0.5,3.1,3.2,5.5,6.4,5.5
			c3.6,0,6.5-2.9,6.5-6.6c0-1.7-0.7-3.3-1.7-4.5c-0.1,0.1-0.3,0.2-0.4,0.3C79.5,91.6,80.2,93.2,80.2,94.9z"/>
		<path class="st5" d="M74,88.1c-3.6,0-6.5,2.9-6.5,6.6c0,0.4,0,0.7,0.1,1.1c0.2-0.1,0.4-0.1,0.6-0.2c0-0.2,0-0.4,0-0.7
			c0-3.4,2.7-6.1,6.1-6.1c1.6,0,3.1,0.7,4.2,1.7c0.1-0.1,0.3-0.2,0.4-0.3C77.6,88.9,75.9,88.1,74,88.1z"/>
		<path class="st5" d="M103.9,71.3C103.9,71.3,103.9,71.2,103.9,71.3L103.9,71.3C103.9,71.2,103.9,71.3,103.9,71.3z"/>
		<path class="st5" d="M102.7,71.3c-3.3,0-6.1-2.7-6.1-6.1c0-3.4,2.7-6.1,6.1-6.1c0,0,0.1,0,0.1,0c-0.1-0.3-0.1-0.5-0.2-0.8
			c-2.6,0-4.8,1.5-5.9,3.7c-0.2,1.1-0.4,2.2-0.6,3.2c0.2,3.5,3,6.2,6.5,6.2c0.4,0,0.9,0,1.3-0.1c0,0,0-0.1,0-0.1c0,0,0-0.1,0-0.1
			C103.5,71.3,103.1,71.3,102.7,71.3z"/>
		<path class="st5" d="M96,65c0,0.1,0,0.3,0,0.4c0.3-1.1,0.5-2.1,0.6-3.2C96.3,63,96,64,96,65z"/>
		<path class="st5" d="M102,56.6c0-0.1-0.1-0.2-0.1-0.2l0,0C101.9,56.5,102,56.6,102,56.6z"/>
		<path class="st5" d="M97.3,47.7L97.3,47.7L97.3,47.7z"/>
		<path class="st5" d="M96.9,51.8c0.1,0.7,0.1,1.3,0.2,2c1.1,1.7,2.9,2.8,5,3c0-0.1,0-0.1-0.1-0.2c0-0.1-0.1-0.2-0.1-0.2
			C99.4,56,97.5,54.2,96.9,51.8z"/>
		<path class="st5" d="M96.3,48.4c0.1,0.7,0.3,1.4,0.4,2.1c0,0,0-0.1,0-0.1c0-1,0.2-1.9,0.6-2.7c0,0,0,0,0,0
			c-0.1-0.2-0.3-0.4-0.4-0.6C96.6,47.4,96.4,47.9,96.3,48.4z"/>
		<path class="st5" d="M97.1,53.8c0-0.7-0.1-1.3-0.2-2c-0.1-0.4-0.2-0.9-0.2-1.4c-0.1-0.7-0.2-1.4-0.4-2.1C96.1,49,96,49.6,96,50.2
			C96,51.6,96.4,52.8,97.1,53.8z"/>
		<path class="st5" d="M103.6,73.5c0-0.2,0-0.3,0.1-0.5l0,0C103.7,73.2,103.6,73.4,103.6,73.5z"/>
		<path class="st5" d="M103.6,73.9L103.6,73.9L103.6,73.9z"/>
		<path class="st5" d="M102.6,72.9c-3.6,0-6.5,2.9-6.5,6.6c0,2.6,1.5,4.8,3.7,5.9c0-0.1,0.1-0.2,0.1-0.2c-1.8-1.1-3-3-3-5.3
			c0-3.4,2.7-6.1,6.1-6.1c0.2,0,0.5,0,0.7,0c0,0,0,0,0,0c0-0.1,0-0.2,0-0.4c0-0.2,0-0.3,0.1-0.5C103.3,73,102.9,72.9,102.6,72.9z"/>
		<path class="st5" d="M70.6,104.1L70.6,104.1L70.6,104.1z"/>
		<path class="st5" d="M73.3,103.8c-0.1,0-0.2,0-0.3,0C73.2,103.8,73.3,103.8,73.3,103.8z"/>
		<path class="st5" d="M74,103.2c-1.2,0-2.4,0.3-3.4,0.9c0,0,0,0,0,0c0.8-0.1,1.6-0.1,2.4-0.2c0.1,0,0.2,0,0.3,0
			c0.8-0.1,1.6-0.3,2.4-0.4C75.2,103.2,74.6,103.2,74,103.2z"/>
		<path class="st5" d="M46.4,58.4c-3.6,0-6.5,2.9-6.5,6.6c0,3.6,2.9,6.6,6.5,6.6s6.5-2.9,6.5-6.6C52.9,61.3,50,58.4,46.4,58.4z
			 M46.5,71.3c-3.3,0-6.1-2.7-6.1-6.1c0-3.4,2.7-6.1,6.1-6.1c3.3,0,6.1,2.7,6.1,6.1C52.5,68.5,49.8,71.3,46.5,71.3z"/>
		<path class="st5" d="M46.4,43.7c-3.6,0-6.5,2.9-6.5,6.6c0,3.6,2.9,6.6,6.5,6.6s6.5-2.9,6.5-6.6C52.9,46.6,50,43.7,46.4,43.7z
			 M46.5,56.5c-3.3,0-6.1-2.7-6.1-6.1c0-3.4,2.7-6.1,6.1-6.1c3.3,0,6.1,2.7,6.1,6.1C52.5,53.8,49.8,56.5,46.5,56.5z"/>
		<path class="st5" d="M46.4,42.2c3.4,0,6.2-2.6,6.5-5.9c-0.1,0.1-0.3,0.1-0.4,0.2c-0.3,3-2.9,5.4-6,5.4c-0.5,0-1.1-0.1-1.6-0.2
			c-0.1,0.1-0.1,0.1-0.2,0.2c0,0-0.1,0-0.1,0.1C45.2,42.2,45.7,42.2,46.4,42.2z"/>
		<path class="st5" d="M52.9,36.4L52.9,36.4c-0.1,0.1-0.3,0.1-0.4,0.2l0,0C52.6,36.5,52.7,36.4,52.9,36.4z"/>
		<path class="st5" d="M44.7,41.9C44.7,41.9,44.6,42,44.7,41.9L44.7,41.9C44.6,42,44.7,42,44.7,41.9z"/>
		<path class="st5" d="M46.4,72.9c-3.6,0-6.5,2.9-6.5,6.6s2.9,6.6,6.5,6.6s6.5-2.9,6.5-6.6S50,72.9,46.4,72.9z M46.5,85.7
			c-3.3,0-6.1-2.7-6.1-6.1s2.7-6.1,6.1-6.1s6.1,2.7,6.1,6.1S49.9,85.7,46.5,85.7z"/>
		<path class="st5" d="M50.7,99.4c0,0,0.1,0,0.1,0.1l0,0C50.8,99.4,50.8,99.4,50.7,99.4z"/>
		<path class="st5" d="M52.3,97.4c-0.1,0-0.2,0-0.3,0c-0.3,0.8-0.8,1.4-1.4,2c0,0,0.1,0,0.1,0.1c0,0,0.1,0,0.1,0.1
			C51.5,98.9,52,98.2,52.3,97.4z"/>
		<path class="st5" d="M46.4,88.1c-2.3,0-4.2,1.1-5.4,2.9c0.2,0.2,0.3,0.4,0.5,0.6c1.1-1.7,3-2.8,5.1-2.8c3.3,0,6.1,2.7,6.1,6.1
			c0,0.9-0.2,1.7-0.5,2.5c0.1,0,0.2,0,0.3,0c0.4-0.8,0.6-1.7,0.6-2.7C52.9,91.1,50,88.1,46.4,88.1z"/>
		<polygon class="st5" points="41.4,91.6 41.4,91.6 41.4,91.6 		"/>
		<path class="st5" d="M40.9,91L40.9,91L40.9,91z"/>
		<path class="st5" d="M41.4,91.6c-0.2-0.2-0.3-0.4-0.5-0.6c0,0,0,0,0,0c0,0,0,0,0,0C41.1,91.2,41.3,91.4,41.4,91.6
			C41.4,91.6,41.4,91.6,41.4,91.6C41.4,91.6,41.4,91.6,41.4,91.6z"/>
	</g>
	<path class="st6" d="M74.8,107.1l-6.5,0.8l-6.1-0.8l2.7,4.9l1.1,19.8c0.8,0,1.7,0.1,2.5,0.1c0.8,0,1.6,0,2.4-0.1l1.2-19.8
		L74.8,107.1z"/>
	<path class="st7" d="M74.8,107.1c1.2,0,2.1-1.3,2.1-2.8c0-0.3,0-0.6-0.1-0.9c-2.6,0.6-5.3,0.9-8.1,0.9c-2.9,0-5.7-0.4-8.4-1
		c-0.1,0.3-0.1,0.6-0.1,1c0,1.6,0.9,2.8,2.1,2.8l6.1,0.8L74.8,107.1z"/>
</g>
</svg>
