<?xml version="1.0" encoding="utf-8"?>
<!-- Generator: Adobe Illustrator 21.0.0, SVG Export Plug-In . SVG Version: 6.00 Build 0)  -->
<svg version="1.1" id="Layer_1" xmlns="http://www.w3.org/2000/svg" xmlns:xlink="http://www.w3.org/1999/xlink" x="0px" y="0px"
	 viewBox="0 0 136.9 136.9" style="enable-background:new 0 0 136.9 136.9;" xml:space="preserve">
<style type="text/css">
	.st0{fill:#22C48A;}
	.st1{fill:#81BCB9;}
	.st2{fill:#8AC5C4;}
	.st3{fill:#EDC92C;}
	.st4{fill:#94D0D0;}
	.st5{fill:#F37C2A;}
	.st6{fill:#ED3351;}
	.st7{fill:#A0D5D9;}
	.st8{fill:#357180;}
	.st9{fill:#B3DCE2;}
	.st10{fill:#1FA85B;}
</style>
<g>
	<g>
		<circle class="st0" cx="68.5" cy="68.5" r="63.3"/>
	</g>
	<g>
		<g>
			<path class="st1" d="M47.2,98.3c-1.4,0-2.6-0.6-3.5-1.4C44.6,97.8,45.9,98.3,47.2,98.3l1.1,0l0,0H47.2z"/>
		</g>
		<g>
			<polygon class="st2" points="50.9,98.3 48.3,98.3 48.4,98.3 50.9,98.3 			"/>
		</g>
		<g>
			<path class="st3" d="M103.7,69.5l-3.8-6.7c-0.2,1-0.8,1.9-1.6,2.6l-8.5,7.4L69.6,90.3l-2.2,5.4l34.5-19.4c0.7-0.4,1.3-1,1.7-1.6
				C104.5,73.2,104.7,71.2,103.7,69.5z"/>
		</g>
		<g>
			<polygon class="st4" points="54.7,98.3 50.9,98.3 50.9,98.3 54.8,98.3 			"/>
		</g>
		<g>
			<path class="st5" d="M98.9,58.4L88.8,46.7c-0.7-0.8-1.5-1.3-2.4-1.5c0.7,1.3,0.8,2.8,0.2,4.2l-3.4,8.2l-6.3,15.3l-9.1,22.3
				l29.9-28.9l-0.2,0.1l1-0.9c0.8-0.7,1.3-1.6,1.6-2.6C100.3,61.3,100,59.7,98.9,58.4z"/>
		</g>
		<g>
			<path class="st6" d="M103.6,74.7c-0.4,0.6-1,1.2-1.7,1.6L67.3,95.7L67,95.9c-0.9,1.4-2.4,2.3-4.1,2.3l-0.1,0.1h3.5h33.5
				c2.8,0,5-2.2,5-5V77.8C104.7,76.6,104.3,75.5,103.6,74.7z"/>
		</g>
		<g>
			<path class="st7" d="M60.4,98.3L60.4,98.3l2.4,0l0.1-0.1c0,0,0,0-0.1,0H60.4z"/>
		</g>
		<g>
			<polygon class="st7" points="54.7,98.3 54.8,98.3 60.3,98.3 60.4,98.3 			"/>
		</g>
		<g>
			<path class="st8" d="M86.4,45.1c-0.5-1-1.4-1.9-2.5-2.3l-14.3-5.9c-1.3-0.5-2.6-0.5-3.8,0c1.2,0.9,2,2.4,2,4v17.4v8v6.6v19.1v1.4
				c0,1-0.3,1.9-0.8,2.6l0.4-0.2l2-4.9l0.1-0.1l7.3-17.9l6.3-15.3l3.4-8.2C87.1,47.9,87,46.4,86.4,45.1z"/>
		</g>
		<g>
			<path class="st9" d="M42.3,88.3L42.3,88.3l0,5c0,1.4,0.6,2.6,1.5,3.6c-0.9-0.9-1.4-2.1-1.4-3.5V88.3z"/>
		</g>
		<g>
			<path class="st9" d="M42.3,81v-0.8l0,0L42.3,81C42.3,81,42.3,81,42.3,81z"/>
		</g>
		<g>
			<polygon class="st9" points="42.3,87.6 42.2,87.5 42.2,88.3 42.3,88.3 			"/>
		</g>
		<g>
			<path class="st9" d="M42.2,81v6.5l0,0.1L42.2,81C42.3,81,42.3,81,42.2,81z"/>
		</g>
		<g>
			<path class="st9" d="M42.8,88.5c0,0.1-0.1,0.2-0.1,0.3l0.8,0.9L42.8,88.5z"/>
		</g>
		<g>
			<path class="st10" d="M65.7,36.9c-0.8-0.6-1.8-1-3-1H47.2c-2.8,0-5,2.2-5,5v39.4l0,0V81v6.6v0.7v5c0,1.4,0.6,2.6,1.4,3.5
				c0.9,0.9,2.1,1.4,3.5,1.4h1.1h2.6h3.8h5.6h2.4c0,0,0,0,0.1,0c1.8,0,3.3-1,4.1-2.3c0.5-0.8,0.8-1.7,0.8-2.6v-1.4V72.8v-6.6v-8
				V40.9C67.7,39.2,66.9,37.8,65.7,36.9z"/>
		</g>
	</g>
	<g>
		<circle class="st1" cx="61.6" cy="92.5" r="3.2"/>
	</g>
</g>
</svg>
