<?xml version="1.0" encoding="utf-8"?>
<!-- Generator: Adobe Illustrator 21.0.0, SVG Export Plug-In . SVG Version: 6.00 Build 0)  -->
<svg version="1.1" id="Layer_1" xmlns="http://www.w3.org/2000/svg" xmlns:xlink="http://www.w3.org/1999/xlink" x="0px" y="0px"
	 viewBox="0 0 136.9 136.9" style="enable-background:new 0 0 136.9 136.9;" xml:space="preserve">
<style type="text/css">
	.st0{fill:#A2D4DE;}
	.st1{fill:#6CC077;}
	.st2{fill:#FFFFFF;}
	.st3{fill:#CC3432;}
	.st4{fill:#BA2E2D;}
</style>
<g>
	<g>
		<g>
			<g>
				<g>
					<circle class="st0" cx="68.5" cy="68.5" r="63.3"/>
				</g>
			</g>
		</g>
	</g>
	<g>
		<g>
			<g>
				<g>
					<path class="st1" d="M113.2,23.7c24.7,24.7,24.7,64.8,0,89.6c-24.7,24.7-64.8,24.7-89.6,0L113.2,23.7z"/>
				</g>
			</g>
		</g>
	</g>
	<g>
		<g>
			<path class="st2" d="M124.3,38.6c-0.5-0.9-1-1.8-1.5-2.7C64.2,58.8,38.3,113.8,34.7,122c0.9,0.5,1.7,1.1,2.6,1.6
				C40,117.3,65.4,61.4,124.3,38.6z"/>
		</g>
	</g>
	<g>
		<g>
			<g>
				<path class="st3" d="M68.6,26.6c-15.4,0-27.9,12.5-27.9,27.9c0,20.3,26.3,47.5,28.7,47.5s27.1-29.5,27.1-47.5
					C96.6,39.1,84.1,26.6,68.6,26.6z M68.5,63.8c-6.1,0-11-4.8-11-10.7s4.9-10.7,11-10.7c6.1,0,11,4.8,11,10.7S74.6,63.8,68.5,63.8z
					"/>
			</g>
			<g>
				<path class="st4" d="M69.4,102.5c-2.5,0-29.2-27.4-29.2-48c0-15.7,12.7-28.4,28.4-28.4c15.7,0,28.4,12.7,28.4,28.4
					C97.1,72.3,72.2,102.5,69.4,102.5z M68.6,27.1c-15.1,0-27.4,12.3-27.4,27.4c0,20.4,25.9,46.5,28.2,47c2.4-0.6,26.6-29.2,26.6-47
					C96.1,39.4,83.8,27.1,68.6,27.1z M68.5,64.3c-6.3,0-11.5-5-11.5-11.2C57.1,47,62.2,42,68.5,42S80,47,80,53.2
					C80,59.3,74.8,64.3,68.5,64.3z M68.5,43c-5.8,0-10.5,4.6-10.5,10.2c0,5.6,4.7,10.2,10.5,10.2c5.8,0,10.5-4.6,10.5-10.2
					C79,47.6,74.3,43,68.5,43z"/>
			</g>
		</g>
	</g>
</g>
</svg>
