<?xml version="1.0" encoding="utf-8"?>
<!-- Generator: Adobe Illustrator 21.0.0, SVG Export Plug-In . SVG Version: 6.00 Build 0)  -->
<svg version="1.1" id="Layer_1" xmlns:sketch="http://www.bohemiancoding.com/sketch/ns"
	 xmlns="http://www.w3.org/2000/svg" xmlns:xlink="http://www.w3.org/1999/xlink" x="0px" y="0px" viewBox="0 0 465 326"
	 style="enable-background:new 0 0 465 326;" xml:space="preserve">
<style type="text/css">
	.st0{fill:#7C4B1F;stroke:#000000;}
	.st1{fill:#8E5624;}
	.st2{fill:#AC6322;}
	.st3{fill:#8E5624;stroke:#000000;}
	.st4{fill:#FFFFFF;}
	.st5{stroke:#979797;}
	.st6{fill:#E95583;}
	.st7{fill:#191919;}
	.st8{fill:#995B24;stroke:#7C4B1F;}
	.st9{fill:none;stroke:#000000;stroke-width:2;stroke-miterlimit:10;}
	.st10{fill:#666666;}
</style>
<title>snippitz</title>
<desc>Created with Sketch.</desc>
<g id="Welcome" sketch:type="MSPage">
	<g id="Desktop" transform="translate(-323.000000, -179.000000)" sketch:type="MSArtboardGroup">
		<g id="snippitz" transform="translate(293.000000, 177.000000)" sketch:type="MSLayerGroup">
			
				<ellipse id="Tail" sketch:type="MSShapeGroup" transform="matrix(0.9336 -0.3584 0.3584 0.9336 -49.9155 47.5629)" class="st0" cx="103.4" cy="158.4" rx="57" ry="137.5">
			</ellipse>
			<g id="Body" transform="translate(87.000000, 0.000000)" sketch:type="MSShapeGroup">
				<path id="Rectangle-9" class="st1" d="M88.4,3l17.4,4.7c4.3,1.1,6.8,5.5,5.7,9.8l-5.2,19.3c-1.1,4.3-5.5,6.8-9.8,5.7l-17.4-4.7
					c-4.3-1.1-6.8-5.5-5.7-9.8l5.2-19.3C79.7,4.3,84.1,1.8,88.4,3z"/>
				<path id="Rectangle-9-Copy-2" class="st2" d="M94.4,11l17.4,4.7c4.3,1.1,6.8,5.5,5.7,9.8l-5.2,19.3c-1.1,4.3-5.5,6.8-9.8,5.7
					l-17.4-4.7c-4.3-1.1-6.8-5.5-5.7-9.8l5.2-19.3C85.7,12.3,90.1,9.8,94.4,11z"/>
				<path id="Rectangle-9-Copy" class="st1" d="M158.7,6.7l17.7-3.1c4.4-0.8,8.5,2.1,9.3,6.5l3.5,19.7c0.8,4.4-2.1,8.5-6.5,9.3
					L165,42.2c-4.4,0.8-8.5-2.1-9.3-6.5L152.2,16C151.5,11.6,154.4,7.5,158.7,6.7z"/>
				<path id="Rectangle-9-Copy-3" class="st2" d="M152.7,12.3l17.8-2.5c4.4-0.6,8.4,2.4,9,6.8l2.8,19.8c0.6,4.4-2.4,8.4-6.8,9
					L157.7,48c-4.4,0.6-8.4-2.4-9-6.8l-2.8-19.8C145.3,17,148.3,12.9,152.7,12.3z"/>
				<path id="Oval-6" class="st3" d="M183.1,320c40.1-19.9,67.9-62.6,67.9-112c0-68.5-53.3-124-119-124S13,139.5,13,208
					c0,49.4,27.7,92.1,67.9,112H183.1L183.1,320z"/>
				<g id="Oval-3-_x2B_-Oval-4-_x2B_-Oval-4-Copy" transform="translate(0.000000, 5.000000)">
					<circle id="Oval-3" class="st1" cx="132.5" cy="79.5" r="79.5"/>
					
						<ellipse id="Oval-4" transform="matrix(0.2419 -0.9703 0.9703 0.2419 -26.1039 162.5886)" class="st1" cx="91" cy="98" rx="57" ry="79"/>
					
						<ellipse id="Oval-4-Copy" transform="matrix(0.1219 -0.9925 0.9925 0.1219 53.9713 277.4091)" class="st1" cx="183.8" cy="108.2" rx="57" ry="79"/>
				</g>
			</g>
			<g id="FEet" transform="translate(115.000000, 302.000000)" sketch:type="MSShapeGroup">
				<path id="Rectangle-6" class="st3" d="M8,1h68c4.4,0,8,3.6,8,8v9c0,4.4-3.6,8-8,8H8c-4.4,0-8-3.6-8-8V9C0,4.6,3.6,1,8,1z"/>
				<path id="Rectangle-6-Copy" class="st3" d="M140,0h68c4.4,0,8,3.6,8,8v9c0,4.4-3.6,8-8,8h-68c-4.4,0-8-3.6-8-8V8
					C132,3.6,135.6,0,140,0z"/>
			</g>
			<ellipse id="Oval-7" sketch:type="MSShapeGroup" class="st2" cx="219.5" cy="217" rx="59.5" ry="75">
			</ellipse>
			<g id="Eye-Balls" transform="translate(178.000000, 32.000000)" sketch:type="MSShapeGroup">
				<ellipse id="Oval-8" class="st4" cx="17.5" cy="19" rx="17.5" ry="19"/>
				<ellipse id="Oval-8-Copy" class="st4" cx="63.5" cy="19" rx="17.5" ry="19"/>
				<circle id="Oval-10" class="st5" cx="17.5" cy="22.5" r="6.5"/>
				<circle id="Oval-10-Copy" class="st5" cx="64.5" cy="21.5" r="6.5"/>
				<path id="Oval-8_1_" class="st0" d="M17.5,0C27.2,0,35,8.5,35,19c-2.5-0.7-7.8-2-17.5-2S2,18.4,0,19C0,8.5,7.8,0,17.5,0z"/>
				<path id="Oval-8_2_" class="st0" d="M63.5,0C73.2,0,81,8.5,81,19c-2.5-0.7-7.8-2-17.5-2S48,18.4,46,19C46,8.5,53.8,0,63.5,0z"/>
			</g>
			<path id="Nose" sketch:type="MSShapeGroup" class="st6" d="M219,72h1c4.4,0,8,3.1,8,7l0,0c0,3.9-3.6,7-8,7h-1c-4.4,0-8-3.1-8-7
				l0,0C211,75.1,214.6,72,219,72z"/>
			<g id="right-Arm" transform="translate(229.000000, 126.000000)" sketch:type="MSShapeGroup">
				
					<g id="claws-copy" transform="translate(12.000000, 10.500000) rotate(-28.000000) translate(-12.000000, -10.500000) translate(2.000000, 5.000000)">
					<polygon id="Triangle-1" class="st7" points="151.7,66.5 140.5,69.3 140.9,62.3 					"/>
					<polygon id="Triangle-1-Copy" class="st7" points="151.3,73.5 140.1,76.3 140.5,69.3 					"/>
					<polygon id="Triangle-1-Copy-2" class="st7" points="152.1,60.5 140.9,63.3 141.3,56.3 					"/>
				</g>
				<path id="Rectangle-15-Copy" class="st8" d="M79.6,60.7c0.3-0.1,0.6-0.3,0.9-0.4l77.9-44.2c3.9-2.2,5.2-7.1,3-10.9l-4.6-8.1
					c-2.2-3.8-7.1-5.2-10.9-3L68,38.3c-1,0.6-1.8,1.3-2.4,2.1c8.7,2.4,14.7,9.9,14.2,18.4C79.8,59.4,79.7,60.1,79.6,60.7z"/>
			</g>
			<g id="Left-Arm" transform="translate(128.000000, 127.000000)" sketch:type="MSShapeGroup">
				
					<g id="claws" transform="translate(63.000000, 10.500000) rotate(30.000000) translate(-63.000000, -10.500000) translate(53.000000, 5.000000)">
					<polygon id="Triangle-1_1_" class="st7" points="9.5,0 13,11 6,11 					"/>
					<polygon id="Triangle-1-Copy_1_" class="st7" points="16.5,0 20,11 13,11 					"/>
					<polygon id="Triangle-1-Copy-2_1_" class="st7" points="3.5,0 7,11 0,11 					"/>
				</g>
				<path id="Rectangle-15" class="st8" d="M21.7,103.4c0.1-0.2,0.2-0.4,0.4-0.6l46.2-76.8c2.3-3.8,1.1-8.7-2.7-11l-8-4.8
					c-3.8-2.3-8.7-1.1-11,2.7L0.4,89.8c-0.1,0.1-0.1,0.2-0.2,0.3C1,90,1.7,90,2.5,90C11.3,90,18.9,95.6,21.7,103.4z"/>
			</g>
			<path class="st9" d="M230,108.3c6.7-1.5,18.8-7,22.3-11"/>
		</g>
	</g>
</g>
<g>
	<path d="M459.7,186.5c1.9-10-4.7-19.7-14.8-21.5c-6.5-1.2-16.1,0.6-20.3,5.1c0,0,0,0,0,0c-2.2,2.4-3,5.7-3.7,9.2
		c-0.7,3.6-1,7,0.3,10.2c0,0.1,0.1,0.2,0.1,0.4c2.4,5.4,10.5,10.2,16.8,11.4C448.2,203.2,457.8,196.6,459.7,186.5z"/>
	<path class="st10" d="M416.8,188.5c-1.2-3.2-0.9-6.6-0.3-10.2c0.7-3.5,1.4-6.7,3.7-9.2c0,0,0,0,0,0c-0.8-1.3-2.2-2.2-3.8-2.4
		l-68.6-9.2c-2.8-0.4-5.5,1.5-6,4.4l-1,5.3c-0.5,2.8,1.3,5.6,4,6.2l67.3,16.1C413.9,189.9,415.6,189.5,416.8,188.5z M395.7,178
		c-1.8-0.3-3-2-2.6-3.8c0.3-1.8,2-3,3.8-2.6l5,0.9c1.8,0.3,3,2,2.6,3.8s-2,3-3.8,2.6L395.7,178z"/>
</g>
</svg>
