<?xml version="1.0" encoding="utf-8"?>
<!-- Generator: Adobe Illustrator 21.0.0, SVG Export Plug-In . SVG Version: 6.00 Build 0)  -->
<svg version="1.1" id="Layer_1" xmlns="http://www.w3.org/2000/svg" xmlns:xlink="http://www.w3.org/1999/xlink" x="0px" y="0px"
	 viewBox="0 0 136.9 136.9" style="enable-background:new 0 0 136.9 136.9;" xml:space="preserve">
<style type="text/css">
	.st0{fill:#4ABC96;}
	.st1{fill:#357180;}
	.st2{fill:#27636D;}
	.st3{fill:#E7E7D6;}
	.st4{fill:#DCDDD8;}
	.st5{fill:#B9B9BA;}
	.st6{fill:#BB5538;}
</style>
<g>
	<g>
		<circle class="st0" cx="68.5" cy="68.5" r="63.3"/>
	</g>
	<g>
		<g>
			<path class="st1" d="M12.6,38.6l5.6,0.3v-5h-2.8C14.4,35.4,13.5,36.9,12.6,38.6z"/>
			<polygon class="st1" points="26.4,38.8 49.9,39 49.9,33.8 26.4,33.8 			"/>
			<path class="st1" d="M94.7,33.8H67.2V39h24v88.5c1.9-0.7,3.7-1.5,5.5-2.4V35.8C96.7,34.7,95.8,33.8,94.7,33.8z"/>
		</g>
		<g>
			<polygon class="st2" points="22.2,39 26.4,38.8 26.4,33.8 18.2,33.8 18.2,38.8 			"/>
		</g>
		<g>
			<path class="st3" d="M18.4,39h-0.1v68c0,0.1,0.1,0.1,0.1,0.2V39z"/>
		</g>
		<g>
			<polygon class="st3" points="62.6,95.3 60.3,90.7 58,90.7 55.2,95.5 			"/>
		</g>
		<g>
			<polygon class="st3" points="50,104.6 66.9,104.1 64.7,99.7 52.6,100.1 			"/>
		</g>
		<g>
			<path class="st3" d="M12.6,38.6c-0.1,0.2-0.2,0.3-0.2,0.5c-1.9,3.5-3.4,7.3-4.6,11.2l-1.2,4.5c-0.3,1.5-0.6,3.1-0.9,4.7l-0.5,4.5
				c-0.1,1.5-0.2,2.9-0.2,4.4l0.2,4.5c0.1,1.6,0.3,3.2,0.5,4.7L6.6,82c0.4,1.7,0.8,3.3,1.3,4.9l1.6,4.5c0.6,1.6,1.3,3.2,2.1,4.8
				l2.5,4.6c1.3,2.2,2.7,4.2,4.2,6.2V39v-0.2L12.6,38.6z"/>
			<path class="st3" d="M67.2,38.8l-17.3,0H26.4v77c0.5,0.4,3.8,3.1,3.8,3.1c10.6,8,23.8,12.8,38.2,12.8c7,0,13.8-1.2,20.1-3.3
				c0.9-0.3,1.8-0.6,2.7-1V38.8L67.2,38.8L67.2,38.8z"/>
			<path class="st3" d="M22.2,39l-4-0.2V39h0.1v68.2c1.1,1.4,2.3,2.8,3.5,4.2V41.3h0.4h0.5v71c1.1,1.2,2.3,2.3,3.5,3.4
				c0,0,0.1,0.1,0.2,0.1V39v-0.2L22.2,39z"/>
		</g>
		<path class="st4" d="M22.2,41.3h-0.4v70.1c0.1,0.1,0.2,0.2,0.4,0.4c0.2,0.2,0.4,0.4,0.5,0.6v-71H22.2z"/>
		<g>
			<path class="st5" d="M17,52.7c0-1.2-1-2.3-2.2-2.3l-7.1-0.2c-0.4,1.5-0.8,3-1.2,4.5l8.2,0.3C16.1,55,17,54,17,52.7z"/>
		</g>
		<g>
			<path class="st5" d="M17,61.9c0-1.2-1-2.3-2.2-2.3l-9.1-0.3c-0.2,1.5-0.4,3-0.5,4.5l9.6,0.3C16.1,64.2,17,63.2,17,61.9z"/>
		</g>
		<g>
			<path class="st5" d="M17,70.9c0-1.2-1-2.3-2.2-2.3l-9.7-0.3c0,0.1,0,0.1,0,0.2c0,1.5,0.1,2.9,0.2,4.3l9.6,0.3
				C16.1,73.1,17,72.1,17,70.9z"/>
		</g>
		<g>
			<path class="st5" d="M17,80.1c0-1.2-1-2.3-2.2-2.3l-9.1-0.3C6,79,6.3,80.5,6.6,82l8.3,0.3C16.1,82.3,17,81.3,17,80.1z"/>
		</g>
		<g>
			<path class="st5" d="M17,89.4c0-1.2-1-2.3-2.2-2.3l-7-0.2c0.5,1.5,1,3.1,1.6,4.5l5.4,0.2C16.1,91.7,17,90.7,17,89.4z"/>
		</g>
		<g>
			<path class="st5" d="M17,98.6c0-1.2-1-2.3-2.2-2.3l-3.3-0.1c0.8,1.6,1.6,3.1,2.5,4.6l0.9,0C16.1,100.9,17,99.9,17,98.6z"/>
		</g>
		<g>
			<path class="st5" d="M30,50.4c-1.2,0-2.2,1.1-2.2,2.3s1,2.2,2.2,2.2l19.9-0.6v-4.5L30,50.4z"/>
		</g>
		<g>
			<path class="st5" d="M81.2,53.3c1.2,0,2.2-1.1,2.2-2.3c0-1.2-1-2.2-2.2-2.2l-13.9,0.4v4.5L81.2,53.3z"/>
		</g>
		<g>
			<path class="st5" d="M81.2,62.5c1.2,0,2.2-1.1,2.2-2.3s-1-2.2-2.2-2.2l-13.9,0.4v4.5L81.2,62.5z"/>
		</g>
		<g>
			<path class="st5" d="M30,59.6c-1.2,0-2.2,1.1-2.2,2.3s1,2.2,2.2,2.2l19.9-0.6V59L30,59.6z"/>
		</g>
		<g>
			<path class="st5" d="M30,68.6c-1.2,0-2.2,1.1-2.2,2.3s1,2.2,2.2,2.2l19.9-0.6v-4.5L30,68.6z"/>
		</g>
		<g>
			<path class="st5" d="M81.2,71.4c1.2,0,2.2-1.1,2.2-2.3s-1-2.2-2.2-2.2l-13.9,0.4v4.5L81.2,71.4z"/>
		</g>
		<g>
			<path class="st5" d="M81.2,80.7c1.2,0,2.2-1.1,2.2-2.3s-1-2.2-2.2-2.2l-13.9,0.4v4.5L81.2,80.7z"/>
		</g>
		<g>
			<path class="st5" d="M30,77.8c-1.2,0-2.2,1.1-2.2,2.3c0,1.2,1,2.2,2.2,2.2l19.9-0.6v-4.5L30,77.8z"/>
		</g>
		<g>
			<path class="st5" d="M81.2,90c1.2,0,2.2-1.1,2.2-2.3c0-1.2-1-2.2-2.2-2.2l-13.9,0.4v4.5L81.2,90z"/>
		</g>
		<g>
			<path class="st5" d="M30,87.1c-1.2,0-2.2,1.1-2.2,2.3c0,1.2,1,2.2,2.2,2.2L49.9,91v-4.5L30,87.1z"/>
		</g>
		<g>
			<polygon class="st5" points="59.2,88.5 58,90.7 60.3,90.7 			"/>
		</g>
		<g>
			<path class="st5" d="M81.2,99.2c1.2,0,2.2-1.1,2.2-2.3c0-1.2-1-2.2-2.2-2.2l-13.9,0.4v4.5L81.2,99.2z"/>
		</g>
		<g>
			<path class="st5" d="M30,96.3c-1.2,0-2.2,1.1-2.2,2.3c0,1.2,1,2.2,2.2,2.2l19.9-0.6v-4.5L30,96.3z"/>
		</g>
		<g>
			<polygon class="st5" points="52.6,100.1 64.7,99.7 62.6,95.3 55.2,95.5 			"/>
		</g>
		<g>
			<path class="st5" d="M66.9,104.1L50,104.6l-0.1,0.1v-0.1L30,105.3c-1.2,0-2.2,1.1-2.2,2.3c0,1.2,1,2.2,2.2,2.2l51.2-1.6
				c1.2,0,2.2-1.1,2.2-2.3s-1-2.2-2.2-2.2l-13.9,0.4v0.7L66.9,104.1z"/>
		</g>
		<g>
			<path class="st5" d="M81.2,117.3c1.2,0,2.2-1.1,2.2-2.3c0-1.2-1-2.2-2.2-2.2L30,114.5c-1.2,0-2.2,1.1-2.2,2.3c0,0.1,0,0.2,0,0.2
				c0.8,0.7,1.6,1.3,2.4,1.9L81.2,117.3z"/>
		</g>
		<g>
			<rect x="49.9" y="33.8" class="st6" width="17.3" height="0"/>
		</g>
		<polygon class="st6" points="49.9,33.8 49.9,104.6 50,104.6 59.2,88.5 66.9,104.1 67.2,104.1 67.2,33.8 		"/>
		<g>
			<polygon class="st6" points="50,104.6 49.9,104.6 49.9,104.8 			"/>
		</g>
		<g>
			<polygon class="st6" points="67.2,104.8 67.2,104.1 66.9,104.1 			"/>
		</g>
	</g>
</g>
</svg>
