<?xml version="1.0" encoding="utf-8"?>
<!-- Generator: Adobe Illustrator 21.0.0, SVG Export Plug-In . SVG Version: 6.00 Build 0)  -->
<svg version="1.1" id="Layer_1" xmlns="http://www.w3.org/2000/svg" xmlns:xlink="http://www.w3.org/1999/xlink" x="0px" y="0px"
	 viewBox="0 0 200 60" style="enable-background:new 0 0 200 60;" xml:space="preserve">
<style type="text/css">
	.st0{fill:#FFFFFF;}
</style>
<g>
	<g>
		<path class="st0" d="M25.9,23.1c-0.2,0.4-0.5,0.5-0.9,0.5c-0.2,0-0.5-0.1-0.8-0.3c-0.3-0.2-0.7-0.4-1.1-0.6s-1-0.4-1.6-0.6
			s-1.3-0.3-2.2-0.3c-0.7,0-1.4,0.1-1.9,0.3c-0.6,0.2-1.1,0.4-1.5,0.8c-0.4,0.3-0.7,0.7-0.9,1.1s-0.3,0.9-0.3,1.4
			c0,0.6,0.2,1.1,0.5,1.6c0.4,0.4,0.8,0.8,1.4,1.1s1.3,0.6,2,0.8c0.8,0.2,1.5,0.5,2.3,0.7s1.6,0.6,2.3,0.9c0.8,0.3,1.4,0.7,2,1.2
			s1.1,1.1,1.4,1.8c0.4,0.7,0.5,1.5,0.5,2.5c0,1.1-0.2,2.2-0.6,3.1c-0.4,1-1,1.8-1.8,2.5s-1.7,1.2-2.9,1.6c-1.1,0.4-2.4,0.6-3.9,0.6
			c-1.7,0-3.2-0.3-4.6-0.8s-2.5-1.3-3.5-2.1l1-1.6c0.1-0.2,0.3-0.4,0.5-0.5s0.4-0.2,0.7-0.2s0.6,0.1,0.9,0.3
			c0.3,0.2,0.7,0.5,1.2,0.7c0.5,0.3,1,0.5,1.7,0.7c0.6,0.2,1.5,0.3,2.4,0.3c0.8,0,1.6-0.1,2.2-0.3s1.1-0.5,1.6-0.9
			c0.4-0.4,0.7-0.8,0.9-1.3c0.2-0.5,0.3-1,0.3-1.5c0-0.7-0.2-1.2-0.5-1.7c-0.4-0.4-0.8-0.8-1.4-1.1s-1.3-0.6-2-0.8
			c-0.8-0.2-1.5-0.5-2.3-0.7s-1.6-0.5-2.3-0.9s-1.4-0.7-2-1.2s-1.1-1.1-1.4-1.8c-0.4-0.7-0.5-1.6-0.5-2.7c0-0.9,0.2-1.8,0.6-2.7
			c0.4-0.9,0.9-1.6,1.7-2.3c0.7-0.6,1.6-1.2,2.7-1.5c1.1-0.4,2.3-0.6,3.7-0.6c1.6,0,3,0.3,4.3,0.8s2.4,1.2,3.3,2.1L25.9,23.1z"/>
		<path class="st0" d="M35.2,43.4V19.1h2.5c0.6,0,1,0.3,1.2,0.9l0.3,2.6c1.1-1.2,2.2-2.1,3.5-2.8s2.8-1.1,4.5-1.1
			c1.3,0,2.5,0.2,3.5,0.7c1,0.4,1.9,1.1,2.5,1.9s1.2,1.8,1.5,2.9s0.5,2.4,0.5,3.8v15.5h-4.3V27.9c0-1.8-0.4-3.3-1.3-4.3
			c-0.8-1-2.1-1.5-3.9-1.5c-1.3,0-2.4,0.3-3.5,0.9s-2.1,1.4-3,2.5v17.9C39.2,43.4,35.2,43.4,35.2,43.4z"/>
		<path class="st0" d="M78.7,51.6V19.1h2.5c0.6,0,1,0.3,1.2,0.9l0.4,2.9c1-1.3,2.2-2.3,3.6-3c1.3-0.8,2.9-1.2,4.6-1.2
			c1.4,0,2.7,0.3,3.8,0.8c1.1,0.5,2.1,1.3,2.9,2.4s1.4,2.3,1.8,3.9s0.6,3.3,0.6,5.4c0,1.8-0.2,3.5-0.7,5s-1.2,2.9-2.1,4
			s-2,2-3.3,2.7c-1.3,0.6-2.8,1-4.4,1c-1.5,0-2.8-0.2-3.9-0.7s-2-1.2-2.8-2.1v10.8h-4.2V51.6z M89.5,22.1c-1.4,0-2.6,0.3-3.7,1
			s-2,1.5-2.9,2.7v11.8c0.8,1.1,1.6,1.8,2.6,2.2c0.9,0.4,2,0.6,3.1,0.6c2.3,0,4-0.8,5.2-2.4s1.8-3.9,1.8-6.9c0-1.6-0.1-2.9-0.4-4.1
			c-0.3-1.1-0.7-2.1-1.2-2.8c-0.5-0.7-1.2-1.3-1.9-1.6C91.4,22.3,90.5,22.1,89.5,22.1z"/>
		<path class="st0" d="M108.2,51.6V19.1h2.5c0.6,0,1,0.3,1.2,0.9l0.4,2.9c1-1.3,2.2-2.3,3.6-3c1.3-0.8,2.9-1.2,4.6-1.2
			c1.4,0,2.7,0.3,3.8,0.8s2.1,1.3,2.9,2.4c0.8,1,1.4,2.3,1.8,3.9c0.4,1.6,0.6,3.3,0.6,5.4c0,1.8-0.2,3.5-0.7,5s-1.2,2.9-2.1,4
			s-2,2-3.3,2.7c-1.3,0.6-2.8,1-4.4,1c-1.5,0-2.8-0.2-3.9-0.7s-2-1.2-2.8-2.1v10.8h-4.2V51.6z M119,22.1c-1.4,0-2.6,0.3-3.7,1
			s-2,1.5-2.9,2.7v11.8c0.8,1.1,1.6,1.8,2.6,2.2c0.9,0.4,2,0.6,3.1,0.6c2.3,0,4-0.8,5.2-2.4s1.8-3.9,1.8-6.9c0-1.6-0.1-2.9-0.4-4.1
			c-0.3-1.1-0.7-2.1-1.2-2.8c-0.5-0.7-1.2-1.3-1.9-1.6C120.9,22.3,120,22.1,119,22.1z"/>
		<path class="st0" d="M143,11.4c0,0.4-0.1,0.8-0.3,1.2s-0.4,0.7-0.7,1s-0.6,0.5-1,0.7s-0.8,0.2-1.2,0.2s-0.8-0.1-1.2-0.2
			c-0.4-0.2-0.7-0.4-1-0.7s-0.5-0.6-0.7-1s-0.2-0.7-0.2-1.2s0.1-0.8,0.2-1.2c0.2-0.4,0.4-0.7,0.7-1s0.6-0.5,1-0.7s0.7-0.2,1.2-0.2
			c0.4,0,0.8,0.1,1.2,0.2c0.4,0.2,0.7,0.4,1,0.7s0.5,0.6,0.7,1S143,11,143,11.4z M142,19.1v24.3h-4.3V19.1H142z"/>
		<path class="st0" d="M159.1,43.8c-1.9,0-3.4-0.5-4.4-1.6s-1.5-2.6-1.5-4.6V22.7h-2.9c-0.3,0-0.5-0.1-0.6-0.2
			c-0.2-0.2-0.3-0.4-0.3-0.7V20l4-0.5l1-7.5c0-0.2,0.1-0.4,0.3-0.6c0.2-0.2,0.4-0.2,0.7-0.2h2.2v8.4h7v3.1h-7v14.6
			c0,1,0.2,1.8,0.7,2.3s1.1,0.7,1.9,0.7c0.4,0,0.8-0.1,1.2-0.2c0.3-0.1,0.6-0.3,0.9-0.4c0.2-0.1,0.4-0.3,0.6-0.4
			c0.2-0.1,0.3-0.2,0.4-0.2c0.2,0,0.4,0.1,0.6,0.4l1.2,2c-0.7,0.7-1.6,1.2-2.7,1.6S160.2,43.8,159.1,43.8z"/>
		<path class="st0" d="M190,20.9c0,0.3-0.1,0.6-0.2,0.9c-0.1,0.3-0.3,0.5-0.4,0.8l-13.2,17.5h13.3v3.3h-18.3v-1.8
			c0-0.2,0.1-0.5,0.2-0.7c0.1-0.3,0.3-0.5,0.4-0.8L185,22.5h-13v-3.4h18V20.9z"/>
	</g>
	<path class="st0" d="M67.2,34.5c2.1,0,3.8-1.7,3.8-3.8v-7.6c0-2.1-1.7-3.8-3.8-3.8s-3.8,1.7-3.8,3.8v7.6
		C63.4,32.8,65.1,34.5,67.2,34.5z M73.9,30.7c0,3.8-3.2,6.5-6.7,6.5s-6.7-2.7-6.7-6.5h-2.2c0,4.3,3.5,7.9,7.6,8.5v4.2h2.5v-4.2
		c4.2-0.6,7.6-4.2,7.6-8.5H73.9z"/>
</g>
</svg>
