<?xml version="1.0" encoding="utf-8"?>
<!-- Generator: Adobe Illustrator 21.0.0, SVG Export Plug-In . SVG Version: 6.00 Build 0)  -->
<svg version="1.1" id="Layer_1" xmlns="http://www.w3.org/2000/svg" xmlns:xlink="http://www.w3.org/1999/xlink" x="0px" y="0px"
	 viewBox="0 0 136.9 136.9" style="enable-background:new 0 0 136.9 136.9;" xml:space="preserve">
<style type="text/css">
	.st0{fill:#C6B298;}
	.st1{fill:#EA6A25;}
	.st2{fill:#F37C2A;}
	.st3{fill:#3A3A39;}
</style>
<g>
	<g>
		<g>
			<g>
				<circle class="st0" cx="68.5" cy="68.5" r="63.3"/>
			</g>
		</g>
	</g>
	<g>
		<path class="st1" d="M101.6,40.1c-8-9.3-19.9-15.3-33.1-15.3c-24.1,0-43.6,19.5-43.6,43.6c0,13.6,6.3,25.8,16.1,33.8
			c7.5,6.1,17.1,9.8,27.5,9.8c24.1,0,43.6-19.5,43.6-43.6C112,57.6,108.1,47.8,101.6,40.1z"/>
		<g>
			<path class="st2" d="M88.5,88.9c13.7-13.7,18.2-32.8,13-48.7c-8-9.3-19.9-15.3-33.1-15.3c-24.1,0-43.6,19.5-43.6,43.6
				c0,13.6,6.3,25.8,16.1,33.8C56.7,106.8,75.2,102.2,88.5,88.9z"/>
		</g>
		<path class="st3" d="M111.9,71.9c0.1-0.7,0.1-1.3,0.1-2c-2.5-1.8-6.6-3.6-11.3-5.1c0.5-4.4,0.4-8.3,0-11.8l7.7-1.9
			c-0.2-0.5-0.4-1-0.7-1.5l-7.2,1.8c-1.1-6.6-3.4-11.6-5.7-15.1c-1.5-2.3-3-4.1-4.4-5.5c-1.6-0.9-3.3-1.8-5-2.5l-0.2,0.3
			c0,0,4.4,2.8,8.3,8.8c2.2,3.3,4.4,8.1,5.4,14.4C88,53.3,68.8,36.1,68.6,35.9c-5.5-5.2-11.5-7.5-15.1-8.5c-0.9,0.3-1.8,0.7-2.6,1.1
			c2.4,0.5,9.9,2.3,16.6,8.6c0.8,0.7,18.2,16.4,30,16.4c0.6,0,1.1,0,1.6-0.1c0.4,3.3,0.4,6.9,0,10.9c-15.3-4.8-36.4-7.8-37.7-8
			c-22.3-2.7-32,1.4-35.8,4.2c-0.2,0.8-0.3,1.6-0.4,2.5c2-2.1,10-8.2,36-5.1c0.3,0,22.4,3.2,37.8,8l0,0l0,0.1
			c0,0.1-0.3,4.9-2.1,11.4c-5.2-2.3-11.5-0.5-12.2-0.2c-2.4,0.5-24.1,8.6-26.6,9.5l0,0c-10.7,4.8-24,4.8-26.5,4.8
			c0.3,0.6,0.7,1.1,1.1,1.6c4.2,0,16.1-0.5,26.1-4.9c9.9-3.7,25-9.2,26.3-9.4l0.1,0c0.1,0,6.4-2,11.3,0.3c-0.7,2.2-1.5,4.5-2.5,6.9
			C90,94.9,82.2,106.5,67.1,112c0.5,0,0.9,0,1.4,0c1,0,2.1-0.1,3.1-0.1c13.1-6.1,20.1-16.8,23.9-25.4c1-2.3,1.8-4.6,2.5-6.7
			c0.3,0.2,0.5,0.4,0.8,0.6c0.4,0.4,5.3,6.2,4.9,13.8c0.6-0.8,1.1-1.6,1.6-2.4c-0.6-7.3-5.2-12.3-5.4-12.6l-0.1-0.1
			c-0.4-0.4-0.9-0.7-1.4-1.1c1.7-5.9,2.1-10.5,2.2-11.8C105.6,68.1,109.8,69.9,111.9,71.9z"/>
	</g>
</g>
</svg>
