<?xml version="1.0" encoding="utf-8"?>
<!-- Generator: Adobe Illustrator 21.0.0, SVG Export Plug-In . SVG Version: 6.00 Build 0)  -->
<svg version="1.1" id="Layer_1" xmlns="http://www.w3.org/2000/svg" xmlns:xlink="http://www.w3.org/1999/xlink" x="0px" y="0px"
	 viewBox="0 0 136.9 136.9" style="enable-background:new 0 0 136.9 136.9;" xml:space="preserve">
<style type="text/css">
	.st0{fill:#EDBF00;}
	.st1{fill:#F3F4F5;}
	.st2{fill:url(#SVGID_1_);}
	.st3{fill:#6CC077;}
	.st4{fill:#DBF0F5;}
	.st5{fill:#B8B9BA;}
	.st6{fill:#FFFFFF;}
	.st7{opacity:0.5;fill:#202121;enable-background:new    ;}
	.st8{fill:#B5DBAF;}
	.st9{fill:#F6A2A3;}
	.st10{fill:#67B8CB;}
	.st11{fill:#F5E554;}
	.st12{fill:none;stroke:#67B8CB;stroke-width:0.5;stroke-miterlimit:10;}
	.st13{fill:#D3D4E3;}
	.st14{fill:none;stroke:#B8B9BA;stroke-width:0.5;stroke-miterlimit:10;}
</style>
<g>
	<g>
		<g>
			<g>
				<circle class="st0" cx="68.5" cy="68.5" r="63.3"/>
			</g>
		</g>
	</g>
	<g>
		<g>
			<path class="st1" d="M93.3,106.7c0,5.8-2.1,7.9-7.9,7.9H53.9c-5.8,0-7.9-2.1-7.9-7.9V33c0-5.8,2.1-7.9,7.9-7.9h31.6
				c5.8,0,7.9,2.1,7.9,7.9L93.3,106.7L93.3,106.7z"/>
			
				<linearGradient id="SVGID_1_" gradientUnits="userSpaceOnUse" x1="69.5425" y1="104.353" x2="69.5425" y2="32.832" gradientTransform="matrix(1 0 0 -1 0 138)">
				<stop  offset="0" style="stop-color:#5978BA"/>
				<stop  offset="0.703" style="stop-color:#4E9DB8"/>
				<stop  offset="1" style="stop-color:#379CC9"/>
			</linearGradient>
			<rect x="48.2" y="33.6" class="st2" width="42.8" height="71.5"/>
			<g>
				<path class="st3" d="M53.1,63.2h33.3c0.8,0,1.5-0.7,1.5-1.5v-5.3l-2.8-2.8c0,0-1.6-2-3-1.9c-1.3,0.1-2.8,1.7-3.1,2l-1.8-1.8
					c0,0-1.8-2.4-3.5-2.3c-1.7,0.1-3.7,2.5-3.7,2.5l-0.6,0.6l-3.4-3.4c0,0-2.3-2.9-4.3-2.8c-2.1,0.1-4.6,3-4.6,3l-5.3,5.3v7
					C51.6,62.5,52.3,63.2,53.1,63.2z"/>
				<path class="st4" d="M61.4,46.4c2.1-0.1,4.4,2.8,4.4,2.8l3.4,3.4l0.6-0.6c0,0,2-2.4,3.7-2.5c1.7-0.1,3.5,2.3,3.5,2.3l1.8,1.8
					c0.3-0.3,1.8-2,3.1-2c1.5-0.1,3,1.9,3,1.9l2.8,2.8V42.5c0-0.8-0.7-1.5-1.5-1.5H53.1c-0.8,0-1.5,0.7-1.5,1.5v12.2l5.3-5.3
					C56.9,49.5,59.4,46.5,61.4,46.4z"/>
			</g>
			<path class="st5" d="M74.4,28.1c0,0.3-0.4,0.6-0.9,0.6h-7.7c-0.5,0-0.9-0.3-0.9-0.6l0,0c0-0.3,0.4-0.6,0.9-0.6h7.7
				C74,27.5,74.4,27.8,74.4,28.1L74.4,28.1z"/>
			<g>
				<circle class="st6" cx="69.6" cy="88.6" r="1.2"/>
				<circle class="st6" cx="74" cy="88.6" r="0.8"/>
				<circle class="st6" cx="77.5" cy="88.6" r="0.8"/>
				<circle class="st6" cx="61.7" cy="88.6" r="0.8"/>
				<circle class="st6" cx="65.3" cy="88.6" r="0.8"/>
			</g>
			<rect x="48.2" y="33.6" class="st7" width="42.8" height="3.6"/>
			<circle class="st6" cx="84.5" cy="35.3" r="0.9"/>
			<circle class="st6" cx="50.3" cy="35.3" r="0.9"/>
			<circle class="st6" cx="88.7" cy="35.3" r="0.9"/>
			<g>
				<path class="st8" d="M58.6,82c0,0.8-0.7,1.5-1.5,1.5h-4.3c-0.8,0-1.5-0.7-1.5-1.5v-4.3c0-0.8,0.7-1.5,1.5-1.5h4.3
					c0.8,0,1.5,0.7,1.5,1.5V82z"/>
				<path class="st9" d="M68.4,82c0,0.8-0.7,1.5-1.5,1.5h-4.3c-0.8,0-1.5-0.7-1.5-1.5v-4.3c0-0.8,0.7-1.5,1.5-1.5h4.3
					c0.8,0,1.5,0.7,1.5,1.5V82z"/>
				<path class="st10" d="M78.2,82c0,0.8-0.7,1.5-1.5,1.5h-4.3c-0.8,0-1.5-0.7-1.5-1.5v-4.3c0-0.8,0.7-1.5,1.5-1.5h4.3
					c0.8,0,1.5,0.7,1.5,1.5V82z"/>
				<path class="st11" d="M87.9,82c0,0.8-0.7,1.5-1.5,1.5h-4.3c-0.8,0-1.5-0.7-1.5-1.5v-4.3c0-0.8,0.7-1.5,1.5-1.5h4.3
					c0.8,0,1.5,0.7,1.5,1.5V82z"/>
			</g>
			<path class="st12" d="M87.8,69.7c0,0.8-0.7,1.5-1.5,1.5H53.1c-0.8,0-1.5-0.7-1.5-1.5V68c0-0.8,0.7-1.5,1.5-1.5h33.3
				c0.8,0,1.5,0.7,1.5,1.5V69.7z"/>
			<g>
				<circle class="st4" cx="84.4" cy="68.4" r="1.1"/>
				<path class="st4" d="M86.4,70.4c-0.1,0.1-0.2,0.1-0.4-0.1l-1.2-1.2c-0.1-0.1-0.1-0.3-0.1-0.4l0.1-0.1c0.1-0.1,0.2-0.1,0.4,0.1
					l1.2,1.2c0.1,0.1,0.1,0.3,0.1,0.4L86.4,70.4z"/>
			</g>
			<g>
				<path class="st10" d="M57,98.5c0,0.7-0.5,1.2-1.2,1.2h-3.5c-0.7,0-1.2-0.5-1.2-1.2V95c0-0.7,0.5-1.2,1.2-1.2h3.5
					c0.7,0,1.2,0.5,1.2,1.2V98.5z"/>
				<path class="st11" d="M64.9,98.5c0,0.7-0.5,1.2-1.2,1.2h-3.5c-0.7,0-1.2-0.5-1.2-1.2V95c0-0.7,0.5-1.2,1.2-1.2h3.5
					c0.7,0,1.2,0.5,1.2,1.2V98.5z"/>
				<path class="st8" d="M72.9,98.5c0,0.7-0.5,1.2-1.2,1.2h-3.5c-0.7,0-1.2-0.5-1.2-1.2V95c0-0.7,0.5-1.2,1.2-1.2h3.5
					c0.7,0,1.2,0.5,1.2,1.2V98.5z"/>
				<path class="st13" d="M80.8,98.5c0,0.7-0.5,1.2-1.2,1.2h-3.5c-0.7,0-1.2-0.5-1.2-1.2V95c0-0.7,0.5-1.2,1.2-1.2h3.5
					c0.7,0,1.2,0.5,1.2,1.2V98.5z"/>
				<path class="st9" d="M88.7,98.5c0,0.7-0.5,1.2-1.2,1.2H84c-0.7,0-1.2-0.5-1.2-1.2V95c0-0.7,0.5-1.2,1.2-1.2h3.5
					c0.7,0,1.2,0.5,1.2,1.2V98.5z"/>
			</g>
			<path class="st14" d="M74.5,110.3c0,0.9-0.5,1.6-1.2,1.6h-7.1c-0.7,0-1.2-0.7-1.2-1.6v-1.1c0-0.9,0.5-1.6,1.2-1.6h7.1
				c0.7,0,1.2,0.7,1.2,1.6V110.3z"/>
			<circle class="st5" cx="75.7" cy="28.1" r="0.7"/>
			<circle class="st5" cx="77.4" cy="28.1" r="0.7"/>
			<circle class="st5" cx="83.7" cy="28.4" r="0.9"/>
		</g>
	</g>
</g>
</svg>
