<?xml version="1.0" encoding="utf-8"?>
<!-- Generator: Adobe Illustrator 21.0.0, SVG Export Plug-In . SVG Version: 6.00 Build 0)  -->
<svg version="1.1" id="Layer_1" xmlns="http://www.w3.org/2000/svg" xmlns:xlink="http://www.w3.org/1999/xlink" x="0px" y="0px"
	 viewBox="0 0 136.9 136.9" style="enable-background:new 0 0 136.9 136.9;" xml:space="preserve">
<style type="text/css">
	.st0{fill:#FFCE00;}
	.st1{fill:#525252;}
	.st2{fill:#444545;}
	.st3{fill:#63BD6E;}
	.st4{fill:#117F4A;}
	.st5{fill:#616161;}
	.st6{fill:#717171;}
	.st7{fill:#727172;}
	.st8{fill:#575656;}
	.st9{fill:#D6CB78;}
	.st10{fill:#ECE17E;}
</style>
<g>
	<g>
		<circle class="st0" cx="68.5" cy="69.5" r="63.3"/>
		<g>
			<path class="st1" d="M105.2,92.9c0,4.3-1,4.2-5.5,4.2H39c-4.5,0-8.2-3.5-8.2-7.8V52.8c0-4.3,3.7-7.8,8.2-7.8h60.3
				c4.5,0,5.9,1.5,5.9,5.8V92.9z"/>
			<path class="st2" d="M103.6,91.6c0,4.3-1.2,4.2-5.5,4.2H40.2c-4.3,0-7.8-3.5-7.8-7.8V54.8c0-4.3,3.5-7.8,7.8-7.8h58.4
				c4.3,0,5,2,5,6.3V91.6z"/>
			<g>
				<g>
					<g>
						
							<rect x="62.5" y="32.9" transform="matrix(0.1322 -0.9912 0.9912 0.1322 5.7561 123.9557)" class="st3" width="22.4" height="51.7"/>
						<path class="st4" d="M97.1,72.1l-49.5-6.6l2.7-20.1l49.5,6.6L97.1,72.1z M99.2,52.4l-48.6-6.5L48.1,65l48.6,6.5L99.2,52.4z"/>
						
							<ellipse transform="matrix(0.1322 -0.9912 0.9912 0.1322 5.7542 123.9527)" class="st4" cx="73.7" cy="58.7" rx="8.8" ry="8.8"/>
					</g>
				</g>
				<g>
					<path class="st3" d="M72.5,66l0.2-1.4c-0.6-0.2-1.1-0.4-1.4-0.7c-0.3-0.3-0.6-0.7-0.8-1.2c-0.2-0.5-0.3-1.2-0.2-2l1.2-0.1
						c0,0.8,0.1,1.4,0.3,1.8c0.3,0.6,0.6,0.9,1.1,1l0.6-4.6c-0.5-0.2-0.9-0.5-1.4-0.9c-0.3-0.3-0.6-0.7-0.7-1.2
						c-0.1-0.5-0.2-1-0.1-1.6c0.1-1,0.5-1.8,1.2-2.4c0.5-0.4,1.1-0.6,1.9-0.5l0.1-0.7l0.7,0.1L75,52.3c0.7,0.2,1.2,0.5,1.6,1
						c0.5,0.6,0.7,1.4,0.7,2.3l-1.3,0c0-0.6-0.1-1-0.3-1.4c-0.2-0.3-0.5-0.6-0.8-0.7l-0.6,4.1c0.6,0.3,1,0.4,1.1,0.6
						c0.3,0.2,0.6,0.5,0.8,0.8c0.2,0.3,0.3,0.7,0.4,1.1c0.1,0.4,0.1,0.8,0,1.3c-0.1,1-0.5,1.8-1.1,2.4c-0.6,0.6-1.3,0.9-2.2,0.8
						l-0.2,1.5L72.5,66z M74.1,53.4c-0.5,0-0.9,0.2-1.2,0.5c-0.3,0.3-0.5,0.7-0.6,1.2c-0.1,0.5,0,0.9,0.2,1.3
						c0.2,0.4,0.5,0.7,1.1,0.9L74.1,53.4z M73.5,63.4c0.5,0,0.9-0.2,1.2-0.6c0.4-0.4,0.6-0.9,0.7-1.5c0.1-0.5,0-1-0.2-1.3
						c-0.2-0.3-0.6-0.7-1.2-1L73.5,63.4z"/>
				</g>
			</g>
			<g>
				<g>
					<g>
						
							<rect x="42.2" y="42.6" transform="matrix(0.9105 -0.4134 0.4134 0.9105 -16.1702 32.9261)" class="st3" width="51.7" height="22.4"/>
						<path class="st4" d="M94.9,52.8L49.5,73.4l-8.4-18.5l45.5-20.6L94.9,52.8z M86.3,34.9L41.7,55.2l8,17.5l44.7-20.3L86.3,34.9z"
							/>
						
							<ellipse transform="matrix(0.9105 -0.4134 0.4134 0.9105 -16.1703 32.9265)" class="st4" cx="68" cy="53.8" rx="8.8" ry="8.8"/>
					</g>
				</g>
				<g>
					<path class="st3" d="M70.8,60.6l-0.6-1.3c-0.6,0.2-1.1,0.2-1.5,0.2c-0.4-0.1-0.9-0.3-1.4-0.6c-0.5-0.4-0.9-0.9-1.2-1.5l1-0.7
						c0.4,0.7,0.8,1.1,1.2,1.4c0.5,0.3,1,0.4,1.5,0.3L67.8,54c-0.5,0.1-1.1,0.1-1.7,0c-0.5-0.1-0.9-0.3-1.2-0.6
						c-0.4-0.3-0.7-0.8-0.9-1.3c-0.4-0.9-0.5-1.8-0.2-2.7c0.2-0.6,0.6-1,1.3-1.5l-0.3-0.6l0.6-0.3l0.3,0.6c0.7-0.2,1.3-0.2,1.8,0
						c0.7,0.3,1.3,0.8,1.8,1.6l-1,0.7c-0.3-0.5-0.6-0.8-0.9-1c-0.3-0.2-0.7-0.2-1.1-0.2l1.7,3.8c0.6-0.1,1-0.1,1.3-0.1
						c0.4,0,0.8,0.1,1.1,0.3c0.3,0.2,0.6,0.4,0.9,0.7c0.3,0.3,0.5,0.7,0.7,1.1c0.4,0.9,0.5,1.8,0.3,2.6c-0.2,0.8-0.7,1.4-1.4,1.8
						l0.6,1.3L70.8,60.6z M65.6,49.1c-0.4,0.3-0.6,0.6-0.7,1.1c-0.1,0.4,0,0.9,0.2,1.3c0.2,0.5,0.5,0.8,0.8,1
						c0.3,0.2,0.8,0.3,1.4,0.2L65.6,49.1z M70.4,57.9c0.4-0.3,0.6-0.6,0.8-1.1c0.1-0.5,0-1-0.2-1.6c-0.2-0.5-0.5-0.8-0.8-1
						c-0.3-0.2-0.8-0.3-1.5-0.2L70.4,57.9z"/>
				</g>
			</g>
			<g>
				<path class="st5" d="M101.8,96.4c0,4.3-1.7,5.5-6,5.5H35.2c-4.3,0-4.4-0.4-4.4-4.7v-44c0,0,0-1.1,0.1-1.7
					c0.1-1.5,1.2-2.9,1.2-2.9s0.6,2.7,2.5,3.5c2.9,1.2,5.1,1.1,5.1,1.1h56.1c4.3,0,6,0.6,6,4.9V96.4z"/>
				<g>
					<g>
						<path class="st6" d="M36,56L36,56l-4,0c-0.6,0-1-0.4-1-1c0-0.6,0.4-1,1-1l0,0l4,0c0.6,0,1,0.4,1,1S36.5,56,36,56z"/>
					</g>
					<g>
						<path class="st6" d="M94.4,100.7h-2c-0.6,0-1-0.4-1-1c0-0.6,0.4-1,1-1h2c3.3,0,3.9-0.3,4.2-1.4c0.1-0.5,0.7-0.9,1.2-0.7
							c0.5,0.1,0.9,0.7,0.7,1.2C99.7,100.7,97.1,100.7,94.4,100.7z M84.3,100.7h-8.1c-0.6,0-1-0.4-1-1c0-0.6,0.4-1,1-1h8.1
							c0.6,0,1,0.4,1,1C85.3,100.3,84.9,100.7,84.3,100.7z M68.2,100.7h-8.1c-0.6,0-1-0.4-1-1c0-0.6,0.4-1,1-1h8.1c0.6,0,1,0.4,1,1
							C69.2,100.3,68.8,100.7,68.2,100.7z M52.1,100.7H44c-0.6,0-1-0.4-1-1c0-0.6,0.4-1,1-1h8.1c0.6,0,1,0.4,1,1
							C53.1,100.3,52.7,100.7,52.1,100.7z M99.7,90.6c-0.6,0-1-0.4-1-1v-8.1c0-0.6,0.4-1,1-1c0.6,0,1,0.4,1,1v8.1
							C100.7,90.2,100.3,90.6,99.7,90.6z M99.7,74.5c-0.6,0-1-0.4-1-1v-8.1c0-0.6,0.4-1,1-1c0.6,0,1,0.4,1,1v8.1
							C100.7,74,100.3,74.5,99.7,74.5z M99.4,58.4c-0.4,0-0.8-0.3-1-0.7c-0.3-0.9-0.8-1.6-3.9-1.6l-2.2,0c-0.6,0-1-0.4-1-1
							c0-0.6,0.4-1,1-1l0,0l2.2,0c2.5,0,4.9,0.4,5.8,3c0.2,0.5-0.1,1.1-0.7,1.3C99.6,58.4,99.5,58.4,99.4,58.4z M84.3,56.1
							L84.3,56.1l-8.1,0c-0.6,0-1-0.4-1-1c0-0.6,0.4-1,1-1h0l8.1,0c0.6,0,1,0.4,1,1C85.3,55.6,84.8,56.1,84.3,56.1z M68.2,56.1
							L68.2,56.1l-8.1,0c-0.6,0-1-0.4-1-1c0-0.6,0.4-1,1-1l0,0l8.1,0c0.6,0,1,0.4,1,1C69.2,55.6,68.7,56.1,68.2,56.1z M52.1,56
							L52.1,56L44,56c-0.6,0-1-0.4-1-1c0-0.6,0.4-1,1-1l0,0l8.1,0c0.6,0,1,0.4,1,1C53.1,55.6,52.6,56,52.1,56z"/>
					</g>
					<g>
						<path class="st6" d="M36,100.7h-4c-0.6,0-1-0.4-1-1c0-0.6,0.4-1,1-1h4c0.6,0,1,0.4,1,1C37,100.3,36.5,100.7,36,100.7z"/>
					</g>
				</g>
				<path class="st5" d="M98,94.5c0,3.6-1.3,3.9-5,3.9h-62V56.2l62.2,0c3.7,0,4.8,1,4.8,4.7V94.5z"/>
			</g>
			<g>
				<path class="st7" d="M105.4,79.2H85.9c-1.3,0-3.6-2.3-3.6-6.8c0-4.5,2.3-6.7,3.6-6.7h19.5C106,65.7,105.9,79.2,105.4,79.2z"/>
				<path class="st8" d="M105.4,80.3H85.9c-1.3,0-3.6-2.3-3.6-6.8s2.3-6.7,3.6-6.7h19.5C106,66.8,105.9,80.3,105.4,80.3z"/>
				<ellipse class="st9" cx="88.4" cy="73.6" rx="2.5" ry="3"/>
				<ellipse class="st10" cx="88.4" cy="73.6" rx="2" ry="2.4"/>
			</g>
		</g>
	</g>
</g>
</svg>
